<mxfile host="app.diagrams.net" agent="Mozilla/5.0 (Windows NT 10.0; Win64; x64) AppleWebKit/537.36 (KHTML, like Gecko) Chrome/127.0.0.0 Safari/537.36 Edg/127.0.0.0" version="24.7.6">
  <diagram name="Page-1" id="Taq_3c3luaQMyFGaOIb5">
    <mxGraphModel dx="3204" dy="2417" grid="1" gridSize="10" guides="1" tooltips="1" connect="1" arrows="1" fold="1" page="1" pageScale="1" pageWidth="827" pageHeight="1169" math="0" shadow="0">
      <root>
        <mxCell id="0" />
        <mxCell id="1" parent="0" />
        <mxCell id="p0wZOzNyxaBEGN42C4hW-2" value="" style="group" parent="1" vertex="1" connectable="0">
          <mxGeometry x="-100" y="-1025" width="1490" height="825" as="geometry" />
        </mxCell>
        <mxCell id="kLLIGCO7J5aGBXE1isZK-81" value="" style="rounded=0;whiteSpace=wrap;html=1;fillColor=#fff2cc;strokeColor=#d6b656;" parent="p0wZOzNyxaBEGN42C4hW-2" vertex="1">
          <mxGeometry x="970" y="195" width="520" height="470" as="geometry" />
        </mxCell>
        <mxCell id="ufXdxWMpvUYqsRV-47vq-23" value="Storage&#xa;Event&#xa;Trigger" style="shape=image;verticalLabelPosition=bottom;labelBackgroundColor=default;verticalAlign=top;aspect=fixed;imageAspect=0;image=data:image/png,iVBORw0KGgoAAAANSUhEUgAAAIgAAACFCAYAAACAJLCMAAAAAXNSR0IArs4c6QAAAARnQU1BAACxjwv8YQUAAAAJcEhZcwAAFiUAABYlAUlSJPAAABkASURBVHhe7V0JlBzVdX2j2TSjWTQC7RJakIxAG9tRZCEBwsIOcFgNtg/BB3JCsIMxEDAhsa2T+AQ7NsYJdmxjOxuEHYJjwhJjy6xilYUQAoPNjh0JSWiENItmkWby7nv/V9e0pquru39VVw19q//2/tZd//1b71dX/67asWPHIFVQQQ6MMmEFFQyLioJUEIiKglQQiIqCVBCIioJUEIiKglQQiIqCVBCIioJUEIiKglQQiA/NndSqqiqqrq723KhRo0RmQ+v8GBwc9NzAwIAX7tu3z3OQjWSMWAWpqakZ4qAIUQAKs3fv3iFuJGHEKAgUoLa21nPZbBAXwCj9/f2egwKlGalWEChBXV2dOChFEgEl6evrE5fGy1EqFQSXjPr6enFpQm9vr7g0XYZSpSBgCihFUtkiLMAqUBSwStKRCgWBYowePVqYYyQBTNLT05NoRUm0goApGhoaRpxiZAOKsmfPHmGWpCGRCoIVSWNjozDHhwlgku7u7kStfBKnILiUQDlc4cUtTN/8Ce2H9D6syDQ1VOZFFbzyyJb5FyND2jByr5zxjpnZIOmwgJLg0pMEJEZBcHcTiuHSAN3asY8uuGMHDWCQ+VNKyHKEA5LG+Glc7pJClpWWfJ7Qtpy6TDv8khBz3mvD5E9traH1X5zJscKByw0UBXdry4lEfBeDlUlra6vz1cltG7qpyhyEG2dy80yd3lpHKck1+ZqSEr58EZhQikk6IzZZAn/+VceO00gRwLnAOSn3Ur7sCjJmzBhxrgH2+OVv98jMl/mMqS4z2xyIQ2bSmm9SJk+zM3J5WblKRGayBFKc3XRmj88sbjHS4hHV+QmLsikIDNGWlpbIZsjtG/bwTNbpLZxgprZ3IG7yxUk+Xhk5fL9ck8iXmMlXp7nIV/elEtgjGzhHOFdRfZ8UhLIoCJat+MBRLV+3MXus+R2zh0x1zHQzrU1aZByXpKQRIF9yjCQTKjIprWckIkBEgbxprbX0aQfs4UfU5ywXYjdSsXRtamoyqWjw3Sc6WUF69jMiV82tp08c0uANrH5wqwgMT5YJJd8kvDwTuerB7fSHXXuH9IOs75wy3rmC+NHZ2RnbzbVYFQRUGfX1dFvnPrrwznYerMyA2QG8+dwDaWJztRYsEfds6qC/evB9btesXIwiYeXyzBdmmFLRoaurS27XR43YLjFxKAdwB9sesAjUFoBloO7EjzQ4Uw7gu2s/ULtDOsJLUnTFCne2RxBwLuNY4cSiIHEpB9jj4ddwg0lns7VB4M47yl3/d7/YQVvYzkHLpnkJpjF7fGpRM6SxIA4liVxBYHPEoRzAnS8oe8h85pktjo9VzB6TW9yxx/ef2iWhMog6BHGxhx84t1F+JRGpgsDijtogtRD2YMNUrQ4wiHF8nHekS/bopC278TyH9iQeO7DHOTGyhx84x1GtbiJTEKzZ41IO4K4X+NIijAGAPZCsohPmjHbMHmx7SCemL3jsLl/ehlTZgHMdxX2SyBQkqjc8HLZ1DtAjxvZQgD3YZ+/cI9198XcXs8dWZioxbRgSlJk9LKKakJGMIK6Lcd7QuXsj2x7G3rBTGuyxktkDy05XEPbgUNgJIYTslZs9LHDOXdt7zhUEVnUcyy+L7ZY9fDaHMgjYw93JunNjJ70v7GHYyfQ0raWGzl5YXvbww/X5d6og+Mo+rhWLBdhDmEOmtLEL2D9O2MOd7fEDZg9AV0cSk74uXT4WiUQBY4CxcAGnCuLyQZ8wAHs8+nqvzmUhDngAs8cR7t7LHS90UHu3Ppch7GG6weUrSezhh6uxcKYgeBIs7qfN/+vFHmMPiIfpDY9WzHbLHj98Gvc9tA/pD90wLj0meexhgbHAmJQKJwoCC7os7MG2h7UHLIPg+IxD9rid2WNnt3zTIn1YGwTs8cmEsocFxqTUlaQTBYlbOYB7hD3UDvAzyPJZ9TR9rDv2uOHp3dK29oQuOMbRS5cllz38KHVsSlYQUFncT5+DPR57A99kyrz2Zjc8l+xx24YO2tVjnwmVDsSfyiuXsxbGdxOwFGBsSrn0l6wg+N1K3PjpJmYPiWE2Y25jilfRsplu2eNHYA/Tk4T6oksSbHsMh1LGqCQFgXbG/YQT2ONxrFxAGmIPgD8kQZ8+3J2y3srssbsXj7Ojbbw0nNJSTWctSAd7WGCMimX5khTEhZVcKH62SR+SgR0A9pA4H0tn1tFBbe6U9cfMHtK6dKR9AJekxPbIRrFjVbSClIM93gd7iO2hE1umtPiD9KnD3dket27opM4+rFwAZQ54WLmcmTL2sCiWRYpWkDhvp1v890usHJjIsDt0eku4dEY9zWhzZ3v8+BlmD18fSh5VdPFHWxFJLYoZs6IUBNoY902x97sG6AmwB2az2B4INDx7sbtL3a3Pd1JXb+Y7F+1IbY+0socFxqxQ1i9KQcrBHveK7ZGZzZjdmOVLDqqjmePcXep+8qyyh/QBgXREdPGydLOHRaFjV7CC4OTFrSDCHm/iMX+dzfAkYP/sxe5WLrcwe3T3Z2wPG05pqaEz5qebPSwwdta4D4OCFaTY5VIpuBe2B0PmND4bf0AER08He7izPYQ9tBc5iXoeYXtE9xuXcqCQMUy8goA91r5ht3AQj521Pdyxx83rO6lX2ANtW6e2x+kjhD0sIlMQfPETt3F630t9MqN9nuBosT3csce/MHsoM4E5hEOkt88vHRm2hx8Yw7Bf4hWkIOVYuaxl2wOkocjEzlrozg76z/Ud1L+P25YXDmBQHnY+fX68D0DFhbBjWdBPL/FQbJyXmBuf7aG1b/VlfkaJkAdu8ZQa+tJKd7R/7A83E19dMn0gZPnfrmqjKa3VIgNM4KUBjRqlyi7n8/aXeYGXa9s9fnb0Sonf9uI3vvlQkIK0tbUZ+o0eO5g9rr6vMzNgCHEqOfzaSc00+wA3l5ebft0hN8a0H+1jgCMclTRsEf9vb/FeRI5ykm9kXN4ryyEHGvry/WkJs9o8/bBmuue86VwyeuC97ty506RyI/QlBjdY4lIO4P6X1fZAl8YkEO/wabXOlAP49+cwi0wn8hpqg/jlmkS+xEy+Os1FvjoPvnxxJu7zJDzpkKbYlAPA5whz06wgBYkLYI8n39ItITHD4BSDdMYCd7YH2GOfbVw6wguHCLxQkUl5Vaxn0sDQ98sw+VZkujHQ2MrZjXTf+QdJPE6kVkEeeLnfzC2drZa5Fk+ppYMPdPc+LHvoZEZHmkLazxQKm488ExqxRhSSZ9LSkuSbPiCRfC9Fy2Y00kN/Fv12EcMhlQoC9niKDVPMLZnNmHFm2p2x0N13Ljeu65Brv+kFnYjTPq1DNuRaSl5GjjQHEKhcU5rUqMoQRx2T1nyVHz6lnh7+8/IoBxBmTEMZqdB4GKhx4OZ1vXx5wT8jGGOOZTAa50+uoStXurPu/4MVBH0A3sBJ3AyghDaNMEuGQ0WMKk1zzBq4wLWP7VAZF0RZ/+eZN6Ge1l0yS8qVEzBU7ecdDqEUBJqG/bGiBthj9QPdciKzVwVf/XgTX17cGadR4u5NHfTFe7cOUQz/55k9rpZeuGy2Fi4zdu/eHfjvE6EuMa5+pZUP//sbNkzlmq0BfFyuF4rtkQ7luHNjB132P1slLp8h6/Pgh95JUQ4g39gmRkHAHk+/zQoCPmOngc7A0+bH/wVhMfjF77roivu3yXsGJNAPIsGBY0bRb644GNLEwImClPrjmzD4+St795txcPMn1dCc8fGtoIoFtoV48b1eOmBMtbCeB/NBWkdX0+tXzVFZgpBvbEONvF2WRYV2Zo9nmD2yZxxwmsPvXKLExKZq2Tz30c8dRBctGUsNNeac8Qepq66it69OFnNY5BvbUEYq9gyP8jJz26/75PIiBh2fURhyMOgOmVhNVxwf7a/2VrejL7PCgGOZNS6Rum7i8Oz1fPc+erdvgM4YO/yXXnv6B+mf1raL2756rpEmD/izgF27dM+14VB2BmnvHhT2AGR4MEJmoE6NwfaAIrzYM0Cbegc5hBsQt5GdZAbgH97roU+81kG37OiTVYofDbVV9OWVByRaOYB8Y1t2BXnolX5uX+MSwGM3b0I1zY3B9kDf9vNpoG/ASMTPBdTbuY/o+m09tPzV3XQDhx14bCBFSLSCgD2efXuvN1ElgMfuVIffuQSC+xrSv3kDRhQI7wYTBz18XfzJdlaUVz6gazd30xY8P5ACOFGQqPALwx72Pcq85dchfN2fOz6m+x6mf/StvKEOvnq54Z1cDmxdHLfs6KUTWVFW/6GLXvN+/J1OlE1BwB7PvaPskZmISBCdcliMT65J/+hZDxGYmPfGciDDIJn69gDu2dFDp766ky57azc935W8PywMg1CrmHHj3O8gfOfz/Xx50aWt3IrmCE44iNl/i9qfL2X48P9FmNRBXlba5i+YXEvfOiX372mxioFxqn2atkx8YX0VXTcp9yrm4t/vkbKZugjt+zVpLos/KcTnWt5USxdMaKDjWpO1dG9v55OQA6EYBB/eJcAe65g9ADRtm5cAHmSII4q4TXgZeuJtKL6RK3Sg8L7/JN9+IdqAF7UCIwqEd144sOVR01/bX+bx3X30p699QJ98pZ3ub8e24eVHvrEti4KseTXz5dBwNggEKuJQ8r3UMPmISyENjYN80ZQ6cYEwVbS2v76JBiCXDSJxm2UaQmDbXN/VR194Yxet2rSdbtvWLeXKhcQpyE7DHnaWoWnbvMgQZ4EEOCRf5UPyjVycyH1x+BwPs8syF/PqIURdrW8yA6DlJeLVtwdemmUkCFEecgQcf7W7n6566wM6+vkt9KPNHdS1L/6Vj7ynAIRSEJd/9Lvmt8wemE1minkzC3HrQWajJu7zBFpP096M5bSVCHtMzn+jbUg7EkhDXjtByDCIlrf1bW0AZVRs5FLQyLUCbe4boL97Zxcdsf49uvbdXbS1P76VT76xDWWkuvq5A9jjrg24pY7ZxG+OZTKpkJa4hta4kzyblriGWk/jL73X7+V7RiGHXz95LC1kAzUfVu8g2shGKg5txxqYRIvyGKl/8W639seF9Ql1WxdxfR/Z6aFlODT1cVh5FZf93NRmOn9SE81tiHZFl+/nD6EUBDvllWM3oXy44aluevT1Hj7BfJLlBKtS4Rvgr58c7hdxdhWDenaA7OAtHM0KEvBdzNBVzP4KIGkum60AIt+v/NC0DT87qZkumNxERzVHs/LBP3zjD5xzIdQlptz//jwcnO2TiqqmHg7TkPjSeABQz0Skhv+w8NpGiPLIQmDSkoTcZGQOldy0ZTcdt/7/6LMvb6VHdrpf+eQb29QqSK59Uhey3RHm0uLB2AMmanxt10pywdZDv1pLa9ragH2PUgblTUGR23qQG0CiUi2KesBPt3fRyS9sptM2bqGfbc//i7iwGJEKErhPaqE7Hdqp6gUqMKJA6MxHxNbVmv7aQ8ogapy+Zy1piwD++uKbTFv3ofe76BxWkhXrfk83bcY2naXBiYLgQ7pcyZSKXPukLmD2wJ3TgoCGUN0cViATFy4A3sznwNa1B16SZRpC4LWJuHjiq9xkeIeUsZmahkDk7MZUj2IHYfHAmHoKnAOhFAQIevI5TgTuk1rEfiFeOziQQFsSN5kB8E6ur7498NIsI0GI8pAjMGlJQq5ClNQDSW1A8lAGg3XR1FZat+Qg+vmRU+nsiaXtFR9mTFOnILn2SQVzFMwejCHtSAAPLdp4bmQYRMvb+rY2gDIqNnIpaORawQs125TTJDJpbmMdfXPOgfTeiln0vUPG02JHK5oRpyBB+6SeU+wuy5ip2ozXmraYHzrzEbF1AZn/Jq5lJGXLwEMcdU192wygtVXw8XGNdMf8CbRhyTS6dHorNdeEHq5QcK4g3gkpE3Ltkyq2x6Rw7PHYG/jzQx+4PtrIzFx18NXLjeyZr74eFsogfKCMFhEndSXPyE1GA9sWn5/aQk8fNYXuWjCBTj4gmmdyMZZOFQTo7y/fMw1B+6SeE3KfVCjH2+1ZJ8W2Yw7TgfjSeAC8CeOrbw8Lr22EKI8sBCYtSQ7nNVTTN2a10utLpnLYRvMao72DGnYsU6MgufZJnc/MAZcPj7/ZS3+/Zpep74Npx0SNrzPbSnIhwyCGCcTpYaEMIhEtbwqKnN0ft42mWw89kB49fBJdOLmZ6kdl6kaJEaUgwfuk5mePx9/soWt++QGmqqnvA9JGZtuEyy42HIQRJGLrak1/7SFlEGXXxEpw0aRGemzRePq3j4yjE8bG/zVGJAqCdXM5lCTXPqmHhWCPJ5g5vrFGdzBUZzIspD289LACFJVoADIMIjUkYg+8JMs0hGBBYw1dM6OZNh4xgb4yvYVmj47+qf3hgDEMe1+rIAUB8O1fnAjcJ3VR8MwT5fjVLlPPOpNpoGKd9Trb1Wk0q3AWMuyQqW8PvDRrkE5qq6Mb57TSvYeOo3PHN1K1VawyoZAxTLyC5NonFcwBBsmFtW/10jcftv8YxQ6DIk6yPahYhRrAEw4w8dzIMIiWt/VxtPGS9KIJDbTmsDa6fmYLLWtOzg/QI1UQzIjeXqX8qBG4T+qi3DeLnoRy/Ao7F6K8cYiLkyIZGLGJGl84IC8yDGLrEi3iy8jXpo2hJw4bS5dPbqRpdTH9fCMkMHbe+w6BghUEiEtB7gd78Kz0ZjjmKb/AHLnYA7sTfevhDqkjzhymIak/BJ7YlDNOiomXGxkGITq5tY7+dVYT3Ty7ic7kS0pSUejYFaUguMEStbGK/UKwia5OfJ2i9tp+Zo69yp5i5rj2EVxWuCTXEWcONHTc7Ho6/+isDXgly1fOOPioEwTsxnnhAXX04JwmumZqAx3F7JFkYMwKvSNelIIAUbNIrn1SD51Uw+yx/0A89XYfffvRTjPpmQGknlbEcezBo2n1icP8PsYrJ1HjGwYxfi48wIpx0fh6mlBb9GmMFcWMWdGfDIZOodoYFkH7pA7HHk+zcnznkQ6O2YLMAFIP6UFawczx1VU5HkHUIl7UCowoJ45sTJZtkQ8Yq2IWGCWpPp5njAK59kk9dGItu6Hs8cw7ffSPzBwoqPNendgf7PA//l/JpRyAqaK1/fVNdISg2LEqSUGiYJHgfVKHrlyeYeaAcsh85zLWlpCaHF8+q46+/LHg3Rlt+3Ig4dU3mSMAxbIHUPLFc88etw/SPmh2OvTmsonPY7vDzx7PMnNc/3iXxGXmm8IIkFjOl5W/+Vj+J9ulfaELjaMunG1nJKCUMSpZQWAZF6ud2ZCdDmF7YFYbmcxwDv17tItyPAbl0FKY/RI1M/4YZo6/PiHkvq6oqtW81uCMKPXA2JSy4ixZQYCg31UUglz7pII55hn2eO7dfvreE93ebBcGsBU4ccysero6rHIAqGrakHaMg69eulHq2DhREHzxU+obCdwn1bAHlOOfcVlhoTCLDU2FZTPr6KqVBT6nadsxhwhMTBpPMTAmpT5s7kRBAFjJpVBZrn1SwRxw61g5vs/MYQvJrGdPy1XRMmaOgpUDMO2YqPENgxg/jcBYuFhlOlMQoFgWCdwndUGdKMcP1qJtm2FmuAmXzqylK48v8i/K0IA25rVp200zXF32nSoIfoTT1aUri0IA9gBk3soEzszgbz/cTTc8qVb4cPkf5cvKlceX8Pi/tIeXHlYgpAKXQmAMXP3YzamCALidW8gt3aB9UuGLjaGGhqTxknwOl86opb88rrQ/N7Tta1/SuDiNwksXCj3/+eBcQQBocNgbaLn2STWB5CH0eYKlzByXl6gcgLRv3oAG8DIMlSbgnBfD4EGIREEA7DmRz4IO2ifVzl3k2biN/dGMOrrsWEd/LoT2TQcawAefpAs412H+5rRQRKYgYd5wrn1SbSASxO0M52MJK8elrpQDkPa1benfOOlRvHQgzIQsBqE2kCkF2JkIOxRlA+xx+3o876HXe5m3HMFHVJsAocp1QxWipnqiS1a4/dNh3WEI28/YfnTjFmzogofWrsvzUHQSAOVwdTc7G5ErCFBfX09jxkT/b9LFoNh9UpMC2BwujdJsRHaJ8QMfwLXx5AyYHmaKaKACI0o0olYOIBYGsUgik7wEZuYzYFVCfElrZPHoWOZQwYhDOYBYFQTIZZNUEB5R2hzZiH164IPhrzijsLhHOnDOcO7iUg6gLPyJGzr5/q+1gqEo1zkr2wXWzoY4rqNpB85RuVi37BYYjK3ErnASgHKfn0SY6Jgh+OfFUp4nGWnAucA5KTfDJkJBAHw93dHR4ew5hjQD5wDnIgn708a+zA0D/Bs09od38QcCaQJWJy4eE3SJRCqIRW1tLTU0NFBNTbJvd5cKrEzw04QkXmITrSAWYBL828RIUxQoBp4bjfO+RqFIhYJYQFFwux7MkmaAKWB8JlkxLFKlIBZgEigKXJoApYBL0w3CVCqIBR4kAqvAJZVVwBZgCjg8QpA2pFpB/MDKB0pinX0KLW5ACaAU1qX9O6cRoyDZwGXI76BAUQAKgEuG340kjFgFyQYYpbq62nNQGMhsaJ0fYAProAg2xA0s6yAbyfjQKEgFxSExt9orSCYqClJBAIj+H9RM0f3C1MZZAAAAAElFTkSuQmCC;strokeWidth=3;fontSize=16;" parent="p0wZOzNyxaBEGN42C4hW-2" vertex="1">
          <mxGeometry x="319.23" y="450.9" width="61.35" height="60" as="geometry" />
        </mxCell>
        <mxCell id="ufXdxWMpvUYqsRV-47vq-24" style="edgeStyle=orthogonalEdgeStyle;rounded=0;orthogonalLoop=1;jettySize=auto;html=1;strokeWidth=3;strokeColor=#000000;flowAnimation=1;fontSize=16;" parent="p0wZOzNyxaBEGN42C4hW-2" source="ufXdxWMpvUYqsRV-47vq-23" edge="1">
          <mxGeometry relative="1" as="geometry">
            <Array as="points">
              <mxPoint x="391.23" y="481.1" />
              <mxPoint x="391.23" y="523.1" />
            </Array>
            <mxPoint x="489.23" y="523.0999999999999" as="targetPoint" />
          </mxGeometry>
        </mxCell>
        <mxCell id="ufXdxWMpvUYqsRV-47vq-28" value="Document&#xa;Register" style="shape=image;verticalLabelPosition=bottom;labelBackgroundColor=default;verticalAlign=top;aspect=fixed;imageAspect=0;image=https://cdn-icons-png.flaticon.com/512/6925/6925245.png;fontSize=16;strokeWidth=3;" parent="p0wZOzNyxaBEGN42C4hW-2" vertex="1">
          <mxGeometry x="810" y="516.9600000000002" width="52.94" height="52.94" as="geometry" />
        </mxCell>
        <mxCell id="ufXdxWMpvUYqsRV-47vq-29" value="" style="edgeStyle=orthogonalEdgeStyle;rounded=0;orthogonalLoop=1;jettySize=auto;html=1;strokeWidth=3;flowAnimation=1;fontSize=16;" parent="p0wZOzNyxaBEGN42C4hW-2" target="ufXdxWMpvUYqsRV-47vq-28" edge="1">
          <mxGeometry relative="1" as="geometry">
            <mxPoint x="539.911818181818" y="523.5" as="sourcePoint" />
          </mxGeometry>
        </mxCell>
        <mxCell id="ufXdxWMpvUYqsRV-47vq-50" value="Document &#xa;Register" style="shape=image;verticalLabelPosition=bottom;labelBackgroundColor=default;verticalAlign=top;aspect=fixed;imageAspect=0;image=data:image/jpeg,/9j/4AAQSkZJRgABAQAAAQABAAD/2wCEAAoHCBISERIREhUSERISEBESEhEQGBERERISGBQZGRgUGBgcIC4lHB4rHxgYJjgmKy8xNTU1GiQ7QDszPy40NTEBDAwMEA8QHxISHzQkIyM0MTQxNDE2NDQ0NDExMTQ1MTQ0NDQ0MTQ0NDQ0NDQxNDQ0MTQ0NDQ0MTQ0NDUxNDQ0NP/AABEIAOEA4QMBIgACEQEDEQH/xAAcAAEAAQUBAQAAAAAAAAAAAAAABwECAwQGBQj/xABOEAACAQECBgkODAUEAwAAAAAAAQIDBBEFEiExUVIGBxRBYXGBofATFyIyQnJ0kaKxssHR0hUWIyQzNFODo7PC4mJzkpPDQ1SC4SU1Y//EABoBAQADAQEBAAAAAAAAAAAAAAACAwQBBQb/xAAxEQACAQIDBAgGAwEAAAAAAAAAAQIDEQQSMRMhMlEUM0FhgZGhsQUiUnHR8FPB4UL/2gAMAwEAAhEDEQA/AJmAAAAAAAAAAAAAAAAAAAAAAAAAAAAAAAAAAAAAAAAAAAAAAAAAAABp4SwhSs1N1a0lCK0529CW+yLNke2TUm5U7KupwzY7ux3y+zxslGLehGUktSVrVbaVJX1Jwpr+OSj5zyK+zCwQz1lLvIzlz3Xc5A9qwjWqScqk5ybztt3mq3fny8ZYqS7WVupyJ1ltg2Bd3N8SgvPIx9cawaan4XvkHAlsonNqycOuNYNNT8L3x1xrBpqfhe+QeBsojayJw641g01PwvfHXGsGmp+F75B4GyiNrInDrjWDTU/C98dcawaan4XvkHgbKI2sicOuNYNNT8L3x1xrBpqfhe+QeBsojayJx641g01PwvfL4bYVgfdTXJB+aRBYGyiNoz6AobM7BP8A1cXvoT86TR61kwlQq/RVKc+CMot+LOfNCNihbKlNpwnJNZsryHHSXYxtWfTYIW2PbYtoouMK/wArTzO/tkuB5/OStgXDNC108ejLGzY0XdjRfCvWVSg0WxkpHpgAiSAAAAAAAAABo4VwjTs1Gdaq8WEFe9Le9FcLN1shrbS2QOtX3JTfydF3zu7qpd6kSjG7sRlKyuc/sp2SVbdVcptxppvqcE8kYnhlpcaUrGcAA6cAAAABWEHLIk29CTYBQGzDB1aWaEuXIZVgmtqrlaO5XyI5lzNEG88E1tVeNGOWD6q7h8lzGWXIZo8zVBfOlKPbRa400WHCQAAAAAAPSwHhqtY6salKTVz7KO9Jb6Z5oAPovY7hunbaEa1N5c0478J3ZUeuQPtfYedktUYSfyVZxhNbyd/Yy8bJ2jK9XmaccrNMJZkXAAgSAAAAAANDDNsVCz1arzU6cpPkV5822ivKpOc5u+U5SnJ8Ld7Jw2zrTiYNrpZ59ThySqRT5ryCy6ktxTUe8C8AtKyt4KAAvBYVvFwezgfBSqLqlS/Ev7GKyY3C3oPejCEFclGC5Illiji0qaWpHnV7OXwpXlOrPGbujJxit5JO40XVNGbfUkdZeUbPCwBXljSg23HFxlfvO9L18x7TZOMsyuQlHK7BsxtlWyxs6cKSSeRpNaHlPJt+Dkk508m+473Gj1Wy1s5JJ6koycdDlwZrXBRnOKzKWTieX1mEympbwAAAAAAmfQewvCW6bDQqt3ycFGffx7GXOj58Je2obTjWSpTf+naJXcUoQl53Irqr5Sym/mJEABnLwAAAAACPttyd1iita0QXiUn6iGiYNt9/NKfhUPQmQ+X0+EpqcRUFAWECoKAHCoCV+bLxFcV6H4jgO0s77Cn3kPRRpW7BdOpLHvcJPO1dc+Q0aeG5xjGPU+1ilne8rtAeHJ/Z879hpc4NWZmVOad0enZLHClFqOd55POzK2eO8NS1Od+wteGJanO/YNpBaDZzep7DZY2WUamPCMrrsaKd2gubLCBRssbKtljYB4eEPpZ/8fRRgM9uTdWd2Xtciy9yjD1OWrLxMyvVmqOiKApLI7nkeh5GUOWOlwAABJ209UyWqOiVN+OMl6iMSSNp59na/uP8hCpwk6fES0ADMaAAAAAACONuH6pS8Kh6EyICX9uH6pT8Jh6EyIC+nwlNTUAAmQNvB9hlWnixyJZZS3kvadPZcG0qaV0VKWtLK/8AorgqyqlSjHumsaffPpcbTZqhBRV3qZKlRydloGyxsNlsmWXKykpFrkGyxsHQ2WNhso2cBSTLGw2Wtg6UbLWw2UOHTa2Gv/y9Lil+WTDeQ9sN/wDb0uKX5ZL7Z8n8Zt0jfy/tns4Pq/3kilWEZxcZpTi88ZJSi+NMj3ZtsNpqnO1WWGJKCcqlGHayh3U4Leaz3LeJCbLXoPPoYidCWaHl2P7/ALuNE6amrM+dy49TZPg7c1rrUkroY+PTX8E8qXJlXIeTefXwmpxUo6PeeU007MuJI2ne3tf3H+QjUkrad7e1/cf5BU4TtPiJaABmNAAAAAABHG3D9Up+Ew9CZD5MG3D9Up+Ew9CZDxdT4SmpqVM9hp49WnHTOPnvNc9HAcb7RDgvfiRbHe0iqTsmzrmyxsq2Wtm0xCTMbZVssbOHSjZa2GzXrWunDtpxT0X3sXsdtcytlrZqvCNLX5pewteEKevzS9hzNHmSyy5Gy2Wtms7fT1uZlu7qWtzM5mXMZXyNkpKSSbeRLKzWnhCmt9vgSfrM+DcF2nCE1ClHEpX9lVnf1OK0t90+BFdStCnFyk7JE4UpSdrHubWtilUtVW1NPEhFwi95znvckVzknNmhgfBlOyUIUKa7GKyyfbTm+2nLhZutnxWMxO3rOfZovt+7/E9yjT2cFENlGyjZRsxtlxGu2lZrq1Cqu7pyg3pcXf5pHCEm7aML7NQlotDj/VTk/wBJGR9X8Lnnwse669fxY8vEq1Vgkrae7e1/cf5CNSStp3t7X9x+s2z4SqHES2ADOaAAAAAACN9uH6pT8Kh6EyHyYNuL6nT8Kh6EyHi6nwlM9Sp6GA5XV4cKa8aPPM9hqYlSnLRNewti7NMrkrpo7VsxtlWyxs2GIo2WNlWzQwvXxKbuyOXY8m+cbsrnUruxZSjXtlZWeyxb1p5ko78pPej5ztsF7W1mhFO0zqV5vtlBulST4LuyfG3yI9Ha+wTGz2OnUa+UrpVZSefFfaR4rrnynUHyuN+I1Z1HGDsly7f8+3iezQw0IxTaOY+ImDfsZf3a3vFfiHg37GX9yt7x05a2YOlV/rl5v8l+yhyXkc18RMHfYy/uVfeKfEXBv2L/ALlX3jpmy1sj0uv/ACS83+TuyhyXkc/Q2G4Pg8ZUIya+0cqi8Umz3KcIwiowSjFZoxSSXIi5so2U1K0575tv7tssjFR0RW8tbNNYQTyqFRreaxbnw5ym7v4Knke0js6nImbjZa2am7f4Knk+0puz+Cp5PtIulU5HTl9s+fzSlHfdqi/FTmvWiLyUtmGC61uVKNNKEabnJ9UvvcpXJXYt+8uc5j4i2rXp+X7D6L4bVp0cOozlZ3bt4mDE0qk6l4o5Qkvad7e1/cfrOf8AiLaten5fsOs2CYNqYOlWdVY/VOp4vUt7Fx778a7WRtniqDVsyKY0KqfCyTwefYMJxrSlBRnGUUpXTxcqvuvVzZ6BGMlJXW9E2mnZgAEjgAABG+3F9Tp+FQ9CZDxMO3H9Tp+FQ9CZDxdT0KZ6lSgBMiddYbR1SnCW/ddLvlnMzZy+Dbc6UnflhLtloelHRUrRCavhJS4s/iNdOeZd5knBxfcZGzycPvsId8/Meo2eTh7tY98/Mdnocp8SJrwOrrLZ0t6z0Py4m4aeCX82s/g9H8uJttnwLe8+hWgbKNlGy1srbJlWy1sFGQclzJWDZZN5HxMuLJ5nxMrc1zJWPKssvk48T87Olp4OpNLsL7kr25STbav3mcvZX8nHvX52drQzeL0UfQ4OEZSnmSempnxEmlGzNT4Np6i/qqe008JWWEIXxjitSSfZSkmmm9/iPdPJw39G+/j6MjTXpU1Tk1FackU0pyc0m2eLjC8svGMeOegX3i8svF4BvYEfzl/yf1HSnMYDfzl/yf1HTns4TqV4+559frGAAaSkAAAjfbi+p0/CoehMh0mTbhj8zpvRaYPyZr1kNF0NCqepUqUBMgVCZQAGTqstaXjZbObaytvjbZaN46tQfQmCX82s/g9H8uJttmlgh/NrP4PR/LibTZ8RJ7z14rcVbLWw2UbK2ydjhcL7DLVWtFWtC1dThUqOUYfLdinvZJXGn8QbZ/vfzfaSI2YbTaIU4SnUkoQhFylJ5klvmyPxPExSjFrdZcK+3Iq6NTvd+7OA+Idr/wB7+b7S2ewS13P57vP7X2nqw2wbI6mI41Ywvu6q0sXjazpHV4ylHGi01KN6aypprI0W1sdj6Ntp8t9Lxj+CEKNCfDv8X+TybJ9HHiO3oyyJ3NpqLTWVNYqOBs1phGEU5JNLKsukzK3w3p88i6hiFRlLde/eaKtF1Euw7zqnBLxHl4c+ivzX1I3J58kZHMbvjr88ijt0Hnknx3stq45Tg45de/8AwrhhnGSlfTuNm8XmruynrrnG7KeuucwXNVmbV5W81N2U9dc43ZT11zi4sz2MAfWpfyf1HUnI7Gq0ZWmTi711G7Jpxkdce3g+pXj7nm4jrGAAaSkAAA4PbYo42D6kkr3CdKflpPmbIQPovZhYer2OvT16ckuB3ZH4z50aayPI1ka0PfRbT0K56lAVBYQKFxQAFQy0qATtsVt0a9is84u9qjCnJaJwSi0/FfynrNkJbFtktSwzdy6pRm11Snfd/wAoveZK+CMP2W1xvo1IuV3ZUpdjVjxxeXlWQ+Tx2DnQm5WvFvc/6f7v1PSoVYzSXaeo2UbKNlGzzbmmwbPB2a2OpWsNWnTTlPsJ4qzyUZqTiuRHuFTtKq6c4zWsWn5bxKClFxfafPsYScsRRk5N3KKTc29GLnv4CbNj1lnRsVClU7eFFKS1c7xeRO7kNm0bno31pqjTayurNU4P+p5Tg9luzhThOhZL8WUXGdZpxclvqCeW7hZ7FWtV+JuNOnCyTu3e65a2Xf3sxxhHDXlJ3Z6d/qKmvGzU7l2KzLToK7mp6q5zLKzZ6a0M4MG5qequcbmp6q5zm46ZwYNzU9Vc43NT1VzjcDODBuanqrnG5qequcbgdTsK+nn/ACn6SO4OD2DUoxtE8VXfJPTrI7w93BdQvH3PKxPWsAA1FAAABgtdPGi1wHz7s4wO7La5tK6nVbnF72N3UfXyn0Q0cfs32OxtdGUc0l2UJb8ZLMyUXZkZK6IFBnt1knRnKnNYsou7ga0rgMBcVgAHTgAAAKxk01JNpp3pptNPSmsxQAHt2HZZbqVyjWlNLual1ReN5ec9eltiWpdtToz4bpLzM40GWeCw898oLyt7WLFVqLSTO1ntjWprJSox4ezfnZ59q2b2+d6U401/8oxT8bvOaBGOAwsd6pr397h1qj/6ZntVqqVZY1SpOpLedSTldxX5uQwTzPiYKTzPiZsjuskVS0ZLNls0ZQi23ljwGXccdL5hYZfJR731mxjdOjPj3qfRGDccdL5im446XzGxjdOjGN06M4DX3HHS+YruOOl8xnxunRjG6dGAa+446XzDccdL5jYxunRjG6dGAejsSpqNpmll+Qvy9+jtTjdir+dT8H/Wdke9guoj4+55mJ61gAGooAAABjqwUlczIADhNluxGnaY33XTV+LOPbLpoIlwtsfr2aTU4ucV3cU7uVbx9JyinnPKt2CKdRO+KZKMrEXG581gmbCmwKhUbeIk9Mb4vxo5+0bXCv7GdRcF8WudesszohlZHIO5ntd1N6cuWKfrMfW9q6/kfuO5kMrOKB2vW9q6/kfuHW9q6/kfuGZDKzigdr1vauv5H7h1vauv5H7hmQys4oHa9b2rr+R+4db2rr+R+4ZkMrOKLZ5nxM7fre1dfyP3FJbXtW59m82p+4KSuccXY6Wwy+Tj3vrNi/plNWxP5OPF62Z7+nRHyD1PoDJeUv6ZSy/p0Qv6dEcBkvF5jv6dEL+nRAF9/TKOm+WX9OiF/TogD2dij+dz8H/WdocRsSfzufg/6ztz3sF1EfH3PMxPWsAA1lAAAAAAAAABbci10o6DIADA7PHQNzQ0GcAGDc0NA3NDQZwAYNzQ0Dc0NBnABg3NDQNzQ0GcAGDc0NBSVmjc8m8bAAI6+ALVC+MYwlGLaTale1fvj4FtmpDyyRQZOg0Pp9WX9Jq8/Qjr4FtmpDyx8C2zUh5ZIoHQcP8AT6s70qrz9COvgW2akPLHwLbNSHlkigdBw/0+rHSqvP0I6+BbZqQ8sfAts1IeWSKB0HD/AE+rHSqvP0OT2L4KrU606tVRV9PESjfrX35TrADRCEaccsdyKZzc3dgAEyIAAAAAAAAAAAAAAAAAAAAAAAAAAAAAAAAAAAAAAAAAAAAB/9k=;fontSize=16;" parent="p0wZOzNyxaBEGN42C4hW-2" vertex="1">
          <mxGeometry x="490" y="490.9000000000001" width="64.15" height="64.15" as="geometry" />
        </mxCell>
        <mxCell id="ufXdxWMpvUYqsRV-47vq-60" value="Dev-OPS, Data-Ops &amp;amp; AI-Ops" style="image;sketch=0;aspect=fixed;html=1;points=[];align=center;fontSize=16;image=img/lib/mscae/Azure_DevOps.svg;fontStyle=1" parent="p0wZOzNyxaBEGN42C4hW-2" vertex="1">
          <mxGeometry x="970" width="90" height="90" as="geometry" />
        </mxCell>
        <mxCell id="ufXdxWMpvUYqsRV-47vq-11" value="Data Processing Layer&lt;br&gt;Document Extraction Pipeline, Model training &amp;amp; Fine tuning and orchestration&amp;nbsp;" style="rounded=1;whiteSpace=wrap;html=1;fillColor=#dae8fc;strokeWidth=3;strokeColor=#6c8ebf;fontSize=16;fontStyle=1" parent="p0wZOzNyxaBEGN42C4hW-2" vertex="1">
          <mxGeometry x="10" y="15" width="940" height="60" as="geometry" />
        </mxCell>
        <mxCell id="ufXdxWMpvUYqsRV-47vq-69" value="" style="group;fontSize=17;" parent="p0wZOzNyxaBEGN42C4hW-2" vertex="1" connectable="0">
          <mxGeometry x="260.0044827586207" y="165" width="386.2068965517242" height="170" as="geometry" />
        </mxCell>
        <mxCell id="ufXdxWMpvUYqsRV-47vq-3" value="" style="rounded=0;whiteSpace=wrap;html=1;fillColor=#d5e8d4;strokeColor=#82b366;strokeWidth=3;fontSize=16;" parent="ufXdxWMpvUYqsRV-47vq-69" vertex="1">
          <mxGeometry x="32.22" y="30" width="277.78" height="140" as="geometry" />
        </mxCell>
        <mxCell id="ufXdxWMpvUYqsRV-47vq-14" value="Azure&#xa;Form &#xa;Recogniser" style="shape=image;verticalLabelPosition=bottom;labelBackgroundColor=default;verticalAlign=top;aspect=fixed;imageAspect=0;image=data:image/png,iVBORw0KGgoAAAANSUhEUgAAADwAAAA/CAYAAAC8aKvcAAAAAXNSR0IArs4c6QAAAARnQU1BAACxjwv8YQUAAAAJcEhZcwAADsMAAA7DAcdvqGQAABfqSURBVGhD5Vp7lF1Vef/de+5z7rzuZO7MZJJMJq+JeSckRgIYeQqIFjUIUZdGKSCs6mqpy38srSzFumprF+9C0VItai3WWlCxigaVRwKkJuRJMgHynjzm/brPc/r7ffveEGIwMynCH3539j377LP3t7/39+1zJxQQ8EcE4fL1jwb+6Bg2k5ZRB/axIft+s8BnC3PnEHshk79GRAnpCDl9VCjSLHsW+Aj4LGSf8YExPFAoYcsrvRgoEhcRhY1zCiDkNggFROyk8YZCiLh9fophD1XhEOZMTCFTFUGYm7m9NUcfbR6gZEyK6CLvIghxzrgZ9slw50AWf/n1jegc8sgspUqV++I6iHBGiRu4jd5ocFotIc99EtEwrlxQgxsubEdLFemw56TBmBLDvjEse/CCkj3VM7uOA4zhnf1ZXH3nVmwdSqLaH0UsyFPq0myUmwQUwomIT1T1642deC849ZhjGMh6UeT8COpCI7huRRM+e0U7JkTcfIqbGgc8znVu59kaNQev9sYCTsP9Oay6awu2d4dx0/ktuGR+E6XoWxNCM3FjWrdlwu0iibNzfKxCisZswN2XHx+fVxnjfT4cxo829+MbT+1DiaYdLwzgppUt+Px72pGm1kOc49syCp7L7J5MC4e2sG3GAcbwLmN4GzqPFfH3V03Gtee2IMqHLmQQjhP6xoKCZZ4k/9NTvfj8I50oeNUc9NEQpqbPaSLjkzAlpb0VpKJkVgKgVVQEW/bz8YDxJI8IQpQacQelgMzKcGRMMmefTdexNiId45jHqwnWpyX5DJa6kpl+P4UH1/Xgvl8dxLGCmHRm7ALZCUxKFuMEY1hfCgShUBG0MKKsIOXVNtGMsbZTzX+dMWrM0UwzJVMBTTpMQStyHyvE8fWnD+PeXx5Af0nBk4wfZ1D41MYP2tnAZWHpVJsrIzI9lAm18P8HavyidhWQXAZ2fJBlSv4YqvC1nx/EPWT6aM7NsRzsM9xpmc0dH5zAsIAME8lxQb4ZwM08+mXE2JXGJWiKOyggwmiVS1TjvsdfwXeePoiBvObQ9cKK7nQLQzA+OJM1bxjQhU2h6XABMxNDmJkcwbSqHNqr8piWzGN6chTpSA49QRV+vq0fXaqMaPIBBWRaOQPNlPNwDlfdtRW7jxXwd4zSN5w3CfEyMl1kdX8IEMM+Y8cgzfVATtWT3EcPnK7z7D60IcA9j23G8ik1uOuamZjfLJYj5cSkr/ER95ZqWBQrAtclIphTl8C8uijm1kYxpz6G2fVxjsXRmqS5+zmavcpNioFNRJ+pDt5ahgkWM0S9aaoSJqVr1wL6sZIkQzi9XH0xrEQqGD/bbynDLvDoDKSPDbCJqRM/qraZrflMwU35260yyx83jInhQGlDRUF5G/Uqd/9fsNxKZ2YoYUdYyZkdYKRtHRTEHnOzBSrOsTqTTQtfTcxjhjEFrQKZfYVz9g8UUBQ9tEHlQEnbZW59G6nWxkqG5nlc4NNCPfI4pTaCqXUxRHlDwoz9u58awV/9cAve3l6Hu6+egXlNqs0qO5Rz+TjgtAxr08OjRXzuuzvw4639VhCoIiuEYvD4UKWnAsmZgAocKU2KijJaXzK1hK9duwzN1XGy4gqNe58cxd/85xYsnZ7GHaunY36TO2PJr49H6nHAaSkV+oQXYEYmjolVARrjJUxIFJCJZ9GYyLMVytfcSfcntlOPZeI5NCeyvI6gOZVDx5R6pCJkhJyGAwUqsSQamHtN9ASaViWgnQmcoOFt1HD+dzQsHXMOenIBuoYLPKyTGIpVpGiK2nilfBzKuErE71HbmVSUwnRaEEsMUdTwME16E5a2p5mHZ2FBIy0srAJEu4qKcVqXGN7Rlw3mf2lDkPzzdcGdv9kfZDnGdGDNt+azyxKBrahhGywGJb/AsaI9O7OPsGm92ycocQffNY2OcuyuX/UEmb9YG1x0x6Zg4+E89+O0oMA5XGuLxgdjE48FBpc8LI2YSt29nU3PuOmvknwqtiKs0pu8NMD8lhBWL63Dee1xVEedX2u206yu44MxMewygajT4dsRaB6l1GHpQ1s7ol2/0iqMOFBP61Q2qPEwyvJRJ29mAj4tMHqp5SlRGa1WLJ9Rh1uvXoRPXTITrazC7CwtLNxAMnNYX93DwanGHJzWh3WRXBVJS+UNxKIIl7Rs88pc47LMNsdCFJDPhap9h+j8A/kSW579IgZHA3QPhNA7DIzyFJQvMdfq5QPzVCLmIVUVQm0V0FQLBsoI0sk46pMeEtxUbz2UEt2G3N/U5qixfZWzjSiNGdHHYQx5mMRQqk/tGcUjG4+ib8hHVGmJmr10ThOuXFxLIgIwc7H5yJLofhJ/mEFu5/4int/di20vHeKzMAbJ8GA2jyznEQt3l+FKYB7THe/FhV8w4ep1jvX9IhLRCOpTCQa1MN41txVXLKtDW5WHNAUTi4ZJDxeQRuVkS3Vk8vVS1hgYZh4eKeDT39qMX+waormliLvAvBng2uVNuOWD7bz38a+/2ovnD2RxuD/Awf4sukfzyPsRmmqUUZh2IMfnn18WekAmFRGMOzFtTQ8c31ZhBUVEGcaNcFYnfqlIRnxURQNMa67Fipk1uGB2HZZNqUVDUvWBYSgLrLzuJBgTw0PFEr634Qh+uX0Yo6E4N5eHeVjR6uFPz2/BaKGI6x/YhLWHQvRBaS5mpiz/lrdKWRKKCBA+M3muD+k9FucFYeVZejQrukgxj0nU3vJZGbRPjKKumhrkIp80DGaBXYcDrN/ZhaNDPEGxCGquq8KK9gQ+vDyDlR0NtDbFGaK3Yuh3WT4tw072AU0VGCnofZMisyM6RlXURkMUiI9bHjuK+9cdYekZ0Qw+1wt8xVluWvYpC2DUnHzL5qhP24sXCkgR83mzqvGBZY1YPDmFTE0UTMuImIYd4QWiGS4GODKYx/Z9A/j+c0extrOfgS+C9lSA61e2YA1pr6aZm0nLZWw/B9I6g96rA68HmpgihgwjRnMyxBZGS7KEhrhPKQcMMiHMbAkjTi2ZB1Gb+sVCTeYZZnXktEsCwhHHOqXmsaRKlHJYlCngzqun4Buf6MA1SxowtylO/AxaEYBuazEiKeGShonxEIuPOFYtyeCfr5uL+z/WgaWtERwYAb78kwO47SddOMSAaJScgrXwM888U+6eGkSoUkFFQzo4KNA4oqVBnU/DLDs907bbw5mTUphnW8tky7tTFqqqPLpFK0vLaxcn8K3PLKNmM0hHfFoWYzrXaa0JziKxgptwEgf9Oqw57Ddw6MoFE/DN6xbiU+c0obqmBvf+5gC+8F8v4ZXevFVwJ0P4jttvL3dPDc6YbCsya0mITZuTWRKjwkMv25qYRtKskV3Rz1VWB5NdCqVkPxnw1gIJ51Ork+MF3LSyFbe8fzbaaTkxPtZzez9u6x2TFZIdHcLDvU3QEqOEB7TR/G5+dxs+c0ETMhT8Ixt78C+/2Y9joxK0A6I2CN9+GoZNm/TBEhkb4SbD5ZYttxwRlYitqTaB1vo4pa/jmwoSseYClX2ZthSggCQxrHlHPW48p4WHCI9phSvY9DOKzZdWFcz0UVdjNkwmy8FIUcDFeaf7JrrZJ1c04mYWKDmmxoeeO4Kf7+hmlrCV1qSs8MTWVhv6fZBnoPjx5iP49IPP47oH1uH6r6/Hmgeex8e/8Rw+df8vsW8owKT6KkxPp5DQ+yemLTN8acz0IObJGAlJ5kfx3gUZXH/JLAYXjuoHAEV9CkQWIxDjDrhOZR7NWM9lyp76xoCEWbQqsPJ+uprn6E+cW4drz05jKFdkqjyAXT16FcgVnCdqJJzfCzLfYywivvnkYTy8pYQf7QzjkReL+O+dAR7Z7uHRzT6ee3kIcRI/a2I1I3fZjAIXnJwTkCIy4zGXvq0uwGcva0Mzc42MVyRoD5+qZ4gzwox5rtG4LMtXYcJ79V2QdaTrHbYwSKQyIIk1RVP5s0unYfnUWqzfO4zvP38MOY47xIz69m1QMZzXgratoYP9yTuakclkUZQWiF2/4HnGRBrhwggDTTXmT0ryPMvyUa9FFKykYTKiq0SXiBZx06VTMZ9RVoHwQF8ev94pgvQaXnNLmJNJ4uzptbrDnp4c1nX2stJzzAelPBa0xLFsesbof/HQIDbsH6ZbMVczNYa557KZjWifEMcHzmrGC10BfrD+AK56ewvm1Uscr2HYSeBkkAnUMjJ8eHEj3r/AzZLO1JG3ysCiTBkKI7MyVWikLx0coIZM0/I0zqJmWZJgRmMIF3bUGAa9JdlxNIfbHmNwKbIa49wwi441LCCWzKhnigNeODiK2366F8fyUZotPbYwik+vbMQSY9inMPrwpcePoJd7xEhUyh/EF1dVYzYF+k4WIfM3HMUznQWs3TGI2SvqLLKf1qTN5LgZ0x/SZKyBflIfD6MuEUINr/Uq9Fnr+mSguT6GjgksSKwelkS5iH/yzXiogCsWt7AeVqiRrFlIsEgZ8BPoJsN9LEP7/ShynGtEUYUFCrU772GgFEN/UXPjKJQkRIUzBkwyOVSIsXnoIZ6+UoLFCc2R6PV+bEmLh0g0hseefRlDjB9S1mkZFmgD/awYeNQjSzcFmojlV4qDhFljX6nlQxfOpXbyvIvS8mmKiio06cZEBGexVIxHVIk5DzVNy0ZEBRkN9C8WopZ/qrmLcgn2ZStm8iw9tZf6FrJUhRG9vNgnHmUT/b+IGEsR1dIZLahhbj88VEQXA6tT33FwUj8Z3DQ224jNECrckCERRAwa10f/pXDO1Dja6mieir5lnGE/T1OPoNVezgm4npwoFMVoxrFCFrESG/ugLwrMQmi28YDPiznOySPOCB/iAUJCUFgI81QWoTVFORYvjsIrMlFSk06gQMfkOjRWh9DHymt/t/Byzy/ceuut3bkS/uNZ+sKIj0vm1mJpW+2Jzk0Qs2SMu6gp7xpKEcWPzsnShjSfoiXsGShhw55+FMJkkOMhanxWQwyrGAfSLJBNylpLDU2sTuFcBprzO2px4dvSeOeMGrpFQtitjp7EVPeuGWlcMDONC2c34J0za9He6J7HWaa2Z2o4lsZFs2pxQUcaK6ZXo6lGvzOTHrrcj/93P7pGolhJHHNbYqc/PEh/SuQ/e7EXP93YjWFyJ+ZVEentIkOn+a8i7KqzJuDyuROwldH1o/dtxo7hFIUqbRdwWbuHe1fPwpQ6J0qZIt3RUorh0yC/9DSqtCThsi/HkYCUazU3zmfKDpaKTPhurdXsnCtLU4LzaHrD3Hv1Xc/iua4YvvK+dnycxc4JJn1q0PJeWsCDa/fhwef78e1Nw/jepn58d9MI+6P47gtD+PeNA3h40yC+/fRe9GQLaK+N4qK31SNRHDIMzhKc4cvXpR19iUgxFzPTZeMcJw6R7oSiTBC183fJ5umMTD6tpIycsFb/pqG1FXMWiDmea6gMVYqV/ccAiVgEly/N4KrFVbhmUQzXLIxh9YIwr2wL3P2qRQlMq2VEZ1WW4vFMB/NJ1WKW4YVpaZQhN8/jpZh3oFzOZMXoJG2pBFR9VmSs0HHSogI1pLyfV1HCq7St/M8ZbNJyuLyOjYP6vVzjig5iTWMFWqdihQojPji9STvkAUa4cJSH8BKR2s8jJrkK8W5OjMTWxeij4SIO5kP43MMv4Qdbc5xcxPymKO5f3Y4lk1JlKQfMw0X88Lc94FTiZfRmRF/aGsWli+tszpauLP7nhUHuTY3Tn4NiEee2R3Hh3DT3Bp7dPYAnOoeRD9M3uSLCoHXxwgl4x2TmC9K2h1uvufM57Okr4p6PL8Llc5InxaZTgHkSI2GKSJPMtyHaofMuVxgK9DtbWHZWFoTKykZK7KLpCazd3ovuII5+njK6s0wgtFOdjzV5f18ODzzxMg6zMjNj5j43Lp+Ady+qIw4fu46O4O4ndjMXu59eYnm6yEVNuIAM643KC/u6cc8vDmHAS1gWSZSG0ZKpxvLJLoO8uD+PrkFgAs/WExtYylAIrzFpR75MogwcMI/QCzaCXsfI7xSw7B0VQYSEmZs1U+u1sfJijDeXLWrFwtakXvajeyiHziPDzDqaK6DGaLr5iIesl0LOq+KVcxl5JUoFO1lQnntlI0m2KoxG4yh6qpckZOVhD4VoDUZCSYyGE/D5LMwxPqWrBNi6t9sE3cija2uD48sYVkfWKVL0NkbBwrAalKfxYkvIqH3seTkE2bB6LiiYHPm8mWfTT543mSekAYzSLB/f0ouhUflnWTyGg/f0cfmrw6kv7elAOPVAH5m8b8WJG9c+AcfstazWs3nMzcLRw7Pwhj29yOXzOLsjg7T8kHBcw9Kc3k6ooyWq/wtslcOY0FsediQY6KqSnUnAzqnKzyo3NKa5Ea6/dF49LpvXzDEfz+4bxo7ePHtcx8U+iUsUcqguDCOV70NVvp8b8oBSxh1iZK7yR01gVYVBa14pZ89lYBEeJpLFQTauzbGiZmEi3AXSs+ngMGvxAhoSJVy2bArP3E7DFrReZNBadfd2dHbnccP5LXjv/DSDlqROGYowzqwweTI4STvQHAUTEaMipCmdxOT6JDZ3jeBj92/H3uEA71uQxr0fmY4MJX54IIv1Lw8wmrqqS79Dz2BRsXhqvWn8UE8WG/f2s752eT5gxTaDPrqorcH26zw0hK3EHTBIej6FzvWL2tKor4ni1kf34DvrDmP1WY342kdnIsn5Zn2VKP2hu7dga18MiWAE0YISAAsKVk16fXOiVn8HaG7SsWNb+VPSIQEsCc9bOBH/+OE5yLDmvP2Jg7jj14eRzebxlVUzeSpqYiB0/xIs3M7zzEgNU+Xb9rUjpnUoCKYZDmrcXNDmufkaU2X6wy3duOXhTh5HQ7hnzTysbKsybvWezExam9T6OTRiCFUe69N4HNF4jNcoy7MYYrzGX6fpmRdPcG7CrmG7pthqsK2zB8/u6EKSefxqnkkvns6UxOByH4uYJ3b1Wd6tVOYiW1p2DIswNWZd+mfEhOrmOB/kPaO45phF2bir9dfx0P8Pj+zGCJX2kRXNWDQxac9MWJxpGh4s+DStHIYtADhp6VsSV0/gRl4Lbqy8o/WdltTRLwciNMNDw9unxMxnt3Zn8bF7NuKlEQ+LmyL42w914Oy2lJ2ytNbcg2sMh31r1FmNek4MvBJ3hR41j8gVP9bz/Hzzg1uwYzCOi2dF8dWrOjCDBxlNttdG+rWDixnoSlbFCITe/uhXYkZmw5z/e0G43GyCwr2KBBsnYfQr944qsDcbTzNw3fzgZnQOhXEWi4wvflDvlat4nKM5c55YcQcRV1M51gTqOT3rSKltFLVlF8OMsM/sG8Jtj3YyUGWxkGn8q2sWES8tjjMUQOV2ep1sDBODoRaYNLUHbyssu1c0r278KlQYKy/Q/DLDDjSmtEOsxKEUUuCztZ29+PKPXsFv92cxJR3FR8/O4MolrZid9lgTc63m8iPhn6hLZ28cY4xQIC1SY/sHfDz62y58e30vdh0bxDnTqvHXV0zDMvqtqkmzE17lAlrvGD4VHB9lxxgeA1TWlKc7MmU17t8K7fd3bpejtJ/cO4L7frYfj7/YzxQaxjk8Fn5g0QSczWNcWyYK1k60BycoEWuCI44C2wgFt4dl8NM7j+Fn2/vwFMtL/YJ4xcJa3HjRNJaxMTtMqBw1AR3/5vV1GX4DQIhFqlKU6+sQICMs2qHgwECAf3vmMB56cj8O5aIWMKfU+FjaXo8l0yagY0o1quMeYnrbQqaHeDrYfmAY63f3YNOeAezl+tF8ETNpwjde0Ib3L21CI8tIM13y6izztfAHZVhgyG0LRgle3NlFWqfGyESBpeS2Hh8PPLYbv9jRg75iFfI8oRRyLCJyI9SyjoOczbUlzo3EaarMHFHmJv3n0HvmTcINF7dhai0ZpTRVWap0Uvx/SxgWx1a4cBtnmiS8nHtFj4iTBQwUPWw7UsSGV4bQeXAIe7p6MJh3v1rqCBmmlpMs6RtYpM9qqcPcthospb9OT8fN/FVaah9hrIQQ5/OvhTeFYZ2Q9NGbCn1KzK3cmA8d4+6f21TKUvvs52i6/ayF9R8DWabMIjUXYWWWioVRHfNQk9TJTaWrvFpMuI0UlsS0qkONi+WTeX5TGA5Cqn51+FceJFOihts6DfCbfSPCTFCVvP43pJxIKAm9qawQLsHYGq5Q1a4B90hxggKU9ZQZtifldQ6A/wPyXHcQjaK5uQAAAABJRU5ErkJggg==;strokeWidth=3;imageBackground=default;fontSize=16;fontStyle=1" parent="ufXdxWMpvUYqsRV-47vq-69" vertex="1">
          <mxGeometry x="12.214483334292709" width="52.01268781302171" height="54.61332220367279" as="geometry" />
        </mxCell>
        <mxCell id="ufXdxWMpvUYqsRV-47vq-6" value="Tables" style="sketch=0;outlineConnect=0;fontColor=#232F3E;gradientColor=none;fillColor=#FF3333;strokeColor=none;dashed=0;verticalLabelPosition=bottom;verticalAlign=top;align=center;html=1;fontSize=16;fontStyle=0;aspect=fixed;pointerEvents=1;shape=mxgraph.aws4.sagemaker_model;strokeWidth=3;" parent="ufXdxWMpvUYqsRV-47vq-69" vertex="1">
          <mxGeometry x="229.99250877899954" y="54.61000000000005" width="52.87956594323873" height="52.87956594323873" as="geometry" />
        </mxCell>
        <mxCell id="ufXdxWMpvUYqsRV-47vq-13" value="&lt;font style=&quot;font-size: 16px;&quot;&gt;Document Extraction models&amp;nbsp;&lt;/font&gt;" style="text;html=1;strokeColor=none;fillColor=none;align=center;verticalAlign=middle;whiteSpace=wrap;rounded=0;strokeWidth=3;fontSize=16;" parent="ufXdxWMpvUYqsRV-47vq-69" vertex="1">
          <mxGeometry y="140" width="386.2068965517241" height="20" as="geometry" />
        </mxCell>
        <mxCell id="K4g5WOlfaWYmHdOhpnB6-3" value="" style="group" parent="ufXdxWMpvUYqsRV-47vq-69" vertex="1" connectable="0">
          <mxGeometry x="90.43" width="249.57" height="111.43956594323875" as="geometry" />
        </mxCell>
        <mxCell id="K4g5WOlfaWYmHdOhpnB6-2" value="&lt;b&gt;&lt;font style=&quot;font-size: 15px;&quot;&gt;Optical Character Recognition (OCR) - AI&lt;/font&gt;&lt;/b&gt;" style="text;html=1;strokeColor=none;fillColor=none;align=center;verticalAlign=middle;whiteSpace=wrap;rounded=0;" parent="K4g5WOlfaWYmHdOhpnB6-3" vertex="1">
          <mxGeometry width="249.57" height="30" as="geometry" />
        </mxCell>
        <mxCell id="ufXdxWMpvUYqsRV-47vq-5" value="Paragraph" style="sketch=0;outlineConnect=0;fontColor=#232F3E;gradientColor=none;fillColor=#315FCC;strokeColor=none;dashed=0;verticalLabelPosition=bottom;verticalAlign=top;align=center;html=1;fontSize=16;fontStyle=0;aspect=fixed;pointerEvents=1;shape=mxgraph.aws4.sagemaker_model;strokeWidth=3;" parent="K4g5WOlfaWYmHdOhpnB6-3" vertex="1">
          <mxGeometry x="30.147425594381403" y="58.56000000000002" width="52.87956594323873" height="52.87956594323873" as="geometry" />
        </mxCell>
        <mxCell id="kLLIGCO7J5aGBXE1isZK-46" style="edgeStyle=orthogonalEdgeStyle;rounded=0;orthogonalLoop=1;jettySize=auto;html=1;flowAnimation=1;strokeWidth=3;fontSize=16;" parent="p0wZOzNyxaBEGN42C4hW-2" edge="1">
          <mxGeometry relative="1" as="geometry">
            <mxPoint x="1250" y="270" as="sourcePoint" />
            <mxPoint x="1374.4" y="335" as="targetPoint" />
          </mxGeometry>
        </mxCell>
        <mxCell id="ufXdxWMpvUYqsRV-47vq-80" value="" style="group;fontSize=16;" parent="p0wZOzNyxaBEGN42C4hW-2" vertex="1" connectable="0">
          <mxGeometry y="155" width="244.23000000000002" height="190" as="geometry" />
        </mxCell>
        <mxCell id="ufXdxWMpvUYqsRV-47vq-1" value="" style="rounded=0;whiteSpace=wrap;html=1;dashed=1;dashPattern=8 8;fillColor=#b0e3e6;strokeColor=#0e8088;fontSize=16;" parent="ufXdxWMpvUYqsRV-47vq-80" vertex="1">
          <mxGeometry x="9.230000000000018" y="40" width="235" height="150" as="geometry" />
        </mxCell>
        <mxCell id="ufXdxWMpvUYqsRV-47vq-2" value="&lt;b style=&quot;font-size: 16px;&quot;&gt;Azure&lt;br style=&quot;font-size: 16px;&quot;&gt;Data Lake&lt;br style=&quot;font-size: 16px;&quot;&gt;&lt;/b&gt;" style="image;sketch=0;aspect=fixed;html=1;points=[];align=center;fontSize=16;image=img/lib/mscae/Data_Lake.svg;strokeWidth=3;imageBackground=default;" parent="ufXdxWMpvUYqsRV-47vq-80" vertex="1">
          <mxGeometry width="45.08" height="59.31" as="geometry" />
        </mxCell>
        <mxCell id="ufXdxWMpvUYqsRV-47vq-16" value="Documents" style="shape=image;html=1;verticalAlign=top;verticalLabelPosition=bottom;labelBackgroundColor=#ffffff;imageAspect=0;aspect=fixed;image=https://cdn4.iconfinder.com/data/icons/file-extensions-1/64/pdfs-128.png;fontSize=16;" parent="ufXdxWMpvUYqsRV-47vq-80" vertex="1">
          <mxGeometry x="69.23000000000002" y="73.30999999999995" width="55" height="55" as="geometry" />
        </mxCell>
        <mxCell id="ufXdxWMpvUYqsRV-47vq-18" value="Image&lt;br style=&quot;font-size: 16px;&quot;&gt;Files" style="shape=image;html=1;verticalAlign=top;verticalLabelPosition=bottom;labelBackgroundColor=#ffffff;imageAspect=0;aspect=fixed;image=https://cdn2.iconfinder.com/data/icons/boxicons-solid-vol-2/24/bxs-file-image-128.png;fontSize=16;" parent="ufXdxWMpvUYqsRV-47vq-80" vertex="1">
          <mxGeometry x="149.15000000000003" y="72.50999999999999" width="65" height="65" as="geometry" />
        </mxCell>
        <mxCell id="kLLIGCO7J5aGBXE1isZK-2" value="Application Layer &lt;br&gt;UI,UX &amp;amp; Web application, Model Inference" style="rounded=1;whiteSpace=wrap;html=1;fillColor=#dae8fc;strokeWidth=3;strokeColor=#6c8ebf;fontSize=16;fontStyle=1" parent="p0wZOzNyxaBEGN42C4hW-2" vertex="1">
          <mxGeometry x="1090" y="15" width="400" height="60" as="geometry" />
        </mxCell>
        <mxCell id="kLLIGCO7J5aGBXE1isZK-5" value="" style="group;fontSize=16;" parent="p0wZOzNyxaBEGN42C4hW-2" vertex="1" connectable="0">
          <mxGeometry x="700" y="135" width="283.34" height="210" as="geometry" />
        </mxCell>
        <mxCell id="kLLIGCO7J5aGBXE1isZK-37" value="" style="group;fontSize=16;" parent="kLLIGCO7J5aGBXE1isZK-5" vertex="1" connectable="0">
          <mxGeometry x="-13.34" y="-10" width="283.34" height="210" as="geometry" />
        </mxCell>
        <mxCell id="kLLIGCO7J5aGBXE1isZK-35" value="" style="group;fontSize=16;" parent="kLLIGCO7J5aGBXE1isZK-37" vertex="1" connectable="0">
          <mxGeometry width="283.34" height="210" as="geometry" />
        </mxCell>
        <mxCell id="kLLIGCO7J5aGBXE1isZK-38" value="" style="group;fontSize=16;" parent="kLLIGCO7J5aGBXE1isZK-35" vertex="1" connectable="0">
          <mxGeometry x="-39.999367164862065" y="1" width="299.9952537364655" height="210" as="geometry" />
        </mxCell>
        <mxCell id="ufXdxWMpvUYqsRV-47vq-71" value="" style="rounded=0;whiteSpace=wrap;html=1;fillColor=#d5e8d4;strokeColor=#82b366;strokeWidth=3;fontSize=16;" parent="kLLIGCO7J5aGBXE1isZK-38" vertex="1">
          <mxGeometry x="-19.999683582431032" y="70" width="303.33520089473143" height="140" as="geometry" />
        </mxCell>
        <mxCell id="ufXdxWMpvUYqsRV-47vq-85" value="" style="group;labelBackgroundColor=#FFFFFF;fontSize=16;" parent="kLLIGCO7J5aGBXE1isZK-38" vertex="1" connectable="0">
          <mxGeometry x="-15.999746865944825" y="9" width="54.99912985168534" height="90" as="geometry" />
        </mxCell>
        <mxCell id="ufXdxWMpvUYqsRV-47vq-82" value="" style="shape=image;verticalLabelPosition=bottom;labelBackgroundColor=default;verticalAlign=top;aspect=fixed;imageAspect=0;image=data:image/png,iVBORw0KGgoAAAANSUhEUgAAAOEAAADhCAMAAAAJbSJIAAAAh1BMVEX///8AAADu7u719fXExMT5+flhYWHy8vLQ0NDj4+OFhYVaWlrp6eng4OCAgIChoaEVFRUuLi6+vr47OzvKysra2tqRkZFsbGypqam5ubmvr68nJyeDg4N1dXUaGhqYmJhMTExISEg2NjYgICBdXV0sLCwNDQ1ycnKcnJxnZ2dCQkJSUlIWFhaNwfKUAAAI1ElEQVR4nO2daXuqOhCArbKJCFUBAaW4tG6c///7brX1tipJZsIEqE/ej6cekpFkMlvGXk+j0Wg0Go1Go9FoNBqNRqPRaDQajeaK2R9GTjhNsyQo4jgugiRLp6ETDftm21Orie1MM/d99rHdvVSz237M3t1s6thtTxWL2TeC/IMhVjUfeWD8jVc6GGd+iZLtN6WfjQdti8ChH8Yj3JurfJujOOy3LUoVTjGrLdwPs8JpW6AbhoFFKN0VKxi2LdgXUXxSIN4XpzhqWzzH3SgT74uN2+J6HcaKpbsSt7Jc7WzVkHxnVlnTRkE4b1C8L+Zhg/IlqjdfNZukGfG8pnZfFbGnXD7n2KJ8Z45qVaszalm+MyN1MjrrtoX7Zq1GxnDdtmC/WNMr1qjJ0w/Citae85o//sTM6fSq6bYtDAOXKCiQtC0IBwobIFLnG1Fwqr0d/bZFEOLXkm9KNIvXxeZUWvN9vnRjd5nv51Z52ixeiZ4+lZbPq22hTUZ7N2GFfi+B4sTdjyZ1hzlKatWs1qilm0TAAKjZjxJXPgR5JpOQbyAfXJq4qcyX6qU1QiIWOsxqsCLxAlaFUyekazqFpPG0M3AjSanQzdKgMDM8YykVesUo1aHE3l8cxgTSXRkfFvgpTMABqxT97FlA73t7Ad7WSGGPxq7QibKwbRRjFxNkpfaRO30eqsyJmdig3kqY1AlxDzyoD2PaB9yUBL4xyo9YA5d9bVLUuuL6GxhH8Nhk0iTCLFaX/RyEGTOnPBsgjPfwyVmMZ9hwxTVvI1WCCKVMKtVDBHZmWpHvzBD8Hl8rtpAD/c+rNvPPDtgFeZgl9JTYybubNBj/gDO9OzWgzvyhHbFuCIBzvXkXQGdX1pcmBqpyfrnFsHP+te0F+oPxBprx/2c/7LX7XarJAgapg69PG5DPbrtVwfN5uIEcyIvj70E+mdd5gfY4MrLCzefHozUqR9bxOM/dIjOicR273QR5eWfNAfmg7A7sh1m+2rA3zdtmlWfSVWyQxbf8nIT4U6VMbGlgHOAewepgyIxhvosf3QccFDF6ZC/18ZGeiS8RgxT7jllPeLZgs62Ou0ZLd2WNLvES2mLzniAIO8N9r2FeNxnxmuO+0r4gXrXp8SO/qMRORJWo8lHO9ZL7rB1fwgA+jncgraA9INYO1yTb9XgqAR6HCelLaC34auUdG5MeO4O2A6+VVCJADWAB/obHbJfKYp8WG+BBPEBG+1AcgMekzdwiGfPEP8HsNLuQTFIB2RUwy85kmRef+zmv/EMJEzBWK9+ZHdDiqC652/cYljcrHndLvSwxHFiGt9J2uajkilTTHPLEkPJ44DMD6dWK1fitq4r7fwdlcJotND1C9N6DW1xc/3K32iDnPDQcRAdkVndn/6/VPfz1QkaAeH3U3AL9YQY4n8e/9M3xNnAdFeX25WW7AmU7H5Z1QxTiqfWieP1p/P+rFGRg26Dz1Vu3JOCndwWyVgf9fq0rfk0dEdXIlAbhMNuupZ0rDmrK1KEQA68pkQFfh6IChcl1+Wro10l5zN0iSdNpmiaFmx/LCTSJ9AgnjV0PKStmZvmJE1U5CHbkJL4ldbIelchnr9ET2fipJ1IMppcu8SWJawVVLsMtbg5bN4UfSoNpjAwTbMn1TYQaf+LiS1GiGPcqiYtdwFn+T9582TyVs8QsFNJsGKIWbFSrzs3EBO0I7z6BMowXCAqJ4CUlL8iyYDZj6IhLmjy/50KjP0SFWSbMUtsVdN0s7ACW/tjQGKmweKhP25MEl6ivxwAyUklfyDeE3MjdUXyvADWzVWMLTwFWAIWyEafMYlUumym+GF/vXtcXa8EYC5WVpkORnbMmGETg5OQEQ/AQLKE3giH4Z5P6Um9BUSHBCDwHbtNEKZ/Hm8GMYACOEbUkeDwEjsIBZVgEsKOH6iN7V9jxIYo5MIumyOxeAEznhmSbVKdQad0zIQwPnEaTV6ZQF7gogml706CI3b1VWns3joOpZ+PsBK/S/ifSdBW7AFrGcGZoLK2qg3tzdDE3MquKEcg0wYMuW0O/f3ua88OFJ38KNZ7Nh5sIhHHTu8wj0Bg0U1jDHgtavnrnUZG2jYp+fX8b2IQMxEWlF2C5nvFrtZfUN8tC//L0bQ6TL8PGsk8w+y/dX+zkia+kt9mg7w1gGzBAho8vLGCrzhwModNQhnwZGElQQjlGnRQjrHCmVby6ZZjzTvaf/YGiSqOh3oFS9Os1KLmC7+LRFLLdQh7o3BWkbyg7gkFqgxqHtmUdrPyzSdhlyJKsunQZsKekzubUqWMDlwMHsujGndwL4AQjks68RVvNdYtPG64re5ERqiJAWfETDlVr9Ew3tqLK1or4250qgN2Nl4MiLVGbIXS2b1Z8SLI0Sw6xBf5WumCEQ6qJdmVwb0w7QQkx1Fv/9YcepKrWYtTwDVKxu9xkcoSFqC1KzDu3+6JMfReiGnyLLRHWl/LbjnThuDA58wN1C+G2f1A+fQjMzQTuYszuxkyR4q0PS9VgSl1Yr7ELiuaT6jeA6xZSra9WSuaLp+pErGonxqWymVpnIlKPlxG3eB3oPeY6miuFEHIfZjvJXBaw71d7pwJut9pGtpzuRt9gWx+rxv6pXLbkbcno/6TxLu6CzX2LHca+lbtpveCKly33734c/rlftdRoNBoNFQPHCNzAqPXrCV0mta5Gwc5qqhN4k0xvI2utd+ulxn6sYSifymwZV0WA35pueq4QVu7maUS0WXV822dZqOw6orLtqdHAC4o/h0blJWB2bU+OAn7m5hmOfn5+qXu1T2gG/FvZr3/fRhX1m+hM0Fca0UXpjsUMJRA15/sbxes8RFWnHSkKqsHzv8Pn34fPr0tNwXnYlfLDGvB7oKnpS9Ysz2+X9njL9LXtyZHA06Z/X5NeYN+VHbU9NSKeP07DLEFt6zf4FDCsquZHNi3oOPbjXhw9zRL95u5X/f49iRa9YXq8xvbfjs8RRXzEdMIkTkLnCWxRjUaj0Wg0Go1Go9FoNBqNRqPRaDT0/Ac1H4nsmkUirwAAAABJRU5ErkJggg==;rotation=-15;fontSize=16;" parent="ufXdxWMpvUYqsRV-47vq-85" vertex="1">
          <mxGeometry x="11.949810940502541" y="16.03" width="22.999636119795685" height="22.999636119795685" as="geometry" />
        </mxCell>
        <mxCell id="ufXdxWMpvUYqsRV-47vq-84" value="&lt;font style=&quot;font-size: 16px;&quot;&gt;&lt;b style=&quot;background-color: rgb(255, 255, 255); font-size: 16px;&quot;&gt;Remote/&lt;br&gt;Local &lt;br&gt;LLM&lt;br style=&quot;font-size: 16px;&quot;&gt;AI Model&lt;/b&gt;&lt;/font&gt;" style="sketch=0;outlineConnect=0;fontColor=#232F3E;gradientColor=none;fillColor=#3399FF;strokeColor=none;dashed=0;verticalLabelPosition=bottom;verticalAlign=top;align=center;html=1;fontSize=16;fontStyle=0;aspect=fixed;pointerEvents=1;shape=mxgraph.aws4.iot_greengrass_component_machine_learning;strokeWidth=3;fontFamily=Helvetica;" parent="ufXdxWMpvUYqsRV-47vq-85" vertex="1">
          <mxGeometry y="35" width="54.99912985168534" height="54.99912985168534" as="geometry" />
        </mxCell>
        <mxCell id="kLLIGCO7J5aGBXE1isZK-36" value="" style="group;fontSize=16;" parent="kLLIGCO7J5aGBXE1isZK-38" vertex="1" connectable="0">
          <mxGeometry x="99.99841791215519" y="90" width="199.99683582431032" height="100" as="geometry" />
        </mxCell>
        <mxCell id="ufXdxWMpvUYqsRV-47vq-76" value="&lt;font style=&quot;font-size: 16px;&quot;&gt;Fine Tuned &lt;br style=&quot;font-size: 16px;&quot;&gt;Large Language Models (LLM)&lt;/font&gt;" style="text;html=1;strokeColor=none;fillColor=none;align=center;verticalAlign=middle;whiteSpace=wrap;rounded=0;strokeWidth=3;fontSize=16;" parent="kLLIGCO7J5aGBXE1isZK-36" vertex="1">
          <mxGeometry x="-53.33915611434357" y="80" width="199.99683582431032" height="20" as="geometry" />
        </mxCell>
        <mxCell id="ufXdxWMpvUYqsRV-47vq-78" value="" style="shape=image;verticalLabelPosition=bottom;labelBackgroundColor=default;verticalAlign=top;aspect=fixed;imageAspect=0;image=data:image/png,iVBORw0KGgoAAAANSUhEUgAAAT8AAABJCAYAAABLqiHDAAAAAXNSR0IArs4c6QAAAARnQU1BAACxjwv8YQUAAAAJcEhZcwAAFiUAABYlAUlSJPAAADa3SURBVHhe7Z0HnBVFtsbPnZwDOSfJICDBgKAYMCCirGnN2XVd15zdxfW5wbe6+8wIgjmHNecAAgYQQURyzkMcYGByeOd/+vZMz+XOzB2YEdfp70dz5/btrq6urvrqO6dOVQdKi3PLxIcPHz4aGKKCnz58+PDRoOCTnw8fPhokfPLz4cNHg4RPfj58+GiQ+IWSX5n+c7fSir/Zb5sPHz587Bt+GaO9RnAlzmdpkUhJgUhxrm55zveYRD0oIBIdLxKfqX8rZwf0e1R0xd8+fPjwUQvsP/KD6EqU2ErzRfK3iexarZ9bdduk+3aLFO7QbadDhHGpeoKSXGySSHIbzXWKkmCGSIr+ndhMyVG/R8fpft+K9+HDR2T4+ckPhYeiy1OSy1kpsnuVyM4lEtgyR7+vUfLboCTHcc7hYRHVSEmwlZQ17q0E2FkkvatIRneRhCZKhEqQpgh9+PDho2r8fOSHz65ESS9XyW3bPJHN05XwZinhLVGlpyqvLGi6RmHO6haDOevsKkcJaQQ32BGhV6j/ZXSTsuaHizQZINKoj0hSC58EffjwUS1+HvIrLRYpUNN2648iGyZJYP2XSnpLlZxUBUYpecXpFq9EFR/8G+KLUeYLJb/iIPEVqsnMlq/nsxmx6pbSSUlwqEiLIUqEBykJtnTMYR8+fPgIQf2THz47zNt1n0lg1XsiO35y/HzRSnDJMRWbEZ8SoH4YqsoVhMhvRfpfgRJfnhLrbt1ydCtRQmR/uirB9ieLtDnOMYljk+1UHz58+HBRv+SHby9bTdxlr0pgzQeq0rIcVZcSq6SkiixFSQ+lF62Mtje5cIkQFZir5LejULciva5+j20kZc0Gi3Q+W6T5Ifo9VY93mdWHDx8NHfVHfkW7RTbPEFn4pASypqoq0++JquwaxYtkKPlh5tZ1iEqRKsHtSn5bVW3mYg4ruTbqI2VdL3BUYEIjnwB9+PBhqB/yw9Rd96nI/MclsHW27lBCSlXCa6rEl6qEhJ+vvlCqt5OnxLdJTevtqgRRgZm9pazH5SLtRqjSTPcJ0IcPH+UetroD8XtbvlfiGy+BTTP1uxJfppJe6yTH1K1P4gOMFONDbKPXa5ngKMzsnySwaILI2k8cRWqzRXz48NGQUbdMBKnszhKZ+7ASn5q8gupS4muuJITJ+3MiVm+tiV63WZAAt8wVWfa6msQ/aD6Lgwf58OGjoaJuya94l8iP90kAX5+o6dlYlR7q6+cmPhcMrjRW8m2iW3yUBDZMEVnygjP67Ks/Hz4aNOqO/CCT5W9KIOtrkcIcx7eH4kvYT8TnAgXIIEuaEnF0qQTWf6EK8DXN406fAH9lKNPnGW7z4SMc6o78mK2x/FU1e9co4ej3pr8A4nORgAJU8ktSQi7JFsme7pi/exVf4+OXCohu+/Ydsm7delmzZq1kZ2dLcbHv4vARHnVHfgwm5CzTGljk+NqI5asu9YAST3Rwi9pLEqp0fnVpBJz8YAJjCq/7VmTFf0SKVP35+FWgtLRUvv12hlx/w81y+JCjZODBg+V3V14tX345VXJz84JH+fBRgei7xtz5l+Dfe48ts0WWviCBnStE0pVcMHeZsVFFHB8z0bJ3xMiytfGyZmO85OZFSUJcqcTGQmCRxf7l5EbJwpWJen6c7NK/kxPKJEaFXZVnMwrMj/lq+haqGgiUqiJsLpLZw/ndx381srKy5IabbpX3P/hQsrdvV8LLlWXLlmndypcDDugkLVo0l6j6jjTw8V+FfY/zY97uvIdFFk2QQN5mkXZJIo3wr4WvaMUlIovXJMiH36bJjPnJskuJr32LQjnh4J1y/KE7Jd4IsHpk74yW1yZnyiczUiU3P0qaNyqSUUN2yLCDdklGSknVsdP4f7YUiGxQJVAULWWdzhI5+O9qprNeYP1h584cWbBggSxZukwKCgo0f07ZNG3aRPr16yNt27Sx76FAzWzfsUPefPMdPafipoqKCqV//4Okz4G9JT5e1awPmTTpS1N9P879KbjHAeV7y803yimjRkpiYv0+5/2BefPny5w5cyVPSd5bR2pCWRliI1Y6dGgvB/XrJ6mpKcFfGg72nfx2LBGZ+RcJZE0RSVJma60VjDi7cA9CzdM1m2LljS8ylfzSZeduxycYG1MmPTvmy6Unb5ZBPXerNAxPnHAXkzjenpohE99toudHqbHrXKdlkyK5+ZwsGdA1V+LwOVYFpsFBftsLpaxxf5G+N2uejw3+WD9YsXKljH18vLz++puya5feXxB9+xwoN954nZxw/PDgnsooKSmRRYuXyLCjjgvucYBv6/dXXi43XH+NZGRkBPc2bHw/a7ZcqWYun15QxkZ+p5wsSUm/PvJ79LHHtW49IZs2qfCoJZKSkuS44cfInXfcKu3btwvubTjYdztg+2LdFqqky3dGeFmcwAsYi1kWLDoQXSab1Nxdvj5edqvigx/ZikoCRoqzl2rlVCKsDsVFAZmzJFF2KHFCfMaxuq3cECers+IkvxBCDKIoeF0vGIRhTjHXxkzf+G3wh/pDaWmZFBYWqQLcKVu2bCnfduj3khoc8hCg9xy2rVu3qoJU8t63butXhY4dO0iPHt0lJaViEYs47QX7HdRXevbqoQpZrZFfIYqKim1gJ7SORLJt355tlkhDHRHfN/IrUcLboeRXtktrmrIJ8XwsUuCqPkiPaWYrVe2sy1X7r0iJQMmAstZD+CwqDpgpXFAY0L9rzo677F+hnsf5PDd2kQ6w/yG8zXrd1XrdNXpdprnZGoAK8kc+IcGiHJEcVpDe7vxWT6A4ovQ/19x1QV5rMlWq+rU2Jk5DQFpqmlz9hyvl9ttvlbPOPF1OP2203HbrTXLF5ZdKl84H/Gr9fU692ru6oGc65dJA69K+1Yi8bab8AkVKNISRoPrccoRrWGaKRQYgn63O1jqlQDq3KdRCL5MmacVyzvBtctu5G+Xc4dlySA/e21H9g4hTZTis/y655KQtcsf5WXJEPyUwRYeWhdKmaZH29qoHWeIK3162XnObbnwWKsOSNPkin4maX1aV3r1Of59vafj470V0dJT07dtHLr7wPLlDCfBPd94ml192iRzUr6/5+vzOYk8Uq1Vhyg9F0gCxbz4/VmSefouzInNTJZTmarayRBUVjVS3KCniX2OhAUZbG8dJUbMkmb8pWabOTpGUxFI5dlCOpCeXmLmalFAiyQk8iPAV1VXn+Pryi6IkObFEFq1KkE9mpEn39gUytE+ONEovkahsFlZQIuW65IVVZFolOeYuaaACUaR6TFlKJ5FeV4l0u9BJvB6wfMUKeeSRsfLc8y+Zyepi0MABcteYO2XEiBOCeyoDk3fBgoXSp9+g4J4K4Me69ZYbJTPT9/l5gQlHuQFUza99hPehhx6Vf97/b1m/fkNwj0h6eroMH360HDxokCQla70PY9ayhwGPTh07yCEHD5LUVN6T07Cwb+S38RuRr6+WwK41Im2U+Nw4OkCqLDS6Rk1P1thjfm2LBJtqllcSLdtzorW3Rv2VOIusBHMRSQdd/iwDZZJfECWbt8cYgaYklTqDzPl63VVKflw3VhNkfi8rynj9kShSzOKoDCnrcq7IwLuCP9Q9fi7yW7FipcxbsEB2BwdVIAJUT+cDDpBOnTpUGu2kx1+yZKmNjkZHO+XC8clJSXL44YOlUSPekhceS5cuk8+/mCyLFy+W9RuyLC3y0bF9e2nXvp0kxCfo46yoVqRL4+rRvZuNLoYSEoNAP86dK1OnfiUrV66UzVu0jPT0Fi2bywGdOkqbNm1s5NsL0mS0fOCAAZKWlmpl9c2302WD5offAOe0btVKevbsrvfTyK7LPojip5/m2Ug61S0hIUE6q2ncpUtntRziZPfuXM3LNJk0eYqsXr1aioqKpHGTxnqt/jLypBHSvHmziEiVcvrq62/kxx/nWjkVWjll6vPoJK1at7Lrunl1gW+yZ8+e0lXzEgnCkV+rVi3l2muultNP/41kZqR7noQHuhM1HKfXS4iPr3Q/lOWmzZv1GU+SBfMWyvqsDZKrZcJzbtmypdaljjJs2FA5sHdvu4dIQblSn7/V57R4yRLZuHGTqs9iSdO60a1bNznmmKOsTVSHlatWWTznN99Ml23Z2yQ/L19SUlOkd69eWm8P0zrW3UauI3k++0Z+az4SmXmDBHK3iLTVHiYzJMQFpxyjqygwSDFJG5kqwzJXGSoiIbua4Naf8rTKr6sNBsXJdYk75G8XLHyKP7AwVso6niZy+APBH+oekN/DSn7PP/+ikt+24N66J7+33npHxk940mY3OCizRv/bs86U035zqjRr1jS4Xy397O3yyquvGSkH3IqiBdleCezee++xyuQFjXSLktKLL70sH3/8qYXtbNu2TYlrlxQXl1gjyNCGlp6WLtExnk4G6Llt27WVSy++UEaNGmmKA+TnF8i8efPltdffkKnTvpY1q9cYIRGjBxi8YDQ7LS1tD5IgzX5q0lJ+DHYUFhbKjTfdJl8r2ZQEiZJzjjxyqFx6yUU26gvJM+NjspLaI489Lsv0HmA/rjFyxAi56KLzZPPmLTJx4tMy9auvZZU2tB07dhph0nG0bNlCeikx3XjDtXLwwQONKEPBNZcvXyHvvveBfDFpsnUwmzZtKi8n0uGZpaakSExMzB7ERKeDuX7euWcH91SPcOTXtk1rueWWm+Ts355ZqX6Eg+sOIN+U+6xZs+Wtt9+VhYsWW0e0ZfNWydG80wFQH1M035laXu3at9WO4ETLJ4RYHdlQ5rNm/2DRDhAfM3Cs7uzerdct1XKMl8aNG0mXzp3lsMGHyhlK2v369gme7eSNa7+t+XruhZfsua3VNPLy8ixtnkOzpk1txHrIkMFW13v16lljGNjeBzkT37fpO5HNk5VB1YRkuSr8aF4242/zr+nGAAMEqPs4gp+8h+4L9kiLL+512Zjf6yU+wEjwLr0HFYeSrr0si53W0wuPCLqdMWOmKQAemIvW2vsPO/IIUxzhwEOHcAiTCQXqbIhuiYkVPS/KhwqySCvuZu25acj5+fnaYHsYUXhNm91a8b5UdfPaa28Ej3WOj9LO6+SRJ5lickHjJ4j43v+9T5577kWryFRe0nYVGZWQBr5FlW1FehXp0soHDjjI/HKQEOXwzTffyAMPPVKe5505OUZi3DcbI9qQD2Ec4dJEMYw48XhpoqqMUc+JE5/SMphhisI9pkXz5kZUbVq3tgZKI5qravc//3lL5s1fYMcQh4niQpmMHz9B3n3/Q1PR5JH7Iy80/m3bsk3NFerfxFmiOL2NnuMg88f0ebnlRD685UQ6OXqflBPqqvI9OccOUIV56CEH2/E1Yfr070xd5uTsCu7R6qydBSTQ+8BekhT0d1a1uVi7bp08qEQ68aln5JNPPjNlTN2DEHm23Bvg+RC1QAe7ePESzfNW6dGjm5na3vRc0Mm++dbb1vl/8OFHRqrbtT24o8wkS/qUyeo1a2TZsuVGWkcfdaSdzzHUq8fGjtNyfUK+0k6J58v5PEt+53wiJyxP2tkw+k39bdasWblVEw5V03VNgPyYHsZDZQQ1lFy84De2kEMYlM0tCEhufsCSsRYSCTQdjt+dH6Vmr3tuGFRxXQMPyt1vL0vX+/mZUaIFQANn+hWVN3TDHMzNc1RQJLAKHfy7Atyn514jgPdQKhfkMH78RFWuL1nMotuQ6XEbN25sijI5OUmJoOqLYAa7T5fKOnfuPJn45DPy0UefaANSclSQf2LPSA9Cqyk8xRqPp86Ea3x2+yE3b+XkOZYGDomM1Qb2kapaGmdVoMF99OHHRnIuUbuAzF7VzuTNN98284z7BJQTig4zHTUbNp8eeNPcO5B+9dcIBZ0hqu+rr74x9R0JIBvu94MPPjbCCQUk+cabb8oDDz4sn38+yci0JiQnJUrXro4YIESMudpPPvWsPPLo4/LDD3PKyxSgnKkjXrfNxo0bVXW/L2+/854qzHXVluXekx+VrqzEKWIeJinVqrzLZGtOtEydkyIfT0+TRavjJSeX2D1Nl3m/oWCf7S+TbTujZd6KBHl7arpMn59sBFrr+mL1g//0RF6ezvtGfmYQa/X5F1/Is889L88+u+f23PMvyDv6EPcnaOyonaeeeU62eSo4Fe6II4ZYOMn/3D3GzJ8WLVpUathUThr8AZ06SaeOHSVD1QFAzU3THvyTTz+zRgc4j2MJUSG9O++4TU444XhLwwtUQft27UwtY+bEq8m0r0CNrVu/3lQJxA5BYeKiHtLT04JHVQDVhulMw3QbF2l8//1sa+QoExfJycmm0AlIH/PnO+Xss88yv6cXbjl17dLFyqomU7UmlGpnnpu7W3Zo/iAlVLp3w/VC3lFPLpo2aSLHHnuMlS9A0eLb7N6tq/k6Bw4cIO3atd1DSeHDfvfd9yv5WgH15tvpM+Tll161GSiUjwvSRiky2NKtaxcrD8oZ05fyOVHVPGAm06effS6PPjpWVq1aXSl9lPywYUfIqFEnW/nSCbt1j/tjmiPPw3vdUFSuWbWBEV7wdPLkbhV1v3rocVt3xhj5LVqdIJ1aFUi/LnnSu1OeTVdLTSqVxDhVGNFKhyUBySuIsjm8WVtiZeaiJJmzNEmWro2XI/rukq5t8yUpobi23OuBm/mfFzQSeqjPtMFU1UMVqjKsL0RSXvS0P8yZ4/EjOuippvQVl10qxxwzzNTa0CFD1EzMl3fefc8aFqBXxqzHkc0Uvu7du1njwYSe8+OPlfyfmORHDTvSYvUOPLC3qarevXvJ6tVrZLaajy4wNS+66HzzD0FQTVUlVudvqg1supcS6tChQzSvXSU6KlrmL1wor7zymqlwL6ZO+0ouu/Sicj8q/ssZM75Txbe6kjphet0ll1wow489WpKUCPEBxsXGydPambjED9keecRQ+c3oUyQxMUl69Oxu+/cWpIv5j1Vhg1zULR62flDLIPjGjRrJoYcdIj17ONfC73n00cNksO7DdGT/EZonVFiS5onzV69aY75SzF3IDZAW3/FrM4faHVTDQsCdMVvVmnssoIw57litE7gOqDsoRAgS0/f888+1vHHOeu2QcMssVVPYC/yBF1xwrvTt08cGN3BHvPb6f8zPin8VkKdvpk+Xgw8ZKO3atrV9odj7WhMVq3eSJmVUPAYY2GoLLdCCwihZlRUn035MkVe/yJSnP2gsb0zKlMnfp8j0eckyS4nuW/38YmaqvPVlpkx8v4m8OSXT9q3bHGfBzh6xETmoEJZnPTmakeD6Hep3slg5o/S8OH95UDSKcNuq1auDR9cxIiwz10QNBT6pwYMPtR4ctYDf54QTjjMfmwvOZUGBY4852npzBiYgKsxcGpIXqMLBgw8znyDpQYYMCB1/XOWph5BMNyWm0aNHyVFHHWn+rZrMyEhAo0R5Mdhw7TV/kIsvvlBJ9gL7Hm4EkkGNvPx8q0YAskad7NrlxJ26YN7s0CGHq7JraiPpKKnD9T4ZlHDhqM0UU7qnnDIy4pHeqoCPbOqUaTJh4lPymJKV+cse041P3caOHS8vK6HjZ3VBp4Sivur3V8oVl18mt992s5L7xXLG6afJSSedKCeNONGI6RRVWqFhMTl6z4sXLzWfrYuZM2fZiCw+PxfEYjJSzEDMH/7wezlHVd6ZZ5xmVsPVV18pV131O1ODAB/uT/MWqIXwjX13QX27Rp/PRReeb8oPRXqsdiwXaN4G9O+nZOqQL88DM3nZ0srE6cXek19A5W+cynM+iZvDDWR10CUVRQ11MiO5RFo3LTTyKisLyHpVdd/8lCLvTMuQ5z9pLBPeayIT3mpq83hf+KSRvD0t3Uhvc3aMDSonJpRKs8xiSUgslahwpnIoXMIjX+SXl6BzcV5sDgH62AP4XXDEhwLTjOljXuLBFMHMc4HyoFfO9QzygEI1Z3DsewH5QIBesyo2NmaPwSDUwcasTZXURF0ABcLAyJlnnm7KE/XB6DVqdYiSVyhsMMQzdRLlzn3hx/UCVeedUwz5o14zPaFEKGYGHCCtugCjypjmkPHyFSsrbQzk4I9EVYVej3wdf/yxcumlFyqxHGmm+OYtW2ThokUWXsJIbUwMIWqVaYPnjJon7ARQNgsXLKw0Ag0SEhK1jAfJaaeNNnPXHS0nUqBb165y8KCB5fWJ+kGkAz48Lzp0aCe9evWwQUTub+XKVTZQkmyuipaVQm9sVHhtZYvFi70nP4BaKtMbgPwYPeV1kcymYHYFszoIcalSEQakUWqJHNCmwIKdOcqNkNi6K1oWqkk7a0mSzFiYLLOXJcmS9fGyUc1kyp32QR1rmlEsHdVcjsM8dhuhe7mKNqm1QX9nZJfZHsT3Ef9HDCJ5jlLSUwW7P0BDwEyg0tGbVrXtT5BHKlUoMNkhNa+5vnnLZlNDXhD2Eo114AH3hI/GC3rqrdu2WY/vAoILN2EfH1ldqD0vIHJM2NCFImL1Wq2V1ENh1/dkAdImBMT1mblgsMhrMkOOjEzSKbigjOOU/KsbMKpzaP5Dy5B80HkxVRB/GaFTTz/9rDzyyOPyv/f9S/76t3ttlJzBOC9Q+IStuOY+fsUNWRv36PQI70H5ErtZHahTmO4QdSjw4T3/wssybtwEeXzcE7aNGz/BBuMWLlxkROyCeFFIsirsI/mla01spH8oG0EuzOZgZsV63fjkO/F0kI8RkJLONiUfCDK3WOKjS6WLkl+/LrkmymhGAVVwLaLKZHBsqfSMK5FE/WwXUypH69ZF95fp7xwbo3/37pgnXdoq+UGavLh8ZzB9iBcihpQL9BPCc/PkbuSB3+O1sieH9wnUNxjRxBeEhL/wgnP32JDyrEZSL6CwIwCkMHTo4XsEs86c+b3MmD7TlAGLNhCi8Pnnk8t9LgCfH2ZpKCEwkICiorG5oJJOm/aVzJnzoykS1BB+IMIuvECNoUi859aMCG5WD4Fs3ZFsF1wnIaFmq4DywUcZGhxOWM30Gd/ZSDC+rUWLF8vXX39byYdKuFLLVi3LldC+gjwTG9myhTNo0ypkw1faRDufxOAzhWzYcMMsWLBIXnr5FbnvX/8nd/3lHnnwwUeVbF6S99//UKZMnSbzVY3RUXnBucXaabllh6mLCVxaWlmdM6hBBxNaH0JBekRAeAeOXOBueEHzM/HJp8u3CROetsFBfNPeUDLUo5cMQ7Fv5BevvXfaAcpEejM5SjyQTr4WAGWA6oN0slQJ8IkaXKsZW63Ew6wPiDGnWNo0KbR1+JqkF0uUntJRa+HoqFK5Ur+co59d9fup+nl1dImcr/v6B8mvRZMiPS/HPmNYGYFrQGprNW03fQiOBQ426obas1Ve9GSImvm/2nWXJTTbbwuaUjEJQGYeKssKhW533H6LOdXrC5HwHyoLc4SRXS9oBOOfmChPPvmMBT4Tx/Xeex9UUjQMcnRVcyYtZMSUBnDIIYPM1HEB4U3+cqo8/Ohj8syzz2uDe1HTfMxi2Lxgrm5XNZlCR4GrhN5k6H3yXWuR8yUC0BhrAgR56KGHSO9ePS22zgVLbFkDnfiU3ddjY8fLe+9/YOE1LghEx6/odRnsC2yEechgufjiC+TKKy+XK393WaXtd1dcZr62rqrCXEAUs2fPkYceflT++td7bbCCOMj1GzYYaaPqmJ2C7zLG45pw4ShhR0nmK4kym8VbbhAyrgX8njXByFSvx4h1KPD5UscYLKvYttonhBnaeYWI20rYe/IjNo6FAfD7URj4zyAW98VFNttDrwzJQD6QIMoPBYhKg5g25klySaEpv+MH7pSuycVyot74b5TsuuiphyvRnaF/n6hbC73kEar2rtC/e6cWy/BBOTKwR66pRzNnITlIjTxAwChA1N5m/SzQ7wQ7814R8sWUN/e5xOg+toL6XdklHGJiY8zkbdKkiTRv3nyPDZLA91RfqKZelINKjUK9/rprrIG6iosKOvnLKfKPe++TG268RZ5gZsnateWVj3OOP364qUbMQS/o+Q9ToqBxMvLngrAMZgHc+ae75JZb77CZBl6V0bFDe/PJEQ4SMfnVKypKkHJi2tro0adYQLmrlCE5wmLuvfd++fOYu22WDyPYLlBolMWRRx5RPlK6r6BOHXP0MPn9lVfIddf+cY/thuuvtRFzphsCFC+KimD65zR/PEc3DIY89elzoIw6+SS54rJLZPSpoyRV81wdcBU4z6eifKgvkCJbzQiYXzGcEqYu0akSdlPTRidJ26oKe0d+xMUxu2P5i6q4flBFFbwhCIWZHpBfW+3FmOuLHyNfSRLCY9EDyAeCpGB2FktA1WLLxkVy6pAdcq5ug1sXSLKauqSVoIccqYTnNJ0yLdRS6dyqQK44fLucdXS2ZKSWSBTT2CBSCM9eVKTXJH3KHdKDlJnexvxeXpwefI2lA/1tl5ofy99w3umxfYnuchrvzwKXgKtBJKqjOliHHPx7b0CjZjCCBjpixInm23Jhvh5VbIS2YG6QVyos8Xenn/YbNdvPk+7dnPAWL0iTUeCjhh1hsxlccD6NDj8ZsYAQH8eiGJiu5I4QhgsUDvlaAbv/fSmBqkGq3usyYssIJPeEf8sFfirKiftCYXnL6dRTTpbfqRqDOOsKUYEo62ASkxJVBSZZeYVulKnbgVDWrIRNZ+M1GwkjIUzpz2qZjHv8Efnb3+62zgdyDS1/L9Iz0pUgUys9d+4ZBUlsa6jZHAqSpvNAZYYCQrvssovlmquvkmv+WMWmv/1Rt+uV6MON1LuoHfnRENlYw2/23RKY96AEtin5FXtuBpJDfaGuWEwgDSLSv7kSq6pAQKywAiFxXG6Jma1tWxbK0SO2SvvRW0T67ZZAx3wJ6L7oFpp2a20EnQokqk+uJI7cJgNP3iqZEB/swbJZmNj8jbIj/Zbag7KQAnmFcFlW31WikKGH3wK7Vkpg0ZMSmH2v2nLjVKlWHqH6bwKVrXyebhD442hwJbgGgqAiMmrqXWShKnAsJDdfTSACst1RVoKWMUG7qenEogCYsDT6k046MagurpH+/fuZzzAUpInpMvP7WTblD6AwUCLExbH+HmmyOOlhhx1iJtqYP91uq1dDMOEaHo96fwPiJjxp6bJlslsVHyoZlYIvkHuizLjHQYMGaEdyvFx3zdUyZsydFqQb2kHsGxzXUCSdK9i4aZN8PmlyJVOcUV2IhrnTjM5iiXA/kQzKNFLzuFFmIxvE8QLyX7Jk2R4xo4A6gdXAJ88X0m7bds/XO1AXWa/x2muvNgUbbrte6x7174orLrVOsyrUjvwApu7iZyWw40fnb5ash8higgTHAIdrfkJAvDMXkxPi4TufzPNN1YLRD1OF2aok9UkFCFnpnSvRZ2+WmPM2SbSSXPSIbIkepZ/nbJKYCzZJAGJ0V3tmMINr4ctjPUHywsOxecTkRzdUIMTHYquY4Nv1WlxTv5oC5DyOL1azd+MUNZW/0Kz8jOqvDsEoKirNC3pbAm+p4DROyJBpRlOmTLU3m0UCiPL/HnhIpk372iooigGz6b777tXGcYfFhI3Rz4ceuF+emjjO4uQgr6oaNBV49g8/mA+METoqO/FdN910vfzr/v+VO4L+znvuvkseH/uwPKlpnqEECEFWpzj2J2i0a9eukxeef8kGNCASSOC3Z58pf/vr3XZPt9x8g9x99xh59OEHZML4sdaA3bi2ukfkvUGe5nWd5t0bPhQdHSMd2re3gGLujQ3FRlxqTcoNUx6zEwXoBWXCQNmkyV+qtbBd60GJXdO1IDC96ZAd/2Cydayhrx7Ah8rsDQZDOM/NGxtp0dFTX8kj+6pD7ckP2bTuMyUeLQBIrb2at2yoPIgE8xP/HiOvXBySS4fotNJCiIS+oMbSdB+kg1KEMCEyx5CQgP4UaFEkUX2VCAfukmglxCj9TkhhoNQ5xtLZoWSGHxGQHmTGz5i7XIv88RrNhGC+tqt5zvGQInlqoQXLC5cw00m7ZKe29JWatqZbL9A81SMY3fM62wEV4ofZc+SDDz6ylVOmT58hr772uowd94T8MEc7sBoA2RGU/Pobbwb3oNISzB/Zu1cPGXXySO2Jz7Dg1759+yoxxprjmUqIuRfqgAaQ8E8/zbfYMQCZZmRmmBk4aNBAC6w984zTLWi6U8dOlh5hE5znVvjaof7K3c0K98lI7mwt0x3BubH4PSE3TC+WlzrvvHNkxIkn2JJVmHUV5VQxUro/wC2EXp/vEAxzmHn+WVkbbdbIiy++bKO5NT0DlhFjKTVvZ0xdXLBwofkVqU8snsDSVlyDOdX33f9vM72pN67y7Kd1KhR//8c/bZDN4gC1U6e8iTpYsWKFjUiTBgHc1JXqsBerumghofyKsh2yyVDSQ3Hh62P1FMoEPxwExHcIjk++m99Pv0N+Rob63VWJEFKy/sanQT/LPJuxWhAUPNfYqGTGJ9dgrUBbnVl/Y5CDUBdUZ4bmi+sw2sxq0iTDfojPTOFg3shHQIkws49Is8N0v6ZVRyCMY3q4VV1aRbKqyxZ7QU0owq3qQo/74UcfWw/qrZyk8f2sWRb1/+GHH9s0IEJTUFGoM++xNFimWRESAWgETFVitNKF+eL0OXEajWLFKgJoV5RvHL9R9xOrRdqQm5nkQdXmzu39UtUn4BoQm73rpKjQzKLlKyvSYyOYdasqVhzmKAMCoPl006TBvP7Gf2wqlPd+mLXBOm9t2jirunCtJYuX2CAE4ScuGIXE5GZqmzeshwbLqCcNygsaNeqX+cykS0OjM5k86UtriMAlbDYCxVeuXlVxT8sJNtZyIl5SFRF5xslPWdVG3Va1qgv1g/X2IhlEQYXN+G6mzeF2y45yIu4SQof8WJXon/+8346jrL3g2bJkGNd0B+gwk7O3ZRtBYX24QO0x4MPsj7lKfj+oBUAYDXPZbVmzNWtsqh/zinFxsLAH0wYpQxe0Ie45S8uOZdAI3v52+nSbY0xbYfYKAyO9e/e0ke+qynMvyE8LZ91kCeSuVtIIEhf+PciMF4Ojtig/Ql9QW5AditDdB9FAfhxHpvDXsQ/TNVb3ufurA347VmJGyUGWDGawWjNg8IOwF0xsfIB6KfvOfpbU4thmWiHIF2SMQt2qaUGi8ZkirY7S3wfVnIdaoMolreqY/HByz5r1g/Z6i/Q6ek8eQFhUZhomagOHO/FyOOZZr81FKPmRB5ZwevbZFypVQKbksa7fp59+ZqqSMBd3g2DpgZletHI1E9KJz8uwvFIRHQWwSCv7NFM9gOWkWFWEtEiTBlEpTSV1luxCJWzIytJ8p9pUJ5csqiQ/VQ+h5Efea0V+es2ayI9rrlHTkSWX6BAAeYJQvpg0ST7+5FMrF/d+WHnkww+ccqJeuKvAMHOGwYhICbAuyK/U6tlWIxDcIi7IP50kZipuEmaNQHTcO+XoIhz5cUyTpo2tvi1fvnwPMzRX2wGdAIvpsjYk+ed35xWcYlMiqaP4/VCa7mtfXVBv8EMTcUCdYUEJQnXwJZPvqKhomyONNVFVWUINtUOBKr4C1mfTG8H0hFjW5jrhJqygbCpMC5wNYkSFQXAMdkCCECAqDMLDV2grLGs2IMqNSgyuuRwO7CdNN26Q8sfcNZ+epsW5xPdBagxyQMqEvBgZ6jUYaGE0mLJA6RGCQ2wgMYDsLNF9vHu4MLIlfSIGt6N5D70t223/V42qfvVWJC9OP320TfiGFKoCMWkDB/aXSy6+0KZ0hcKbMg0bkrzkogv2CE6lktFoaOzeDb8Qwb3vaE/8DzVRbr3tTlvTjYpJvhltJM6PifQ0HBdO5XeCW0PTxJ/2naqOF196RW699U4LhyGolQbhlgWNeE/suY8yDy2/cPsAe8LuZ5/tdn6jvHmPMpP1Q1dlgVC4d+/9cI+sJEPjf/Otd+Sf9/3byollvrwdZE0gH6HZ2zO31QPCYg71YYceaoRTFXj+LGhB3fHWBScPXLXylVHdF11wnow+lc60ZbV1EkBSpDNv3gKzDlDCdFqsHMQgB7OCakoDcA+OtVB5kYlQ1JL89OZWf6gEsUD/VIJJ04LCp8cAwnp9YGyQG4MN+NEYdSWuj3d5UC6EmbikBDA5MUvZj4LbrelkaRoQU+gjdJ8wag+CQ/2hNFFyEC6AGPmbfZCtDXAoKWMOQ8YQJQoTQiYYmnyhWDGDMbkLtyoZfq5kOcdJr66gl+DBQjreaWuuEqoOkI/3HGdL2XO15CAGaOO74IJzpG/fA03yU0kxERl5I6IfZXfc8GMtsPpiJbQuqoxIz007VHXwd4qmc9lll9iiqOTH3R/pdCyIkCX8MV9QUqTRs0d3GTVypPkpXbC/pvJwgRIkwBoScRqecz7595YVy7SHJqk51/2Vn0VyUnjziD3s95YRG2VqP3rA4rSEgjC66zZSzo3knuhI5s9faNO1vpwyLbi3ZpA2I6PevNH4axPeQ16ZcXPbbTfaIgyYm6hf1Bsb9RSXyvBjj5F//P0eufyyS22WiHs96pW5NcJck8Dv22+/Rf5w1ZWmDu14VaPkkbSJBuBadIgQHaE/LHDgzqrhmaLe/vyn240EiSAg2Jrn7NZt0uFv6jsB4wTk/0HTOHjQgGrLvnbL2DO6+9U1Elj1hpKGntYp1SE6yA+SQUHRJiETCA1fH6EoDGYw6goxFXE53YKrOhs4H9LDlIWMUGetlKxs3loQVHCIa/5OJz3SYqAFX6N7fxCtmc+aNg0TJQhJQmyYwQx2oBjZT9qNg+TNseR9fa6UJbcW6X2bSOezgonuO/B54N/ACevIeifD+DXoRVlNIxxo1DhzX3zpVfvunKYmnpoQg1Sx9T+oX6Ue2AWOdFQSPjVMNqacUeHatm1r5ww76kgLvSBafu5PP8n0b2dIrFZGTBkq4YknHCesggvIAyNxjz42Th55dKxs2LBBK2S05Z0KjF/PelctZtQTITWYyTRmr2nE9W++6XqtwDdbhWXUjpWDMW9Jn+vSs0OOzIW1N4rpDZMG6aPwQntx8vDOW2/IQXpPLIf+8cefWYAueaaMOb59+7baIfS3xkpDIj1WysENgWpln7uUOqqGlUG8ZUp+8KG+r6aVs7iqo05o7KNPPdmCaJ00ymxNOwKFUaf4tTiGaWT4R3kmVkh6vntPbKHmIIs7EPzNqHckQDkyDxe1yD2TNnF4POcDDjignEQiAe4QRt9ZYo16g++VeyMQHQsBFw2juKjYjz7+xExV6iT1oXPnTtbxhs6NdkE9XrhwsY3yM9DBogSUCfnDdYDrh+fYs0c3q6fhQFnhf8W1s3TpUnsuzP0mj8SN4uIgPApznwUQajL5a09+M+8WWfyE3rT+3S7FIRAA8aC0UH+YuRCO+8Y02gAN12m9e4KHbwSo5AcBJip5tVFiQyVyouVQ/+P9v/wO4bbRtFF4VaUJMMv5GUVoM0r0XPaRLgQLgUJ8kOkG59plqR1UPt2lxDrSSaOO4K3goaiud6ruPFDduRATAchUapRiSjLqJaVS4w6XvjdNGtXj4yaYmUk6gIDnm2++Xjq072DkwOKZLggzwAfDCr+Yql7w7gsWKl26dLnc/68HbMSO8xk5/u1ZZ9hoKGvdMejh5otPzESWZGJhy9D8Tpn8maqLg029uGTrzT/H8z20nMLdNwhXnuGO9abL35TTQw8/ZstFQcBg5MgRpq4JGSkpdZZcB3wyHevzz7/QcvpPpZVHUC/Monj2mYnBPdUjXN5AuPuIBKQHKeNno/4A1BoLjXrT9F7X/dstj+oAgdHZ0cFxHToISIp6WRNZueB6nE9dc0mfc/EBQ6aQYSSoJfnpodvniXw2QgL0ZJivDDS0UCLCf8fvKDti6fDfoaoYhfUquKoAKWEyMy8X/18zbaCQJwqRdJWfZHZw8csUTa9rmmM21wQ91UxliI98uCE55B2VCCna6LASd0yylDU/WqT/HXpf+7am2q8BVDIaafeefay3d3HXmD/JDdf/0RpFOKAmeZnQZ599EdzjmC833nCd/OWuP8nTzzwr1153k1V+QOAv8W+s4hwOHMfLgEadcro1HhconI8/et/eDeL1Hf7cgHR5X8dVV11jgdsAFQvZ41eF3ENB2aKu/vaPf9piqS4IVSJQ/JWXnw/u8VFfiIwiy6FMsm0htoDzlY52p1bgRWqKLs5xSI8UUYOQE8SHGRsJOMxGgZWYUGoMiGCyumAJKr5yHKZuhP4mA77JjqpSienD/Ib01ik5k2/e4MZ1yGexkmC+qpX8rOCJDRuoMkwfL/GBvLxca7xVAcJ0VYML/DmYIpzL7y7xgSL9O/T4UGBSkh8vWM05NAh2fwDyw1xkqSoXBOtmbdxYrpZDgRmPacxIqBeYjVW9zc9H3aL25MdcXuLm4vXUrtrzd09XUlETlcawfJfIEt3wn0FOru8tUiCZQ8mSr2zetoYatJ0RgMM4HJ8fpMrKMpAeCyEw2NJD899NiZrBmTJtkHmMZldU4oYMzAnMsFCMGz9Rxtz1P/ZeW0wPlwgJR3jwoUdsoQNW8vUCRzoLZOIfCiUxYvgwg//17wfkJ1VDLjEySspyUIyCohRDz7vkkots+likZk59gXLC0R4fp/XJg2eeec7cBVOmTDPzDODzRfE98OAjcsedYyy8xwWjm7wSkul8PuoftTR7lfTmPa52zV/1RCW41towbPEC/Q31RFgJJiTkxEvMGY2NFDQgApMJPWHwhAET/H6oQX5DCf643SEzfuugv9XgX6iE8kBn3fD1EQOI+UsS+CgZcMkulrLM3iID/qwm9zDnvAYMSI2XFh133EhzVHuBjwX/CiNtjp+H+L1iG0ShoXuJihfg3HTjdTJy5El2Du9luP2OMRbb5sL1/TCo4IyUkqbzykgIwyUPF+efd46NAPLyG86tyddUn6CcmLN68SWXWyyiF/hXGZksLyc9lhd1F1BOqgq95cQo8ZMTxskANeP35/00FNQ+yDmlrcjSVyRQrCSFjw4TEjJB5THTI1OJCUWF0qqN6sPnxygsAxo8eGL3GCwB0DNJQVzUFb5zDQY+7IcIAEETQO3O+sD/5/oZGexArcahAJX02p+sf+/fFZR/CaABsjxRz149LIjUG0iLOsOkIzgZk5WN0Tt39JJzCZFgVRB8fcOHH2MhGag05nwSk4cCcoOxOYdzITk3PTZ+d5Ug5zIqjB+NebIQH0S5v4nCvVc+mT1CMLkLyM0pJ+89aTkpqVeUU6IN2vz1nr/Y5/70XzYk1J78YhiE0G3bPAkU7XZ8cRAHAx2YrGzuogKRVkpIiBg/NyCaNJRT7W9CZRiUYP4vI8Ls53gAOUZMsOQn+Kc7n5hBEK5JujGpUtbqaDWDLxdJ66jHwpY+IBymKhGUzFLlBJ8S30ejpfG6cJRbgqSmOq8gPOigvhbb9fvfX2FhF95pRsymIAAW8mLFX0bunJhBJ02XFCA2CNNZvbmpHDF0qNxzz11yztln2tLyvwTic0FeCLXo3qO75Go5MWXNvSfgvSfUL7F0rPpMfB0rdt9y0w0W6hEudMlH/aD2o72Al5VvniUyf6wEts3V79rTBZRQGH3FFwgpYfJisrqE6JKhUxcc9QaJYS4z0opJCslF8QPH8+E5mN1AecoAwRK4zAIFqE6+exsCx5M+G74+QnEYRSYchyBqwlv4LQrzvKOUtRwi0vF0VYa9dJ+m+QtpVL8E0HDxvxEvyAox3333naxYsUp4ZwfmG7+jXpiKxNu5GIhoo38zysn0ORp8KFBEqCBmgzBNiXmxDBCwoClLoge080lNS7GFS4kzgyyJ6yNNgmJ/KaQXCtQv5bJs2QoL7l6lpj1zY+k4aD/JySnSsmVzK5+uWk6UVyPtLJiLGq6cfNQfakd+XpSoatq93pkRsWGKBFgINHeNpqgERr2E7DAtMYkhwVCC4qqYzBCfS0ZRyWru9lDztKn+lqOEpdfAz8j7gaPUVI1WUopWslLVKUV6LciY0WF8d5i0kKwLl/BQeSg7PvluRKrHRqmJm9JeypoOFEHxNeqteW3kXAf45BcWkGBOzk7zVxXp325sHQoRRcMbuhiBxccVyUCEaxYyvxizF+KDTKlDMdGqklRNQqyEgOxv315twGgu5M69YeKab09vi3tg1kmCKjzHb/rLJfJfO/ae/Fzkq+rL26iqbaHI1u+VBBepqbpc92Vp6ig574MN/s0V7U+ISD9K9UtcCylre4Ljb0tqofswpXc5n9GEzOgGCbKu1abpIqvekMBGVZ/RwRAJS1PT8abtgsZUojujM0RSlfDSO4tk9BRprISX1sUhPUx5jgN+ZfTh41ePfSc/gDrD/1e43VGDO5eJ7FqlBLhOAnlbVN1tVpLUz5I83ZQQWS8PsoF0kptLWXI7kSYD1Iw9XNWY/s07dCEiZpSQti3kpyrCJSXet7FDlaYqTtkxz1GdXId0izUfqDfSZwADFZnYzHlREYM1aUp8SoASr9eOTdHjVEn68OGjwaFuyM8LyI2R4GIlOnyDEFX+Vv3UraRACQryU1KDdCCghMZGTpKoai9eyQqiiwS8R6RAVWfuBodouQajIVyb1VAxjyE30k9o4hAhhBirpjUq0h/Q8OGjQaPuyc8LVBtqDNOVDXIy01I3U3P48iAqBhgiJL1QkD7+R0tfgVrE7rX0dSN92yA735z14cOHg/olPx8+fPj4hcK3/Xz48NEg4ZOfDx8+GiR88vPhw0eDhE9+Pnz4aJDwyc+HDx8NEj75+fDho0HCJz8fPnw0SPjk58OHjwYJn/x8+PDRIOGTnw8fPhogRP4fTMg22dsCu9sAAAAASUVORK5CYII=;fontSize=16;" parent="kLLIGCO7J5aGBXE1isZK-36" vertex="1">
          <mxGeometry x="38.99938298574051" y="35" width="131.0979258828354" height="29.99952537364655" as="geometry" />
        </mxCell>
        <mxCell id="ufXdxWMpvUYqsRV-47vq-77" value="" style="shape=image;verticalLabelPosition=bottom;labelBackgroundColor=default;verticalAlign=top;aspect=fixed;imageAspect=0;image=data:image/png,iVBORw0KGgoAAAANSUhEUgAAAVwAAADfCAYAAAC6RWvuAAAAAXNSR0IArs4c6QAAAARnQU1BAACxjwv8YQUAAAAJcEhZcwAAFiUAABYlAUlSJPAAAGm6SURBVHhe7Z0HfBTFF8dfCJBAQu+9dwQUUESwI4pYUKzYCyJ2Bbti7/q3KwiogL1gR2wgRQSR3nvvvUMS7v++725hc1wqyRFwvh+Wy+1tnZ35zZs3b2Zj9ibvCIjD4XA4cp18oU+Hw+Fw5DJOcB0OhyNKOMF1OByOKOEE1+FwOKKEE1yHw+GIEk5wHQ6HI0o4wXU4HI4o4QTX4XA4ooQTXIfD4YgSTnAdDocjSjjBdTgcjijhBNfhcDiihBNch8PhiBJOcB0OhyNKOMF1OByOKOEE1+FwOKKEE1yHw+GIEk5wHQ6HI0o4wXU4HI4o4QTX4XA4ooQTXIfD4YgSTnAdDocjSjjBdTgcjijhBNfhcDiihBNch8PhiBJOcB0OhyNKOMF1OByOKOEE1+FwOKKEE1yHw+GIEk5wHQ6HI0o4wXU4HI4o4QTX4XA4ooQTXIfD4YgSMXuTdwRCfx9xBAIBWbt2nYwcNVrGj/9X5s9fIKtWr5Zdu3ZJoUKFpGKFClK/fj059tgW0qJ5cylVqqTky3f41kFJSUkyf8FCmTBhosyZM1cWLVwkq9eulS2bt8ge/S1W7y0hIUFKliwhlSpVlNq1a0uTJo2lUaOGUqJ48cP63h0Hx549e7SsrJXNmlcQhHwxMbJXy8/evXutHBXW8lK+fDlJTEwM7nAQbNy4UdZouUxK2qPH1hX8p+cLon+zTr/H7Fun6DZcR3B9cJfgf4q3nfddKVK0iFStUiXP5ekjUnDJJGvWrJVBH30s33//k6xYsVI2bd4sO3bskN27d9vvsbH5JC4uXhJVgIoVLya1a9WSjh07yDm6VK5cKXSkvE9KSord66+//S4//jBE5syba4Vm+/YdsnPnTrvf5OTkYGZV8ufPLwUKFJD4uDgpnFBYihQpYuLb6rhj7f6PatxIChcubNs6/huQN6bPmClvvf2ujBkzNrQ2iJdvKleqJFdecblceulF9v1g+P6Hn6R3776ydNmy0JrI+OTWNDizsF/r1q3klZdfkPj4+ODKPMIRJ7jU1CNH/SUvv/KqTJ06TVauXGUCmxFxBQtK+QrlpfXxreSaq6+UE05orcJTKPRr3mTjxk0y5Oeh8tHHn8rs2XPsXhHZrIIIY/ViEZx22ily8UUXSmMVXoTZceRDpf3xJ5/Jiy++ItOmzwitTQ0to8svu0T+98oLB10hDxz0sTzxxDPaGlsQWpPznNm+nXz5xad5rgzH9nr0ocdCfx/2bNu2XT799At56plnZezYf2TTps1WQ9OsoNl8RrvTpeM5Z9vnsS1bSJXKlSVJrb9t27bJbhXqzWoFL1q02Jai2iTxLF1EjOY6xMbG2uehBIt15sxZ8tLLr8r7HwwwF8K6dettfXagQsIiXrlqlbkiZs+eaxZwlSqVtRUQF9rKcaSyfft2bQ1+Kn+OGGEGSyTIW7jhjmpylJabg2sBTpkyVf78c6S5FnKL2rVrycUXd85zRsMRY+Fu3bpNvvn2O3nhhVe0eRSspRHa0049WS64oJPUq1dHypcrJ0WKFlWLLlaS9iTJli1bzKc7ceJk+XrwN/aJf5dmSMOGDaRmjeomRnt0W/xJhQrFmx8L8W6pgt2wQX0pqJZxNOH6/v13grz51rvy629/yIYNG0K/5Bx2/3pv119/jVyk1m7pUqVCvziORP4Z/6889FAv+f2PYftcCJGgBXTbbd3lnrvvCK3JHs7CPcxBhMg0L770ikyaNNkyTfHixaTrjTfIrbd0k9NPO1Xq1KktZcqUlqJFipjftqgKb5kyZaR69WoqxnWlbNmysmDhImuWY82uWbPGLL0Zakli9bHM0mb7jBmzrIamE27evPlW61eoUD4qznmsD+7vrbd7y48/DjGLPCOwyMuVKyulSwfvPVmbjzQh0ytYWDNr1q4xSz9OxbdWrZrWaeI4Mvnyy6/lpyE/W4swPcg7xUsUk+NbHSdFimS/8ywaFi559pKLL3IWbk6DBbpkyVL536uvy3t93zfxpSf15pu7SreuN0i1alXNOk3V4+mDpvTYsePk2+9+kO+//1EWL1mSrhh5ILClSpaU5i2OkfPPO0cuvqiziXxuwX3Omz9f+vTpJx98OFAt28iZlfukYmnT5gTrAMMtQuVSIH9+u69t2nxcv269zJk7T/75Z7zMnDXbOhMjgVg3b3603HH7rXaPVC6OIws6XO++51756uvBsnv3fncClTO+/c3aCqSCBvJDyxbN5bHHHpEz2p1m67LDOM13Q4YMlfXr19t3f2nTkio7tQxPnTrVhHnXrt2hX/aDoURfA/k8Yv+MHrCBttBu0BZatFugGXHYC+6OHTtl2PA/5bbb7wpaZHFxcv7558ozTz0uNWpUD211IDyoqVOnW6fTb7/9LhMnTdEafpOJEsKC5UvIGL2zdBikpCTLBq2ROQf+UyIfgBq0ttamF198oVnUWLu5Adf2+RdfybPPvSiLFy8JrU0NnRlnnHG6nHvO2dLkqMZW2ZQoUeKACgeBXaGW/Jw5c2TYsD+tosG6j+QDpknW4awzpWePu6WFVi5pVVyOw5OfVPh69XpC/p0wMbQmyAknHC9lVdhGjBylwrjfbYVbAWPmjttvyXYEAH0mdPgma5kyUilujGzcsMHcDh8O+MjyfTh06D7/3FMqqg0kEEFwORz5luvPa2Fhh7VLAd8qfqDPP/9Sfv31d0tcRPa5Z58y6y4tEM2vvhpsluJXX39rITGIEOLZtOlR2hTpLF0uu8SE6/TTT5W2bU+Q41odKy2bN5ejjz5aGjVsKMWLFbOMSLMeP+rcufPt2I0aNzThy2nwL/fu/d4BBcODKIOrrrxCbul+k7Q/o51U0oqC6wgXW+A+2Z5mV/169aR06VKybPkKWbdu3QEWQ1JSsmzXtClZqqQcpSKe18JsHNkHF9Wgjz+V4Wqw0NLzwODopEbL8ce3sugX+jk8yB/FiheXVloeKAPZAauzWLGiFvttSwnfot+xrKdOm25uu0hRN3Tmdulyqebduqn39S20cvOicXDYCS4PfL0K3Ji/x5poDh78rfz++3DZqDVhQkJhuajzhXL9dVdHTGxq1aFDf7Gac5DWoGPH/bPPD4qVSiYjJKzzhRdYpxiiVUwzFcflATIworpajY0bNbJOJZrq+DrXrFlnERK4I/CXNmrYIEejGRD0b7/9Xj759HOLqw2HiIrzzztX7rnnThPFzNbqpBFukFq1aqmQxplPGtENh0xPy6GxVjRY8HkxIzuyDoNkPvroU+tk9twGQEXcufMF1jk8Q40R3E4ebFewYAFp1rSJ1KhePVfyAsYPfTK4HiIJbsWKFeTccztaJ/jhxmEluFhakyZOskwyaNAnJrg8GK/ZUbJkSbnv3h4mnn6oyf9WgR6o+7z/wYfWu79m7VoT73Jly0q7dqfLlVdeLlde0UWOO05rbhWh9ESLGphOqHr160qRhES1bufJuvXrTXT5pFMB/1JOZcZJk6fYtU+bPj20Zj8FzSpvIj173i1NmxyVrXMSfVGtahXzC2OpEybkh0JGWlWrVkWObtY0YmWCKya9BcKvjcEoCxcukhkzZ8r0aTNklhZsvjM6kA4aYqNJ65wu1FRadI7OnTfPzo2ocO4FKkBYc7ip8HljiWXl3N59ht+7fwH/MWmlrVq1WmbPmWNpMH36DP17rixdusz8p7H5Yq1VkRtN419+/U1++PEnSws/J57YRi684HwzHhDlyZr/uE4I3kOMhVS2bNncnk9OcyQL7mHjw6UQ4qslQJsezvAeejIk0QZDh3y/L36WzIG/kx59emH/HDHKHibgl8Unefqpp0iHDmdJfRVPf6cQ+3rN6/SsVa6r//sfmm+VMDOs3gfu7yl33XlbjjjsqSyoYHo99oQ1+8OhwiB8i3NyTwfD6L/GyBNPPqMthmH77t0D98Rll15s7hosfT9sSxww6YyI5ssXs09cUlL2SvNjjtaKrKUJB9siqhO14sSVg+941apVlnYpyWo9xRXUJmEJ853XqlXDrCwqlArlDy4ShPPSApk6ZZp1GC5evFiWr1hp/kIENkV/x3Lj+SE0+Cpr1qyhrZmGUlfzVTFdnxFUTIgXIYbe/e9Dv3IvrbQyTkxMMD/mFL2WiZMmayU31zp+ScMdKjDIMc+ybNlgFA19Cccc3cw+c8qls3XrVnnyqedkwMBB1nHmQRm4+67bNf/eLgU0Peg3eP75l6z141FIr6HdGafL22++ZuKX0zDE+O13+sibb72Tyn/sQUdu3/feUQOjSWjNYQSCm9eXlcsXBfr0fivQokVzcrEtKmaBqlWrBOrUqW3fCxQoEGjb5oTAhnUrbZ+UpO2BpN1bA88+82SgVKlSAbUqQvsVCGhzKHDbbd0Dv/7yY2DzxtWpzsV+G9evCoweOczO2a/vu4F/xo4KbN28NtV2/u3nz50R6NTpPDu+inPguGNbBJYvWxBx+6wuK5YtDNx/X8+ANun33bu3qAAFmjQ5KvDr0B8j7pvVZe2aZYGePe4KlCxZ4oBzsZxyykmBf/8Zc8B+e3ZtCUwYPyZQr24dey7x8XF6vQVtIT208gmsXb00sG3L+sBPP34TuKX7TYG6ui3PLNJ5vCUhoXCgZcsWev89Ar//NiSwacOqA86dmWXdmuWBbwZ/Ebjt1psDWkj1+uIjns+/kLYVK1YMnH/eOYHXX3slMGXS+MDunZsjHt9b+H34sF8DKqh2jtRLXOCmrjcEli9dEFi0YHag97tvBs7ucKamdcl9eTPSwnVU0uu4/LJLAp9/9lFg9collucinT8ry6SJ4wIdzmpv1+Y/nxotgYEf9rdnSvn5/dchgdNOPeWAa6yv2/085PuIxz7YZfXKxQFteWu5LZnqnN6ighuYOOHviPvm9SVvdeFFAEuWeQIIh8KJTnOM5jy98d1vvsnmPgAm28AP6W+uEU/7yy+/7nM54HO6oNP5cu+990ivRx6UU0852eYS8KCpSdwtvtKnn3lO7r3vIbn//oflOa3hv/r6G2uCeiPOPDgfFtFVV3ax2ESsnOkzZlm8bk6wWpu4i5csjhhBQOdX5UoVraMvJyA+mXCaChUiWy1Y88QjR2Lv3oDs2r3HLHJCeQgxYiE9sHL5m+br008/L337fWDHCU/LcOjIIXTt9Tfe1ufxvO4/xK4hK2DV0gJ55NHH5d3e78nkKVMsdDAjsIhXrFhh4YLPaevl1dfekFGj/orYxPXDftw/50i97NZ0SJb1G9ZbK408NeTnX8w/f4A17IPjLdfr+PKrr83SHPztd5qfM46/Tg/yEq6LhYsWW573Qyuxdu2a1pqgZcc8G1j44SMO16o1TkuI5+vIPHlacCmQkyZN0cw2WKZMnWriRqcN/qWHH7pfbrzxOhvQYJjOpva3kRnM96QZmuZh9+5d5Zmnn5DOF3Yyf68nzmTARdrE/OGHn+Tll1+VZ7Rw/zz0VxP7tevWyTfffm9N7ddff0t+++0PawL7CwnNsMaNG9roNOC6x4z52/4+WPCrrl61xgpeOFQwauVbBZQTIOD45ohaiASB6gsXLQp9yzwU3hEjRmq6vmAdlZE6/tIDN9DIkaNU9N60ML4t2hzOCJ4P0SjvaNP0qaefs3k1iLjIKhxnxcqV8ulnn8sLL71ibqlIsaGZgYpnhO7/8cefmgsh0jNNC/LxpMnBSJXffv8jYgWcWfDRM1qRyis8H9fV8kRnsVc2ypUrJw0b1LOoAj+UDfI4w8EdmSfPCi4Zwfy2w4ZbhxcZDt8hM1oxvJC5EMgUadsGqWnbprVce81V5hPzHP1keM4xYuRoefvt3vLAQ4+qdfuZ5C+Q36xfBg/gI2U7OlT69ntfHnrkMenX/0O1vP41f6VHkcRE81XCXhX6adMO7ODKDluJWVQL3V8wPLQ5KNrsDX07eBDGEiVLWLgPf4eD35EReJGuJT3wl77y6usya/bsVEKBBUUECK0MLCivkEcCsUQ0PxwwSMapaKdnWXF9pNl7ffvLG2++bf7hcIg6wZrnOdMBQ4RKhw5nWrgTVh2Vjx/8vMOHj5DXXn9TjYBJWU4DWL58uXz55WCt3JdkyzJEsGk5Ec7o96lmFWLI6YgN7weppHmpbt061mnsPQsiYOrUrm0+dT88RyoN0sSRefKs4CJyM2fNklF/jTGnPtYcM3ldd83VFpKVVcJ7nBGPyVOmysBBH8n9DzxscxOQAY9v1Upuu+VmeeP1V+SVl56X66672oSU8DCaxQytpTn4wIOP2JBI4hRpRhcoUHCf+DGPaHjPb3agUO/SJuzOUEdfONwTlnpOgogjgpF6n7l/rMusisXvfwy3OGLSCYgBPuaYZipw7eXSSy6SLpdfaq0ORg9R4Dl/JLCM6Wwj7pook0iQZrQw/tBzUkHu3Hmg+4BO1U7nnyMPPXifvPP26/LRwA/k008Gyofvvycvvfic3NK9m+U1OtD8cP5x48ZbWKG/oymz0EFGzzsWJnkRA6Je3bqaFkebAUHnIJ11RI2kBddAHsTFlR3RJn0maBpi/ftdOlwPxkjNmjVTdR6znrjXo5o0Dq3ZD+GZjBjLjIvGESTPCq4VrgmTLFQGatSoIZ06nWeThR8MFHqsA3xzDz/cSx5/4mnzDeN/pdC/+MKzcsst3cyXRW8ohfL5556Wzp07aXOrjgkSBYaIiQcefFSeeuZ5beINs6aVP5ph796D920FXSJ71JqIfCxChtIrnNmBeYLzq3XHZzhcz24tXBn5XsOxCATdl8JLgb7s0ku0MntBBn7YX3q/+5a8/dZrMuDDfvJ+/z7yyMMPyJntzzC/uL+C9MB/yfSbRKpEAkGh1YLfll7/cBh9dMP11+ozfcamG8QlhcBj0ZYqVcqEtmePu+Txxx+R0049xaIF/HhN6eF/jkjzuaQF14V7hIiPo49uZmGIjzzygE15+MYb/5MXn39G7rzjVpvNjt7/SM8AOM6fI0ZGvL+MoFxRGa3TY/ihhVGnbtCS9edjwMVwdNOmB+Q17mXy5Kk254gjc+RZwWWc9Uxtgq7WJiyze2ER0fzLLhREMiiFFX/sbbffbfG4ZEAKNsHezZsfY6NUaLp5UDhOOeUkefaZJ6VXr4ds9rFgYYi1a8Qfd9NNt8g77/Yxaxc4XvHixe3vg4XOqEAgDV+f6lGkpv/BwLXni8kXUew0FUPXk/XmNGAp3X3XbfKEihmxnliQ3vVzPpq0WLukNaKc1ixlS5cuteHIXoifh2fd/jN+vLkdwq+TZ3bRRRfI9dddY7O+pQXbtW1zgnTtep0KY9PQ2iC0vAjPGz36r4iuioygwj75pBPl1VdelGeeftxEn3MxRwGjGu9QwX1FBRj3F52XkZ4DzXncAnQAZhXiavHfhvvByfeMOiQULRzcChggNdXo8RMsU+usUzu7eeK/Rp4VXOIz8REBzeYG9ek9z/48BatXr5H3Pxwo199wk3ymTVKa4/jrTjqxrXWo0Uy7p8f98tjjT9m8oAi935Kj8BOH+s47b9j0dMRF0jQGOlXeeutd8y8CIlJHrWHHfphtrHv3mywNibNND54HA1HatTvNBj+Egz+V0U/E8YZDFMGoUWOsszEcrGZGIjIoJSMQOpr6VPIJYUO1iWFlom6iB7IqNIxCJM6VGHDENxzOSzQNQoyl72/e+8ElNmfOvNC3zMG1Dh36q3UEh2P+W7X2wzvHPKpWq2qDgsLZum2rVT6kiSNj8qzgTps2Y5/FWKZ0aZv0+GCsOV7rQVjNZm2SNmxY30Tz048HyheffyKPP/aInKRWR1xcQRPj7t3vkFdffcN8vLyuxt+bTJPrtlu7ywfvv2eWEhMde3MneIUPC6lJk5wJ1Yo2zNYUFuyRIxDwj/WaGcuf51yvbh2zBCnokSCcavw//4a+BSH9mRcZ6zYSvEbIa51kBjpC8bHi2/RDRYyPns7ArAguzfb27dtZ/osktn5wdbRp01oqpGGJ4zelAzMrEGaHNRo+mID0YFBGZW2BRG7ZkO8rWiXB4BA/dGbPm7/A/NOOjMmzgrtq1cp9GcrevZWJkT7pQScQIVTXXHOlCe2dd9xmhY/mEtZEv/felft63iPNmjWxWMmXX3lNunW7VQZ99IksWrTErCqvcHEserh79XpY3uvztnTscGaqMLNgwd8qdDJlpUAeyVxyyUU2WiutAh0OlRhDpxmmHamiJX0ZDuuHtMbyC1/vQT8APtnMVtw8Z0LkSkewiLGkGX7rr4wzgryG1ZyZFzFybmZ7q6HWfiTwH4cPwc6IMX//va+T1w8VAbHc6b3Lj2tmshj6Mfzgm1+llQ9vWMlOJ95/jTwruLGa4WJj94dvEWp1MBx1VCPp36+3DU3FH1WgQOpeeMT3zjtvk/f79ZHLVIDxL9Kb26Pn/XLTzbfIjz8Fg+6xbjwRpZl8Yts28s67b5qVzCTmCArWR6/HnjRLKysF8kgFa47Z28KD5zMCf2LlypUPCNECKjN88v4KjbTesHFTmp1JuDJwJWUWhJmOokjNekRr/boNWXq+HIc3RWf2GnBZ0ckXCaYlzEosLmKIOyHSoAkmZMKSz2j4MlE4zJoXDnOcjFPBzU4n3n+NPCu4+LGqahMHtmzZaiEoB2MtEnbTrGnTdAs9YknnWatjW1pTLr82tTDI6BHv3v12ufe+B21SDTpr/AWNKeWuufoK62325hmgN5uJndn2v27lYiUSVpdVl1BiQqK9UTnSfggIVqb/OfA3HVlppTcjvXgu+HdpVtPpGVz4+8DvDPRgwnbmeAiH8+/YGTlcLy2YEAcBz6xLI65gnMTF58w75ejDGD9+QkSrmJnxqoW5TSKBQUHoWngFuGfPbpk0ZYosWLjwP5/XMyLPCi7TDNYPxduSWZjwJFKN7jVQec4UOLYJf+h8C67JWmY4pvnR0v3mrhaZwAAEJkW++JIuNnKJOEb/uWgC45+77dZbrECxHh8wk39kNYwqFdxgJpvhOYGXQpHLjTe3btauBws3q2ILNKsRqbRuf29AWz4+weWSiTpJC1odtes2kkpVakrlqrWkbPmqUqZcFalYuYatK1ehmn2vUKm6/V6hUg3pcPb55vcMh+eL6GZFYEi7YPplHvOpHyRc419j/rboivBmP8+lRYvmNltcRlBZ1KpRw2Kl/RC5gnU7evSYA47vSE2eFVyGmNJzClgt9EiHv3SOqQmxLsnENPGmTptmokiT3isI+wpEFgqGB03As848Uz78oJ8FxJPR6Cx58aX/yfkXXGwdbF6B5xqKJBaxWF6mMAQE+QsVXK4tKwXTg8KA6KQlVgHN6LwMMychfjjFKpIDm8rMAsYovLTiQw85msSZiX/meSDM3jOhQmSd9yx5bvweqYI/HOE+/vprjIVw+SsoIBSMF6xiMJAe6S029JtBEBEm96e1MWTIz+lWeI48LLiEp+B39V6TQ4/099/9aH97IIhEFzz5ZC/zzzH65777H5KWx7WR777/MVsWRSQII7q5243yyUcfWucPzJ+/wKxXemg9ECI6HoinRCiB33n5ZHZqfq6dqfAYZRcJhCLSK0gOBnqdd+5EbA68XgocnSdZ8YM6Dj1M4MOcJJFGhDGQqFzZciaYLGyDG4y5nYlq4Dvr+c4nA4QIeQyPsiAvcg7/ZOWOA8mzgkvhJhi8WchaZGLowd9+bzNGeSBIiCEvOWQe3C6XX2I1Me8cu+rq6+WCCy+RZcuW2bqDgfPgJsCHVSvUa4ylQGbEMvJgO0LLTj75JGt+AeFL8+YtyJa1xPHoVQ8fYuqxa/euHJ88ZOuWrTZHRKTrLVyosL04k+tyHD5Mnz4zYnQCMHPZCW1PMbcKLpTyFavZZ6UqNWwd38tXrG7fcbU0btJcnn/hpYjizcsfv/jiy9A3RyTyrOACHVinqHhh5SKavMWTEV1MlO1Bc5toAcK5Xv3fy/LN15/bKCbCg/4Y9qcsXbZ8X5PoYInRJnVGvkgsWyb78GJzCScjvC28KZdZ6DQqUzryy/CwOJhgPVLmzw5YKStXrZSNGw+c9BmY1IQmZbTQp7bPp5x50q4MiE5huC6vzWfehvZnnC5ntm9nAyxYx5BavvNG2uD30+y7t7A960/XfYlOIUQqr1c+5BFmKKMPIhKIMGWFjmlC7Yhj5jsWLZ+pvwet3kjCDXSeDf7me9s+J8rbkUieFVwyMrNI0WHF3LeMd0dYmObvsceeMpeB9+DZFqEjjIaCNHBAf3mvzzsWw+kJHdv37tPPhkT6h+76oQf3u+9/kAEDP7YhkNmBa8Ed4gkurgSOm90MyGxliFyknm0EktFOOdWMI9Rq7pz5smrl/pcG+uH11IQPZRWeW3YqnOSkZHvGaaVd+BBk/kzP3cFEOTZZzaAP5ONBH1o+YQ6HQQPet3UDBwa/DxzofX/fvnsL27P+I92397tvyqWXXhQxZC0vwXv8hg0fbsKb29B5Rvlinl8nuJHJ0xYuVh0judqdfprUDRV0athRo/+Snvc+YLN8MZGyB4WPAkes4yUXXyhff/WZPHD/vRaqRQwtnV1drrhavvjyK3tflAfCNfzPkdLt5tukR48H7AWVB2M10uHkz3AZWcXpwZh/hlxGen0Oftbly1fYXLE5ARNuT5w0KdVbWj0QfGKV980/nAUIsdq8ZXOWRReLa5MKRqQKkuvBv+2viGJUgCOlkwchgfj6CVPDFcU8wiz8bYv33VsX+u5fvG2Z6IZz+QU/L0Is+NIly6IWPUCn2SeffO4ENw3ytOACBcqaPdq08eCh0mnFvKDXXt/VpkukZgUKAAJHYSCq4M47b5Vvv/lSrrzicrWYklRMx5lYd+3a3Wb5YnDDQw/3ktvvuNsmGuctvHQIpDWGPSMQFQSGZhVgAWHxxmRTdBGJ2nVq2SifSOAj5j5Ij4OBAvnLr7/LhAmTIhZO5iFoclRjcytkFSov5rLNag8281kwmiuSP5k5FhA9v+ARRVFSBZURXZEg/jYpKXJz+Ehl8DffWSxxtCDvjB03zuaPzq4b7UgmzwsuFi1xuJ5FioB5zXVGzTDpzOtvvGWT0tAB4DWdPOHFSmnZooWNBHu//3s2MxMF78effpbut9wuV151nfR/f4B1tNEh9tijD8st3W9Kd5hjeiAOU1RcvHlY6dW38fvZFFzug9eyn9Dm+NCa1HAeZn/i3kmr7MLrUr76erAsXbYstCY1DERhPoTsRChg7Xz22Zc2L0VmLR+sWybbJhQwUsFNLJKoFVFqaxsLlw5GpoCMBK/14bhZFQK2R0gON6uN6IQ/hg2P6HPF/8zcFsSZMzcI00IyD3C3bjfKrbfcbN/55Dvr+c52fL+5W1eb4pK5HiKBGwO3QrSs6sOJPC+4CCijg7BMsHbpHOMNtddcfaVZjjSrec00LgFm+rr+hm4ybNifob2DMIwXP+iZZ7aTp558zESXZj/z4iK0RYsUkbvvukNef/0Vm6WqZo3q2Q59wopjvlFP+Gl+krm9MLHsgHV5Yps2du/hIAKEwxF/zBsOshMHyTSVvMmAeYFxr4SDJcloJOaPyG4TeuzYcTYvRWbC2CioxF3je1y2bHlobWrw1zOZih8s3KJFE9OcM5ng/wULU0+8nREI9DfffmdDvHnVEx1HhwvfffuDtYDCKwrCDNtrWbjj9lvkvnt72Py/d999h9zb8265n+89g9/55Dvr7btux/f77rtH7r+vh3TremPEkZsIPK+iOpi+iyOVPC+4ySnJskfFFiuDAsVAh7Zt22hGuUde+99L1nOMECM0CCidY/do4WBY7QwttJ41g+XJbP193uunhXmGZooks4au6HKZvPLy83Lrrd3MgkNczOeajYxCRsO6ZXpHzos4IQrMa3owflzEmtFA5593bsSJTxAoRuLxOpk77+phr//JDAzi4HXUjJwbOWp0RAuZuYh5VTidkVQe2RVcxtv37tPX3paAyyUtKKD45d/XVgcVZyTrDHcPAfuRAvBxJRFBECmdGLbbVyslRDwzVi5zxvJ6fd6lRoX2uFbo9/S4L02rMa9AGpInvvjqa8vn4ZDvmTmtnqYhhgitOWbB428meGLQkX3XT/vONvqd7fjOWymIHGrS9ChzM4VD2lLG6MzNlpVLHsvbrvFsE9vr0YceC/2dJ+E9/bz5YayKJWEnTCF3ysknWnwuYWMMAa5Vq5Zs5GWLq9dYQeBzzuy58o82tYkrpdMFoX2v7/vBEJmt22yeU5pJTFTDxOPElzJ3AhmE95GNGTPWZimj8DI/K+CXZTz6yJGjTeSZzYkICiIJOMfKlSvtXfpY2xyHwv/EY4/aSB5/5052IK6X4+HXJKYy3HLgOy0B3iz874SJtiCoxNQSH8m181oafL1UPFhrpAfW26xZs/a5QMKpWrWqXH7ZxXLeuR3t/JGggJHmDAThGtICl8LcufMslI0KjYLvDfsl2H7mzNnyxZdfy3vv9TcXR1rCzPO48YbrpIU+Nz+eGwmxZc4Lbz5lP3QyMgwV8aByjdTywAJmvtv+/T+w99fhfybPrFPBnjd/vixSKxm3Fn0E/udKOuBzRpwjCTpW+cUXd943yVFGcP+EQEaa+pAOQ6YAPevM9qE1+yEvjNe8/+qrb1q6hoOLqsvll5l4ZtcQ4Po5D3Pr8jbjcHbu3CH169e3CdxJY//9Ur6+Hvyt9T3QAT5q9GgbFsy8uix8/+svbY0siDycn2smooah85ybNOKT/fjkRZ/kfab4PNhyl9PE8K700N95EuID+/Z/3+ayJQPyapIH7+9pr9sBhI1JRhjlwhtdv/rqG1myNFjQeMiIIhOXM/iA5iwCzfBb5lplXlIKpz/T4RfmXVi8VLJa9ary8IP3m3UHDDJ499337JXd+JKJ92XIL5NK06x/+53eJuz8zTGZ9vG1V19O9VK+7ELmponG+8F4szDN47SsNM6VmJgg5cuXt/ln+Tt/bH5J2csrcnZbM5moDQQkveY1s3XR2cjr6L0Rf5Ewv/WUaXLhRZfZHLHhkOm5fu96SY/q1atbNEmJksWtosO6pvAuWbzUYoHTejMuLZzOnS8QNRTMNx4O56G1g/hjjUYSbSbS4T11J5xwvDRV0apYqaIJP5USgkm89wStsBBdKhJ/OuOeorXx6CMPWkyuv0CTlqNVKM5of3ZEoSBM8csvPpHGaplnRujwOb/w4iv2uqBwSIcrrrjM8lc4nPvRXk/YFKORni+vkOp5z10muAcDnaHEul9yaZeIraMLL+gkr/7vRSt//vvlfWz/e/X1YMUbAdI7GPO7PWIep+zROconkdrMN+GP2CYPEL/fp/db2e78zjUQ3Ly87Nm1JTBoQP9Andq1SNGACmjgheeeDuzcvjHVdrt3bgksmDcz8PmngwIqEgEVGtveW7R5FLj9tlsCP/34TWD1yiWBpN1bU+3PeSaMHxN4rNdDAbWcAvqgAied1Dbw69Af922zfNmCwCMPPxDQzBOIi4sLqHUb+PefvwL/jBsduPWWbnYOzqWFMNDquJaBif+ODSTv2ZbqPAezpCRtD6xbszzw8UcfBo4//riACmuqe8zJRS3AQM8edwWmT52Q4T2QduPH/aXPplrEY9WoXj3Qtu0JARW1A35T6yegBUfTNON7USvf0vz334Yc8Pz8C+nEM+b6eY6RjsUzKl+uXKBZ0yYBrTgDp556SqDNCa0DjRs1DJQuVcp+D9+H9CYf/u9/LwbWr11+wHl379wc+OP3oXZP4fuyqOAGJk3IfJ6YNWNy4Lprr454LBXcwG233nzAPhx72ZL5gVatjrV8Gr5ffHyc5Z+tm9cesG9WF841Y9pEzevHHnAelkqVKgVGjxpm6eLf78MP+gZq1awZcZ+cWs5s3y6wbcv6VOfNC0v2HYtRguZIFa2JmYgZy22DWiw0JcI7U7A8sGbPO+8c6dnjbnn6qce1uXWGNfuuurKLPPfcU9ZJgFWCL9KzTKgNeZ0PHU6PPfG0Wqj9LRaVTi9GsBUqvL+GZLKYlFCNS83La6/7qfXx6KNPyEcff2o9/ByX2fPvv6+nNvkaH7Rl64dj8e4p/Nbc4wVq5ed0Dc71MwUfVi1vtGB0VmassfRg0Ao92/gNwztZsMawwgiaTw8s0GNbtrRrYsi39/wiQToRa9u16w3Ws07sbfhzoGVEvDGvC8fN9McfweYtVi2Wf7jvkf1Ji5tuukEu7HS+HTMvwnWTf+fPjxyWxTwINLVzIt+QJrhJaOlFAhcb7itaHJQzx2HQaQa1a9eWFs2bW2Gl82XS5Mn21tTwZicZgGZGo0YN5OqrusjDD90vzzz1hPWyXqTNUF6V4vfZER729eBv5OlnnpNX/ve6vfKZeF7yBgH+zIlAOJQH/uEdoaYTQrFw4WL59NPPZegvv1ooDJENLVs2tzdH4NvlesIL+sHC8SjsDDu9V89DzzFNXO77YKGJfsnFna0H+qorL7dBJwcrtoCg8g64nvoc2rU7NU1fcFrwPrlzz+loPeUMgonUIRYO6USYHyF+Dz90n3VeRupRzwz4mhn+e++999jLLbMbMpjbIGqUCfoY0ooGof8DH3JOPFfgWeJLJ43CQfCZQcyLSXccBp1mgKVJoZ01a7ZZtviLdu7YaeFbWLXheMJL7yqhTAxJJYN54kcH0chRo+yljwMHfizDh48wvysZBL8lY+p5a2qHDu2td9bbj06Yn4f+YlYQmZtr4lj8XLp0GTlfrWtmFTtTLevc9h1xf/ho6amvVauGpkM1OyeWeVrj5iPB8Gks8rM7nGkveGT46/GtWqnlkvlJaki39DrN6JC8/PJLrQOlWtVqUlytdKweOtEi+RiB58Uou5PUemJfJiZqffzx5o/OCoQONmrYUGrUqCYVLB46VrZt35ah1YUFjTC1Pv44ufiiC+WqK7rYMHNvgvlIBNNhtb0dhNArOta8JSEh0aYb7XT+uTZiLTNpS4cnryFnEEFhbWkFj5VgIsfzoeOYuSE8uB/m7aC1xXVQMbEt+xYKTTx0yy03W59DTlTQ3AMLrb4pU6faNKqJiUX2nZPrZdAF5cHfqqRDGys8KSk5dE+FbB9bvO96n4kcR1tH++99//3Tagqu977vP2d8fCHrn6E85sR95iR5vtPMgwI9YOBH5mwn7pbOIJrWXbteb3G1fss1LbBKEUtiBLFKGfZI7zOQObGCzjj9dJtekQfGw/OgqUav6iOPPGY9wMDv1VXomjZros3lltYRR4dIZoUqp6Cg09lHONWMmbOs44r0omlMlAYCw1sLSCOsPNwkdDogKFhrderUUuFubH9nxwokXdPrNGNo8nfffm0VA0K6atUq+Wf8BJkxfaYs0u3Xrl1rBZP7YAQZz5aOFqIREJWGDRqYcB4siBHuKKI8li5dbt83qiVITz7CT+GkoFMhlC9X1jqVEKeGWiFlZpY0IlVWrV5lr3APH47MvsX1HpikPrOVGVYqEQrEivvrBvaN1+dUp25ty/sepB9xt7/88pu9aojBNuyGELNQCXQ8u4MZFTll4XJOhJawQt79h6hyZ3tDF0y56dixg729xSujpD9RJHSIc2NsGUwO/uNag9+9zrDQoYzgZvu3C361tXaPwDVVr17VIjgyowvR5LARXBITMXn99bfks8++sBhJRLJ161ZmlZ3Q+ngroJF8ezwA/LSjNVP8PPQ3i6Ncv57JmAPmBsDCO/mktloTt5eWKrqR3ixLr/4AtYiff/EV3Xe9WV+8xpoIBnye+MXywsMlnbByCR9bt3a9ptMWGxadrBmfmNr4uPig4GqhZ0BF8WLFVWgO7rqzIrj+52MhfNqyQHC3bwsKLs8DP3VZvTbesRXpeR4spJEXqYEraPuO7TZRDoKLRYXLhhGKWNM5JUwOBxw2ggs0Awnqf/2Nt7UW/9VEF5HDEqG5hy+zSpUqFjLD65wp0BvV8luyZInFpf6hFuqixUus1gVcEq1VqDtoc/qkE9uaAEUqYByHuEDCbLCM2Yawk+effzpi4Pd/jewKrsPxX+OwElyg+YfoEptI0wlLDhBBekyxcmkqY8kRJ8hkNMQz+sfx83vz5kebS4JmB/7P8Pfte2B1EaxPbO6AAR9ZrCi+OMaU97jnzmx3xBxJOMF1ODLHYSe4gMWJH4j3hTEQgCGEmX3VDKJ8+WWXytVXX2GdKWm9vgZw6s+fP98iEQZ9/Gmo86KwTUbdq9fDEYeW/hdxgutwZI7D0kGFn48RY4QZPf74I3LdtVdZ2A6+2EoVK5gPlncv4Ytj3Le/Z5uJagh/wtplqDAWbDgICEMDhw//U9548x3p2/8DE1usWcKbunS5zImtw+HIMoelhesnKJxJNhUdwzEXLlxoY+UZa838A4ROMZHGTz/9bJ0kbI8Yn3bqqRaNwHBLOmni4uMloOJLnC8hYhMnTpYhP/9sYTn0YCO2+Gtv6nqDhSmlZxn/13AWrsOROQ57wc0MzLXw7LMvync//GiWKgIBFH78sdVrVLOONtYTTrVw0SIbFOH5fIlVxbK9+qor5IILzosY5P1fxgmuw5E5/hOCC4RKERDORN0MoMAK9oQ3LfDX4n5o1epY6XLZpfZKdmfZHogTXIcjc/xnBNdj9hw6276WYcP/tGG8zEpEuFlKSrIFWucvkN9GbGHFNmxQX84552wbzUPImCMyCC6v4r762uttti+LTg/lKj7q1K4lH380wEZ7OcF1/Jf5zwmuBwHvTMM3c9Yse3kiwktoGf5c5lxoctRRapHVTDXazBEZ4pqpvPr1/0BbDuts+CxTQRqau8pXKCc33ni9DSZwAwkc/2X+s4LrcDgc0caZGw6HwxElnOA6HA5HlHCC63A4HFHCCa7D4XBECSe4DofDESWc4DocDkeUcILrcDgcUcIJrsPhcEQJJ7gOh8MRJZzgOhwOR5RwgutwOBxRwgmuw+FwRAknuA6HwxElnOA6HA5HlHCC63A4HFHCCa7D4XBECSe4DofDESWc4DocDkeUcILrcDgcUcIJrsPhcEQJJ7gOh8MRJZzgOhwOR5RwgutwOBxRwgmuw+FwRAknuA6HwxElnOA6HA5HlHCC63A4HFHCCa7D4XBECSe4DofDESWc4DocDkeUcILrcDgcUcIJrsPhcEQJJ7gOh8MRJZzgOhwOR5RwgutwOBxRwgmuw+FwRAknuA6HwxElnOA6HA5HlHCC63A4HFHCCa7D4XBECSe4DofDESWc4DocDkeUcILrcDgcUcIJrsPhcEQJJ7gOh8MRJZzgOhwOR5RwgutwOBxRwgmuw+FwRAknuA6HwxElnOA6HA5HlHCC63A4HFHCCa7D4XBECSe4DofDESWc4DocDkeUOEIEN6D/vGXv/r9Zb4vD4XAcemL2Ju84/BTJRDUl+Lk3SSRlt0jyDl12Br/nL6QbxYjExonEldC/tV6J0e/5Yvf/7XA4HFHm8BFcxDVFxXTvLpFdG0S2LdHP9bqs0XXbRfZs1mVLUHwLFtEdVFgLFBZJqKx3majCW1wkUf8uVFYFWb/HFtT1zqPicDiiR94XXCxZLNedKqxbF4lsXyyyZa7ErJus35eq4K5UYWW74OYRyVdShbeiBEo1VtGtLVKsrkjx+iLxpVV8VZTN8nU4HI7cJe8KLj7YFBXaHSqoG6aLrB2rIjtBRXauWrRqzQZCboF8uAp0yY+rILhqHykcI7SgyBi0e/S/4vUkUO4EkdLNRUo2ESlc3gmvw+HIdfKm4O5NFtm9QWT9FJGVwyRmxZ8qtPNUENXazaeCWVCXOBXHuNDfiG1+VdtwwU0Oie2evcFll+7PYmKuS2JNFd62IuXbqPgercJbIehqcDgcjlwg7wkuPlhcB8t/k5jFP4hsnhb028aqqCbk37+Y2Kro6oeR1l0gwvyWpP/tVrHdqWK+XZetuqSoCLO+mFq81c4RqXxG0N1QIMF2dTgcjpwkbwkuvtqN00Xmfy4xS39Sa3RV0HpNLKBCqJZnogotFm2sqmh2rtoTX6zdHSq4m/fokqTn1e8FSkqgbGuR2peJlDtOvxfR7T01dzgcjoMn7whu0naRteNEZvWXmFUj1frU74XUgi0ZJ1JcBRcXQk6HcyWpxbtJBXe9WtU7cDWooJdsIoG6VwWt3fiSTnQdDkeOkTcEFzfC8l9FZrwrMesn6goVwSIqsmVUbIuoCOK3zS326u3vVLFds0vFVy1erN0SjSXQ4EaRqh3Uoi7mRNfhcOQIh15JiK9d96+KbR+JWTNev6vYllChrVQ46EbITbEFIhzwCVfW81WID1rSG6dJzOy+Ist+CVreNmrN4XA4Do5DK7gI2fZVIlPfULEdpyuwLlVsy6nw4U6IJgU0KUrrecuGRHfdVJH5X4qsn6TXmRzayOFwOLLPoRXc5G0iU16UGHy3os36UmrRYmVGW2w96KArpYJfWpe4fBKzcoTI3I+CURPOynU4HAfJoRNcBGzBYIlZ9ZfInq1BXy2WbfwhElsPLF066oqq+MfulZgVf6il+4Ve4xYnukcYAX2ekRaHI7c4dILLqLEFn4tsX6oip9/L5AGx9YjH0lXBLayVQMpGkY1jg66FbMWiOfIqiOumTZtl+fIVsnTpMtm4caMkJzv3kSP3OHSCS4fU1vma65OCvlNibdO7mhgVu9jQki+bwpdq//SOERO8HtwLuBmW/y2y8GuRJLVyHUcEe/fulb//Hid33d1TTmhzirQ4trXc1O1W+fPPkbJjx87QVg5HzhLb69GHHgv9HT3WTRSZ95HEbFkoUkwFDVcCI8fSiLNlFO7Gzfll/rI4Wbo6TnbszCfxBfdKgQKIZuZic7fuyCezFhXS/QvKNv07IT4g+dWATXNvohf4cddeidmjVk/MXrV8y4mUaBD83XFYs2rVKrm7x33y409DZOOmTSqyO2T+/Pmat3ZJrVo1pXz5cpIvtyNkHP85oh+HyzwJ098Qmd1XYnauFalaWKQk/tLImTs5RWTO0ngZ8ndRGTcjQbap2FYrv0fOPHaLtG+1ReJMdNNn45ZY+WJ4CfllXBHZsSuflCuZJOe22SwnH71NiiempD2eAn/eut0iK9XiSYqVQM1LRI59RqQA8+3mHlu2bJWZM2fK3HnzZffu3Xp9wbQpU6a0NGvWRKpUrmzfw8Fq27R5swwe/J3us/+mkpL2yDHHHC1NjmoscXFqtTtk2LA/zbqdMnVaaE0Q0vfenvfIeed2lEKFcvc5Hwqmz5ghkydPlZ1asfjzSEYEAhg4BaR69WpydLNmUqRIYugXR1aIvuBunisy/jGJWTVCpLCqaSXN1MTBRnr42vRfuqaAfPVHCRXcYrJle9DHWyB/QBrW2CXXn7NWWjbcriZwZLFGLxlM9u3I4tLv+9K6fz4JhGzaCqWTpOflq6R53R1SEB9yWjAEGMHdtEcCpY4RadpTr/n00I+5w8JFi+Sdd/vIl18Olm3b9P5CNG1ylNxzz51yZvt2oTWpSUlJkdlz5srJp5wRWhMEX+XN3W6Uu++6XYoXLx5a+9/m3wkTpVu3W+3TD2lsgnveOVK48JEnuG+9/a7mrfdkzRo1drJI4cKF5Yx2p8lDD94n1apVDa11ZIXot5k2zdFllpquu4KRCUxA4weVZLQXE8vEBmTN5vyyYEWcbFfLFk1mSUqJMSGeOE8LhIpveiQnxcjkuYVks4o1Ymu6rsuilQVlyaqCsmsPIhwiKXReP3TkMYcD58YFsvrv0A+5x969AdmzJ0kt3S2ybt26fctm/Z6SQacOouvfh2X9+vVqKWuFEd2qNU9To0Z1adCgviQm7p+oqKDWvM2ObioNGzXQloC2uo5AkpKSrXMwPI9kZtm0aaO1uFwkR/aJruCmqMhuVsENbNPcrQpGvC0T0XjWLULLENtFatUt36Ft6yQVHxUgnq9uwmdScoy5GXbvidG/M758b9rcPbof+5NXWMVxwP5HZNfqeZfoeZfqeRnia3PoKlwf14nwJm0V2cqbJjYFf8slSI58+p/nSvDgWjNqBqb1a1aaj/8FihYpKrfe0k0eeOA+ueTiztL5wk5y/309pOuN10ud2rWOWP9tMF9lLy/onsF0cXkp20Q3V+3cYBZuTJKKGyFXWLfes0PfmDKRiWQQvPXBpVLibqldeY8+6ICULposl7fbIPd3WS1d2m2U4xrwHrP0H35BtYBPPmabXHf2OnnwylVyYjMVTaV6hT1SuUySWjVq9zJdI77ajXrODbrwuUdVnUNzXVxnIb1e3j6xfbn+PsOO4Th8iY3NJ02bNpFrr75CHlTRffih++XGG66To5s1Nd+tq6AOJFlbT2bhYgU5skV0fbi8uWHsvcE3N5RREStXSMUsVGNyFetUiPGXMpkMUQKlCkpS2cIyY02CjJyYKImF9srpLbdKsYQUcwUUjk+RhHgefuTC4bV88N3uSsonCYVSZPbiePllXFGpX223tG2yVUoWS5F8G5k8R8Wb83ItzE5WsXDQlcAxsHaxvHWbQGJNkUbdRepdHTx4LrBg4UJ58813ZOCgT8wd4NGyRXPp9ehD0qHDmaE1qcGdMHPmLGnSrGVozX7wS9537z1SooTz4fqheUy6AdbbkR6Z8Prrb8kLL70iK1asDK0RKVasmLRrd6oc27KlFE7QfB/BZcAaOs1q1qguxx3bUooU4b2BjqwSXcFdPUbkr1slZttSkcoqtl6cK3AVTA6+VJv1zFHLfAbl422Y7c6UWNm0NVatEqzclODkXaGrzowhsi//xARk1+58snZTfhPtxMJ7g8ERu/S8i1VwOW8BPSDzKTBTmd+/jOWNyyFfcQnU6SLSolfoh5wnWoK7cOEimT5zpmwPdcwhPlh3tWvVkpo1q6fqpceymTt3nvXqx8YG04XtEwoXlhNOaC0lS/J25MjMmzdffv9juMyZM0dWrFxlx+I6alSrJlWrVZX4uHh9nPuzIcelQDeoX896xcNFkI7EKVOnysiRo2XRokWydp2mke5evkI5qVWzhlSuXNkiNvxwTKI8WjRvLkWLFrG0GvP3WFmp18NvwD6VKlaUhg3r6/2UtPOyDnGaNm26RYCQ3eLj46V27VpSp05tbSEVlO3bd+i1jJJhw0fIkiVLJCkpSUqVLqXnOkY6nt1BypUrmykhJ51G/zVGpkyZaum0x9KphD6PmlKxUkU7r3etHviaGzZsKHX1WjJDJMGtWLGC3HH7rdK58wVSongx35PwoSux+gvq+eLj4lLdD2m5Zu1afcbDZOb0WbJi1UrZoWnCc65QoYLmpRpy8slt5ajGje0eMgvpSn7+W5/TnLlzZfXqNWplJ0tRzRv16tWT0047xcpEeixavNjirceMGSsbNm6QXTt3SWKRRGncqJHm2+M1j9W3iItoVbTRFdylP4uMv1tidqwTqaI1aYmwcDCcrEQFYGkixIW1YKsFHPAsYCUzApsRXp7dd6x959VCimXNeYkL5m8PJivHv7ungARqXChywquhH3IeBPcNFdxBgz5Wwd0QWpvzgvvNN99Jn779bZRVkIAJzaWXXCwXXnC+lC1bJrReZOPGTfLZ519YRRDjZU5NyGoqms8996RlYD8IwzoVwo8/+VSGDv3VQtw2bNigYrlNkpNTrOAV18JdrGgxic3vq9hA961StYpcf+3Vcu65Hc2ygl27dsv06TPkiy+/kpGj/pKlS5aaCBJDC3SAEYVRtGjRA4SJYzZr1tTSjw6zPXv2yD097pe/VOBSQuLMPied1Fauv+4ai1agYmHk2XAV0jffflfm6z2guJyjY4cOcs01V8jateukX78PZOTov2SxFu7Nm7eYSFNZVahQXhqpGN5z9x1y7LEtTJzD4ZwLFiyU73/4Sf4YNtwqtTVr1uxLJ47DMyuSmCj58+c/QAyp6HCFXNHlstCa9IkkuFUqV5J77+0hl116car8EQnP1cJ1k+4TJkyUb779XmbNnmOV37q162WrXjuVDvkxUa+7hKZX1WpVtPI5y64TEU5P4EjzCRMnWZQOYstIQMs727frefdqOsZJqVIlpU7t2nJ861ZykVYUzZo2Ce0dvDbO/a1e18CPPrHntkyPsXPnTjs2z6FsmTIWadGmTWvL640aNYxKyGT0Bj4Qf7vmH5G1w1XltXnO1Iv4Rf0Kyt/mL9WFTipEV9exBT/5Nz0YDjgWX7zzsjCfgl9sgQiGbXoPagRLMbUmmKA8l146SSD+uHHjzdIhk3hUUivn5JNONMsqEmQ0RI6QsnCwQtvoUqjQfgsDC49MOVsLy1q1UBCPXbt2qUg0MHHyNxu3a2b/U624L774KrRtcPt8WmGe0/Fssww9EBwGFjz3/IsycODHVngoMBzbszzJ+IjKOrXg9x9v/3FRlhbNjzY/K8JHOowZM0Zeff3Nfde8ZetWE07um4VIDASPkKdIx8Qy6nBWeymt1ie99f36va9pMM4sJ2+b8uXKmThWrlTJRIGCO1Wt+q+//kamz5hp2xAnjWWJBdanT1/5/sch1lrgGrk/rgXB2bBho1mte/Rv4qCxrP1Cw3ZUIG/r8/LSievwpxPH2ar3STphRaa+p+C2zdWSbnXcsbZ9Rowd+49Z0Vu3bgut0eysFRTC0/ioRlI45L9Oa/FYtny5vKbi3e/9D+WXX36zFgB5DxHm2XJvwPMh2oZKfc6cuXrN66VBg3rmxvAfz4OKffA335rB8dOQn03IN2l58KIjOCzHJ02WLF0q8+cvMKE89ZSTbH+2IV+9/U5vTdf3ZLRWhDxf9udZ8jv7E/Fj16QVHFEb5N+yZcvua73lFmlXMzkNgsvQWDISPf/hguaH31jCNiGYYMfuGNmxK8YOY6UyM+hx2H77rnyyS/cP5eUDSeO8BpnDW88cvtxPlEnRBEBUGHpKgQlfaGrv2Bm09jKDFaLQ3/vhPn33mgn8m5KhEaQ+ffqphf6JxRR74oFlUapUKbOcExIKq/ikfRJcDN7TpYBMnTpd+vX/UH7++RcttCrICtdPbCjHQ0QzCuWyAuvLM5EKvN1+2M1bOvm2RVQQrne0UP+s1juCkBYU8p+HDDVh9SoHDwT0c63ABg/+1pq+3CeQTliuuECw2iNepw//MbMHx0//HOFQAWPdjh49xloZmQGB435/+mmoiVw4CPNXgwfLq6+9Ib//PswEPCMSCheSunWDBgjhlMyN0f/9AfLmW+/KpEmT96Up0EIgj/hdYqtXr9bWxY/y7Xc/qCW9PAfSMn2iJ7hk9EBK8LGSgThzlp5xQNZvjZWRkxNl6NiiMntJnGzdQWytHpd5FsJhna0PyIYtsTJ9Ybx8O7KYjJ2RYKKd5XS1PMl/umOKmrm8fy3KEAv5+x9/yICBg2TAgAOXgYM+ku804xxKEBisuvc/HCgbfIWKTH7iiW0s9OqJxx+1pmX58uVTiQkFApGpVbOm1KxRQ4qrFQRYraPUUvnl19+soAP7sS3hXBzvoQfvlzPPbG/H8IP1U61qVWsV0ISM0+bowYLVuXzFCrO+qEwQRdwHWEnFihUNbbUfrFPcEoiBV6A5xr//TjRhwQLzSEhIsJYIg1QefeQhueyyS8yP7cdLp7p16lhaZeQGyIi9akDs2LFdNuv1IYS0RvwLbi2uHSvRo0zp0nL66adZ+gKWO77q+vXqmu+6RYvmUrVqlQMsRvokvv/+x1S+cyDf/D12nHz6yec2Eo708eDYWMR02NWrW8fSg3TGrUD6nKWtFmBE5a+//S5vvfWOLF68JNXxabGcfPKJcu6551j6UvF7eY/7Y4g3z8N/3twgde7MTUxkQ6cjHbxlf3lLH91u/Zb8Jrizl8RLzYq7pVmdndK45k4bqluk8F4pVFAtqViV4JQY2bk7n82ZsGpdARk/u7BMnldY5i2LkxObbpO6VXZJ4fjkrOq9D+/iowsFk5r4Ny2kadXEe9QCzi0yk15YFJMmT/b5hYM0bNhAut5wvZx22slmlbZt00ab4Lvku+9/sMIMWB+4TOgMYfhy/fr1rMDinpg8ZUoqfzbujlNOPsliaY86qrFZj40bN5IlS5bKRG2ae9CMv+aaK83fhyiWUWs4Pf9hVrChriribdu20WutK7H5YmXGrFny2WdfWGvDz8hRo+WG66/Z5xfHHz1u3D9q2S5JZYUxtPi6666WdqefKoVVfPHpFixQUD7QCsyrbBD4k05sKxd0Ok8KFSosDRrWt/XZhePiWqH1ZB2l5C0etn6Qy6hUSpUsKa2OP04aNgieCz/2qaeeLK11Hc1y1p+o14S1WVivif2XLF5qvm9cCQgqcCy+00/BnBVexywtIVxFE9Uq9bYF0pjtTtc8gVuGvIMljCjjVrjyyi52beyzQitBXF7z5i8I7R0E/+5VV3WRpk2aWAcZrp4vvvza/Ob4y4FrGjN2rBx7XAupWqWKrcsNomfh5iugqVdUAmR2OqlYsoo+xN178sniVQVl1JRE+fyPEvLBT6Xkq2ElZPi/iTJ2eoJMUHH9Wz//GF9EvvmzhPT7sbQMHlHC1i1fW9AGQPiMqsxDJrRr1p1jiWDI3bCY4CWmvlAsDDoQyBwUxEjL4iVLQlvnMJlMM6/5Hw4+xtatW5mlglWEH+/MM88wn6kH+zJpzOmnnWpWC51biCMuBAqvH6zf1q2PNx8vx0OA6VRsf0bqYdcIWz0Vw06dzpVTTjnJ/JUZNdEzA0KAhUmH1R233yLXXnu1CvtV9j1SzzkdYzt37bJsBFQQWGHbtgXjwj2Yp6BtmxPUgi1jESBYjCfofdKx5RG0qhPNoj/vvI6ZjlBIC3yeI0eMkr793pe3VSDN//m2Lnzq8s47feRTrUTwm3tQEdJy6H5zN+l64w3ywP09tUK5Vi7qfKGcffZZcnaHs0wMz1OLMjyEbKve85w588wH7zF+/ASLJMCH60GsNBEOdObdcsvNcrlasxdfdKG1jm69tZt0736TWb2AT37a9JnaEhpj3z3Ib7fr87nm6ivNwsXyPl0rs6v02pof00wFPCj4PA9cEPPnpRbrnCZ6ghujTYuC2vThk7hW3HqW7z0hUzIoB8UTUqRSmT0mmIFAjKxQ63XMtET5blRxGfRLKen7Q2np+00Zmzfho19KyrejipnQrt2Y34IhCsXvlbIlkiW+0F7JF8kNEY4nslwX15vM3/olluiK3O/RPBzBj0ZnTjg0exk66xc7mnk0oT2wsLA+dvg6CmGPNhXpHPKD4CG6/iZrgQL5D+hQxApavWpNKqspJ8DSonPt4os7m4WNlUXUBVZ5GxXMcKxDzTdsnBYK94Vf3g/Wq38OByocrPQSvrA7WgZ0WiGUOQHRELg9qAAWLFyUaqEzEP8y1mP4+biu9u1Pl+uvv1rF7CRzc6xdt05mzZ5toVhEGOTPTzhnapnhOdNqIUQLSJtZM2elipyA+PhCmsYt5cILO5krwYvyIMKlXt26cmzLFvvyE/mDCB18sn6qV68qjRo1sI5o7m/RosXW2ZZgbqAKqcLULJphWeqWWU4TPcEFrMKAJhqCS68/ryZnVBejvBhdRjhYmpZvjJQskiK1Ku+2ARBs5UUTrd8WK7OWxcmEuYVl3KwEmTi/sMxdESertwSFljJJvi5TPFlqVNytD06/eAXfO91+HdAcqL8TkcCoM+Jvic8lRphrzqdCq5b6oYDCRxOMjI7VkNZyKOEaycjh4A5BSP2ukLXr1prV54cQsVhaQT64J3xufrBI1m/YYJaNB6IaaVIWfJ45YdX6ofLAPRA+GVABPVclrUjCsfP7LoGKgnApzwfqQYej3x2BINOjTkXkQRoX1AonvU7HHEevPzwNuQ4qTIZJ4/8kzPCDDwbIm2++K8+/+LI89fRzFt1Bh64fWjKEeHmuFPzEK1etPqCiJRQOC5/Y6vQgT+EWoXIIB5/soI8+ld69+8q7vd+zpXefvtahO2vWbBN/D+K5EebcJMqCW0xzf0n9QxUQQWNUGSO8VujCJ9+Jd0XwTPRU6Dao4CHKO5IlLnav1FHBbVZnhxmfFN0YtVTL5wtI6wJ7pWHBFCmkn1Xz75VTdamj6wP6O9vm178b19gpdaqo4CLUe/T4W0LHR+wRfyqC3fqJyHrX5C1cA7/HaQFLyD0fT3rQE49vj+bR1Vd1OWChmcQsV7kCiZ0JEKK2bU84IMB9/Ph/ZdzY8WYBMTEP4Ty//z58nw8N8OHS5A8XITqjsBwp4B4UjFGjRsvkyVPM8sLqw69HiJIfrE4sL/++GZOJm9VNEHgvAsOD88THZ9z6IX3wOYcPGCEEbey4fyyCAV/l7Dlz5K+//k7lEye0r0LFCvssvoOFayZ2uUL5YMdfxbAF33dprfAKhZ4pAseCi2vmzNnyyaefyYsv/096PfakvPbaWypwn8iPPw6RESNHyQy1Oqkc/bBvslaUXtrhRsC9sHdv6lYIHWNUauH5IRyOR+SOv/PRA1fOR3o9/fp/sG/p2/cD62Cmr8EfdomV7Bfg3CC6ghunVkrRWqp+moBbVewQul2a6KQ71i1Ct0otHj6xepdpYixRsWP0GWK8NVkql95j89iWLpYs+XSXGprzO+XbK930y+X6WVe/n6+ft8amyJW67piQ4JYvnaT7bbXP/Mx+wzkQ0mV6bO/4iCqT2KzWBavWZg/TnakcmG9BTZRAfNlDNgk5hYFBCYz7Z4q88OXBB+61jpncIjOaizVJU4+IBD8UvD7v9ZP+/T+0wRDEWf7ww0+pLDc6yupqU7FoWE8/he6441paM9IDkR3+50h546235cMBg7SQf6zHfNtiTP0wN0JdbY6GRy+kid5k+H3yXXNR8EsmQAAyAlFu1eo4adyoocW+ejBdpIlCv/ftvt5+p4/88ONPFormweAU/MR+d8zBYJERbVrLtddeJd263Sjdbroh1XJT1xvMd1pXrU0PxGnixMny+htvyVNPPWcdXsQpr1i50ioKrFdGyeGLzu9z+3gELf6gxbxLhZtRdf50oxLAbYMfOyNMwPV8RFqEgw+fPEaH6/5lvX0i0uEVZpgRn+NET3CJXWXyF/y4PAD8oYiZ9/JIG3Wmd4uwIXgILxYuli7WKGK4eqckpOwxC7d9iy1SNyFZztLEvkAFto7ueoKK60X691m6lNdTnqhWbVf9u3GRZGnXcqu0aLDDrGRzFSCsCCnXgOhj6WLVrtXP3fqdARC8Z43rYrivlxfy6zqW3bnb9IhE/gL5zZ1QunRpKVeu3AELwoQvMbfITF6kIGGJ33Xn7SYKnmVJoRj+5wh59rkX5e577pX3GOG2bNm+DM8+7du3M+uYprYfLJzjVZwQBHqsPQhhYjTSQw/3knvve9BGPPmtqRrVq5mPldCpTAturrI/BUknhux26nSeDTLxWgQIKyFkzz33kjzy6OM22pDICw8sUdLipJNO3NfDf7CQp0479WS5uVtXufOO2w5Y7r7rDov0YKg1YNljOTLAZqBeH8/RCxnjmpo0OUrOPeds6XrDddLp/HOliF5zeuCGCT6f/elDfkGIWTImxvzEkSx+8hIVOSFqGS1UzJSt3CQ6gkvcKqPMFnysluUktRxDiYiIMeIMwa2itTVzK+CX2qXCjMgysQ2ChyjzMLYkS4xaxRVKJcn5bTZLF11aV9otCQV0Wz1WvG5ykopssLgG9EHuldoVd0vXEzbJJadulOJFUiQfQ3gRb0TWXhap5+T4PGuEloqAob3Mp1BJa9fQK9OD6G/btGm34KvgO842zdVVQcGICp7op0NmrKv0MMMj9Hd2QEjo0EIUOnQ4y3yVHua7U8uUMDCaclwrhYT42M4XXiBXXXmF1K8XDAXzwzGJXjjl5BNtVJUH+1PQ8XsSq4vYsi2WEUM1vZ7tSIMHwr7ux+7/YFIgbTiq/7xEGtBzzj3hr/TA70g6cV9Ykv50Ov+8c+QmtToR65wiX0w+q9QKFS6k1m5hS6/whTT1Ki3SmjdmUMH5m+SEXBHS94i2wHq/+6Y8/fTjVuEh6OHp76dY8WIqykVSPXfuGUuZ2PNwl0Q4HJoKC2s6HET0hhuuldtv7S6335bGor/dpstdWrlEijDJSXJXcCn8LMyBO/FxiZn+msRsUMFN9iUgwoqViRXJhDFFET/9mytjti5Ej5m7EEG225FiLoEqFfbIqR3WS7VO60SabZeYGrskRtfFltdjV9KCV3O35GuyQwp13CAtzlkvJRBbFIspIHFf8DcWLMevoJYCk+VwrYg8r/zxLG4E2KepMdsWSczs/hIz8TltJ/dWizx1z+rhBBl837wIIfCvUshTcLuEIPPT2++fSCct2BZhnaHNSwZpeNEBDGSgeV9Pm6VM/IJ7AKE5++yzQlbU7XLMMc3MBxwOx6RZOP7fCTbcGbCksLiIW2X+Wo7JhOLHH3+cNX8fffgBe8sFohapsPOoDzVUFoTyzZs/X7arZUtrAGsM3y73RJpxjy1bNtfKq73cefut8uijD1ngfnildHAE3W6ZqdBh9Zo18vuw4ancHEQjIG7MVUFUAS0u7iczHXslS5TQpaR1BPqhwpk7d/4BMd1AnqB1xCfPl4qiSpUDXz1FXmS+4zvuuNUs9UjLXZr3yH9du15vFXVukruCC7gR5gyQmM1Tgn/zOh3EM39IVOkk85r2iF5JFV2a84gd3/lkXoUi+jD0w6zfjWoxa+6IIbyr8Q6JvWyt5L9ijcSqsMZ22Cix5+rn5Wsk/1VrJAYx9t4KQYcY58I3y3y8XAsZwuZt4Hp0wdpFbJkgHffGJj0X59SvZumyH9snb9KcN0JkxR96KVG0cnMQev+xRv1gVRCMT6FCEBBghliOGDHS3mibGRDn/736uowa9ZcVCiwjmqQvvvicFsgHLWbzUf18/dWX5P1+vS2OFcFMS0QoNBMnTTKfJj3LFDDiL3v0uEteful5eTDkv37y8V7y7jtvSH895kUquohyepbVoQShWLZsuXw06BPrFEO8EJ5LL7tYnn7qcbune3veLY8//qi89car0rfPOyYaXtxpzpP5GminXutyvXZ/qF1sbH6pXq2aDTLg3liwTIkbz8hCxU1Ckx5L1w9pQmfrsOF/aqtok+aDFDun11LCrYEREPT3JlhlHv5aJHzijCKjQ439vGtj4VgYF+RXrpF1uU3uCy7m4fLfVOw00RHSagnBBWsW8aJpj7+WiAFuGGEthrhqQUGECRPD6iyq6xA6LGJEGvEMNtIkRn+KKZ8k+Zqq+LbYJrEqwvn0OyG/MXuD29hxNquA4hcGjoeA8jOuBM7F9fHK9vjQdW3aHdweIeaayuvD5KWXuEA4dsoWVZdFemw9bq6g15SL0Cvt77ABMuGkiZPlp59+thm5xo4dJ59/8aW80/s9mTRZK80MQGAZqPDlV4NDa7BG482/3LhRAzn3nI5qcVxkAfFNmzZVMS5gnRdkfJrS4Z0YgPBPmzbDYjsBAS9eorg1sVu2bGHB9hdf1NkGUtSsUdOOR4gR+3mFLGvkXrp7l8J9EoEwUdN0c2guAvzYCCrNWqZKvOKKy6XDWWfa9Is0mfen0/4e/kMBtxB+fr4jaswZwfNftWq1jV77+ONPLQoho2fAlJhMC+o3AMiLM2fNMj8x+YkJcpimkXMwh8WLL71ibg3yjWdhN9M8Fc4zz75gHbUWp6uGBOlNtMzChQstkoJjMKiDvJLbRGG2MH0wWLhJG4MCV1yFFssS3y2zcvEc8KsienxHVPnku/lx9TuCawKs3z1rGBFM0N/4NPQz4FtMSUPwsDnHahVQPjkHc+3aWxz0NzrKCAvDui6u18V5iJLgrRMchvWIrbkZQtfGdcSo+JZoIlL2eF2vx8ohCHkaG2m2sIqZmS1snb0kMJxIs4VhWQz5eahZCv4CwTH+nTDBRh8NGTLUhkASxoW1iBXq3xaRYIgp4UNAwWOYJr3sHuZb1efEbhTEhYsJql+4b2H71bqeWEqOjaCauyNknXpzKfypVjZwDsTU3v2WtMeanAsW7T8eCwHu69Uyp9MFC4hBEXx6x6SQfvnV1zYM1H8/jB5jntTKlYOzhXGuuXPmWkcWoVoe9J7jzmBYrz8EDpGgt55C7Achwcpn/giOS+GmAhs+7E8r/OBVEiwMHlm0ZPH+e1rAAARNJ+KZ1fLjmukoIq2yYsWnNVsY+YP5ajPTEYe1Oe6f8TZnhpd2pBNx0VQiCC6z3b3wwku2HWnth2fL9Jec0+vkxQWxccNGE0VaWR5YtXQaMgptqgruJG3pEHLG3CE2RefSpTbMmXkccB8xeRNDpklDD8oQ97xK044pPRnQ8ffYsTanA2WFUXR0rjVu3NAiNnKzVRQFwdUHsny4xOxYokIVEkv8tQhootZmWJU8M8LEsCoRWCxfbx3ihuCyHQmB/5V1uAUK6DpvfXrgh+WNDVisCDQdYrzVAehAI0QM9wU+XT2VfWc900OybVnNhFwXFQCW+Ho9FsIdV0Kk4in6e8uMryELpDk9Yw4LLh0lEyZM0tp9tp5H78kHIkkBQgywqui0IZ6Vzh3mO/UIF1yugekIBwz4KFWmZzgy8+L++utvZj0TEuYtiDqWBkMrFy1h0hHiZ4vbtZL5g5bObC1go8y6A6ZGZLYqjsUxKYSpjqkVCdNPYg2tXLVKr7uIDfP0BCpNwVUrKVxwufYsCa6eMyPB5ZxLtVnO9IFUQsA1IWJ/DBsmQ3/51dLFux9mtBryUzCdyBfe7GKM4KNDK7MikROCu9fy2XoTLVxOHlw/FTMuAFxQjF5DXLl30tEjkuCyTekypSy/LViw4IAm/g4tB1Q8TIDP3MpcP78HX/cuNhycPIofF4uabfz5j3xDvwKRMuQZJg0irI2+Aa47X75Ym5OCVlNuCi7ykrvsVst2N/ObauLRrEfMlu0IhmbxpgWzNvUhsyDGWJuIKh1mCC+ii7WJyOL7tTcx6GUjzqtVjDxXRCRYzzG9uF6eOa4E89HqsdiX+FuElI4yKgLCw0yA9Rx01hHFQPpj0RKuRuwuMbqsTNF1O7UQ7snc9HSZhtvRaw+/LVtt/6dNWr/6M6+fzp072aQeCFFaEDPaosUxct21V9tw1nD8R0ZMEObrrrnqgIB1MjYFFYHxL/j5CPj/Ti2OZ7X5d9/9D9mcqBQGrptecuJwmSyFwuoRLHDBgPfwY+If/Uetq48/+Uzuu+8hCx0j0J1C6KUFwnEgB64jzcPTL9I6YE3E9ayz1cHfSO8mRzW2CVnCZ/tCxLh3//1wj8xQhuAM/uY7eeHFVyydmLLSXylnBNcRfnkHXm36IJLMWXF8q1YmcmnB82fSIvKOPy8Er4Gzpj4zrYtrrrpCOp1PBV4h3TwJCCPHmT59prWCsPipKJmRjo4yRidmdAzgHoKtotQTCeUGuSy4mqBLhqgozdQ/VdSK6sPBR0sn1ArNJCwIKh1W+EWJFiDulneb8SwIyfKEEGjO0+RnPZbqdj3OKj0GYhiebbxchVWLqGLlYlFjsSLygBjzN+sQeOsk04oAVwMVAOKMJU0lwAAJrgvLHBcD7ow961WAf1eBnhw8Xk6hpyAzIXT+IbuexZceCJ5/n+CSeOBbFUI01wJ/1VWXS9OmR1lzioJB85seY0YWYcGe0e50G2xxrYpoHbUAOZ537HDrir8T9Tg33HCdTWTO9XjrMzsUFfHl9UI0DbEYOUbDBvXl3I4dze/swfqM0sMDi5dBFwhXsLAH9+f6/WnFK2TCD6lXrutTP4uEwpGbnqxhvT+NWEhT+9EHE8oTNkVUgicM7JuZe6LymjFjlg1V/XPEqNDajOHY9Oj7rw3ByUooHNfKyL/777/HJtqhKY+Vj5XKQj7FXdXu9NPk2WeelBtvuN5Gq3nnI1+ZyyjCORkM8sAD98ot3buZFWzbq9XNNXJsolg4F5Uw4kqYHJPYeKP7eKZYqY88/IAJL5EvDMDgOXt5m+PwN/mdQSQM0rlFj3Fsy+aZSvuDIXdfsUNUwujbJWbxVypUepqaRYLiiuAibFiK6AAChojiuyVsiw4xogUQwyQuT5fQ2x8M9kdocRMggFihFVUgbcxuCAoVYjljS/B4HIvOOnzHXpoi7uaa0GMjBli8CDNiiouBDjMsY9Zz7FKhCoNtufYVOySQUEmk8f0itS8JHfTgwYeFvwpHfrDJFLxg/FRYC8zSFAmEhA6Bjz/53L4Hd9PmszbPWqpleszRzVJZGh50xmAN4iOlOcxwWzJ5lSpVbJ+TTznJwpQYtTN12jQZ+/c4KaAFgGYiGf+sM88QZssHroEe5Lfe7i1vvvWOrFy5UgtBrF07hQY/rVkRmsxYiYSf4YJAQPzNTs7fs8ddWmh6WiGht5k3DOA64PicFwsGQWbuAXuTrN4wx+D4WLLh1grX8N03X8nRek+8qmXo0N8saJ9rJo3Zvlq1KloJHWMCQeHleMzAhosH65x13mtesN6YccqfplwPPvEftdkanBA9aIUhMJ3OP8cC64PHCNicsAwewArHT8k2DKHF380zsUTS/b17YglvajOBDwNCiNbIDFjIzHuAVcw9c2ziZHnOtWrV2idcmQFXE1EjTBdKvsGXzr0xOIWWEO4vog+w1n8e+ou5AciT5IfatWtaZR8+F4UH+XjWrDkWnUJnGRPPkCZcH24Z3Go8x4YN6lk+jQRphT8dt9m8efPsuTDXBtdIXDfuI0IJcaUwyU1m3CkHS+4L7vjHRea8pwmtf1dNDIoWIHZYlFi5uBAQOe9NuZQ7xCKoGAdChjPRVcFFdAupYFZWMcUaZke7I/1vkVql/I7IV9ZjY8mmdUzA5cHPWL42sk33ZR3HRdQRbcQWAV8ZPHegSHU1E3upmHcMHiOH8BeqcNKrhdPbD9LbFzFkUAIFCYs4MQErLTGVoEQ6vv+YFOR3e/e1JjzHAQZB9Ox5l1SvVt0EiQmvPQjJwafGmwBwA/jhXWBMLj5v3gJ56eVXraeZ/Yl4uPSSi6wXn7li6TjzrotPmuBML8hk1OHXO2L4b2pFHWtWmifw/utne76Hp1Ok+4ZI6RlpW/9x+Zt0ev2Nt23qQ0QfOnbsYK0IwqtS9gZfBwN8MhT199//0HT6OtWMVlhpjOYa8GG/0Jr0iXRtEOk+MgPHoyLAb0r+AaxSJgf3H9N/Xu9vLz3SA9GkgqVS5TxUSggj+TKzAsn52J+85lU07ItPHwFHgKNFLguuHnrTdJHfOkgMNTauATqryqv44Y/ldyxYYl3xx2I9Ej3gt1TTAiHEHcE8CPhzy6ooINhYwhxXNVEmhiasTtTj1S0adElkhO5qbgjEluvwwte4dqxhhNiiGrSyyJ8ggXKnihzzoN7Xwc1JeiRAxkYY6jdsYlaNR69HH5a777rNCmIksJp5oeNvv/0RWhNsGt5z953yWK+H5YMPB8gdd/awAgcMBiA+lbc9RILteCHjued1tgLrgSU39Ocf7V1pfl9wtEHoeX9Z9+6322AOwFqngsFPToUSDmmLFfn0sy/YBOcehPUxeOSzTweF1jjyMrks7apeG2bRzgp+xaDYooVmtjbz52wNCi1XgNWLICK2uAgyA5tZ9IKKIRYpnWq4AzyYTpGvbIcbIZP+QwNfcw21xom5xbWB0C7XCoHr5s29nIfrTFbh3aVW2a5VoR3/22B90qz0iy3s3LnDBCMtEGnPOvLAP0czj3353RNbSNK/w7cPh+Y61+OHtz6EB8YfChBcmuJMu+hBAP+q1av3tQrCwUWC24EefD80ydN6i7Mj75H7gsvcCcS1xump6qqFU7+YCpk2/ymAC7aJzNUFfyiC6PlSMwvNkXCB5iuLv3xj9drKTMBmbI4PFyFnxjKElslu6LBroNdfTysHOvgCKgI7icLYX3D+y9BUo4kbTu8+/eTRXk/IsOEjrFnniS+hO6+9/qZNZsOM/37ojGFSa/x94cJJjC0uhpdfeVWmqdXniTG9+0xtSO89FnH4ftddd40NnY1mEzISpBOdNXEFNT/5+PDDgeaKGTFilDV9AR8+lu2rr70pDz70qIXCedArz+vHGcrsODzIZZeCCu30d7XN+JSeSEW1khZGm6BGf8NKJASL5jmCWFkFjCiCzEKhZbACYVp0wNHphh8Xq5ffsHinbAoKKL9V198y8BelYt/gB13w3RKji2uBQ+BzptNuY7IESjQWaf6ISMWTg/v9h0FIeXHkGWd0tM4OP/jM8JfRQxz02xFfm2wdcYiLXxx5CWGPe+6Ujh3Ptn14T9UDDz5qsaceni+PjqlgDz/HDL6eHJHyBMvjyisut55rXkDIvhn5DnMT0ok5Aq697kaLFfaDv5we9X3ppNsmazrtJp3U+vWnE9EN/fv2lubNjz6k9+PIPLk/8CGxisi8zyQmWYURnyvNcwQMa5YRZyVUDLEcsSizYt3iwyV6gE4xMhuxtXS4AVUIh0IsyZ985xx0ntkPmYBKgUEV3ugz/Lme35gOM6zygli6KrTVztG/D+2bFvICFHqm2mvYqIEFlvuD67FCaS4zYAF3AAu9zl6vO/sSTsRsU/hu27U7zcKXsEYZY0/MLJaeN0CDfdgXYfWOx8LvnsXLvkQz4BdlXgLEFnE+1OLk3SufjGJjgIkHghpMJ/89aTppRbI/nQpZx99TTz5mn4fSH+3IGrkvuPnpyNJlw3SJSdoe9K0iVnSW4Q5g8SaOyWxBQPiIwfUGSXAM1XH7m7AyOraYb4FIBtazPSDImRZ1rif0pzd/Ax1pnJPj5i8igYqnijS4UaRoDd0WhXYgcgzTZKACr1EhIJ34W4QCwfAIWqjxUqRI8HXXRx/d1GIvb765q4Uo+YdYMqqLoHgEkzcD0OMcjOkNHtMTIsQUkQ6+5aGMnNi2rTz5ZC+5/LKL7bU3eUFsPbgWwpLqN6gvOzSdGK7r3RP47wkrn1hX3g5B/Ctv9ri3x90WFhUpzM+Rd8n9KAVIwgc6QWTGOxKzYap+1xo9RkWMqAF8uwgh7gTcAZ4IewIczH9BKxXhxBVBhADNfYQ1Hz+wPR++jVkNqo0Gos5gBiahwbrmu7/wsT3HZ8F3S9ga0Q+ErjGwglAwfsuH66OGBCq0EanRWS3gRrpOj5lHCnJeALHAn0o8LzOP/fPPP7Jw4WLhHWY0jfkdK41hmLyVlc6syvo3vfMMHUZkwsHyw9pjVBpDNJmHgE4mJiHndS0xWuEVKZpok40TB4pAE3fLMQmUzytCGw5WPukyf/5CG/CxeLGm09p1VllRfhISEqVChXKWPnU1nUivklpBMfY/Ujo58ja5K7h+UtQ63L4iODJr5QiJYfLuHUv1ClQ0KQsILM123A0Ib7gocpW4IxBbTwDzJYi97qZQGf1tq4qkngO/cT4s2YIq3CqEsSqQal1Lkp6LCoCoBnyxuAsQdg9PZLFmsWD55LuJt26br6gKbTUJlGkhgmVbsrFea8ngecAJbkQQ3q1bt5j/MUn/9mJfsYSx3HgzK5ED+Cwz05nlNbmZzwGXAmKLgJOH8seqNahWM2JOuNSh9tVmBaIQqFC4N9wH5qvV2+IeGP0Wr5Zs0A+edysPR8ZET3A9dql1u3O1WqezRNb/q8I7W2TrAl23Sq8Gi9WfmUJ/c4X2J+KnH3v1S8HyEqhyZtB/Wri8rsNNsS34GUt4mS4IL3M0rhkrsvgriVmtVnZsKJzIjqnH8R/bgwKcoitji4sUUZEtVlukeEORUiqyResEhRY3CduBKwAOhyMTRF9wASsUf+6eTUGrd8t8kW2LVXSXS8zOdWrFrlVh1s+UnbqoCDPfLAKH0CWUk0BCVZHSzUXKn6BWp/4dGxcUP0a2cWybCFetJU8Ief/YZrWo1bKWzdOD1jXn4bjJeh1YqRyfTjCs5UJlgy+LpMOvqIqtiq7E6bkLJOp2ajE7HA5HNjg0gusHQSWCIVnFFV8v4rhrvX7qkrJbRRHBVSFF6BC9+FImiFJIrdo4FUjENTPwXrXdal3vWBkUd85BjxrnZgZzXA8IKsePLx0UX0S4QELQWnadYg6H4yA59ILrB+sUqxO3AAuCaM12XcxqxTeLONJJlUmhDYfj40+24ytYxfgU7Pi6cHxbEFjnKnA4HDlH3hJch8PhOIJx7WSHw+GIEk5wHQ6HI0o4wXU4HI4o4QTX4XA4ooQTXIfD4YgSTnAdDocjSjjBdTgcjijhBNfhcDiihBNch8PhiBJOcB0OhyNKOMF1OByOKOEE1+FwOKKEE1yHw+GIEk5wHQ6HI0o4wXU4HI4o4QTX4XA4ooQTXIfD4YgSTnAdDocjSjjBdTgcjijhBNfhcDiihBNch8PhiBJOcB0OhyNKOMF1OByOKOEE1+FwOKKCyP8BrYTtRYqKiCoAAAAASUVORK5CYII=;clipPath=inset(10.94% 8.33% 55.73% 5%);fontSize=16;" parent="kLLIGCO7J5aGBXE1isZK-38" vertex="1">
          <mxGeometry x="140" y="90" width="130" height="32" as="geometry" />
        </mxCell>
        <mxCell id="kLLIGCO7J5aGBXE1isZK-66" value="" style="shape=image;verticalLabelPosition=bottom;labelBackgroundColor=default;verticalAlign=top;aspect=fixed;imageAspect=0;image=data:image/png,iVBORw0KGgoAAAANSUhEUgAAAOEAAADhCAMAAAAJbSJIAAAAq1BMVEX///9BWWrN1uAAAABDW22Tk5MmMz52dnb9blwoNkCRkZE5T148PDzr6+vT3OZ1en/l5eUKCgpnZ2fAwMAzMzP5+fmbm5smJiYcHR+Vm6NFSEvGz9nQWkvkY1ODiI8XGBmZQjcYCgkWHiQeKTGGhobQ0NCvr68yRFFUVFQMEBQ3S1kYISh4eHijo6NVWF1jZ2x9Ny2KPDLCVEafpq65wcpeYmeutr5GRka7u7uLBKzxAAAE1ElEQVR4nO3db2OaOhyGYVhQDioO3YbtunU7qCi2bues3Z/v/8kWYHVABQMmPxL73K+3mKtBQUGxLIQQQgghhBBC6FTBOg5Hg2Irl7TV4YFHYbz2JfP8wYTp1Wz7RqbP7dtztLdrWcA4G28WLYfFvIix96/J+sJY5B0efBllcwrlALMFvNvYTiWPsddTsq4ZGxYffeyl01rJAM75QMnOcexKufAVUbmw9Ph2JIeYruDyua9/IZ/Bks/t/lxg+hz0jvh0EObEM1fRz1bwGFCysPq0ExLKIPJtNDkOlCy8rfQoJDyfmC7hjkA4/Vrd103EhGc/F0O+m6gByhW+rwoXN2LCc1eRH6ptqIT/fT70fwvhecSAH8nU+OQLP/xz6GMb4VnENT9SqltCfYS2M+xMjGt3FVoJz1jFsGFUnYTdiYO64xndhJ031IEpa9iZaJCw44ZqkrDbKhol7EQ0S9iFaJiww3PRNGH7VTRO2JponjAnji5Z2JJoorDdhmqksNUqminMiYNLFubE/SULc2JwyULbuWNsctFC2+aLKHB60WBhOrvtRQvtMWOz0+f6TRY6kchmarSQv5OKL1s4FDnNb7TQEzmuMVo4hJBc+O3joQ+XKfy3kCbCDWNf6c4B3zadQ1EnrJ5t7yx8+FTptvK3m35pOB2tSJgd3FYvmehMvKn0bOPgD9bCJ0eYvkP5TnTJULqR1p+OViW0d/zv+kBCnD6ylhupHGH2IfoPAuL0cdFw2YtCoW0nnHj9/BItyT7+OsQfZ9wKKEnojLPLl65vVF5Y+uoh25XUXZqlVsiJSb77+nSlqnz8ZNwSKEvI86r7ahUN7bZAiULH9u7U8iKv9QJKFfKx0n8yVtWf8XsV6hmEEOofhBDqH4QQ6h+EEOofhBDqH4QQ6h+EEOofhBDqH4QQ6h+EEOofhBDqH4QQ6h+EEOofhBDqH4QQ6h+EEOofhBDqH4QQ6h+EEOofhCJCR92XnYS/FNUwOwnCsdqvrAlV/8VSSb+p0HsNP+QsR7iY9NmCQCj2w3aqav4xbgifhoCwzyCE0IIQQuVBCKHVShi4c5rcoDg9QuGW7O3Etjg9QuE9mfC+OD1C4bs3RK3f9STsIwghtCCEUHkQQmhB+NKEfkCTX5oeoTAkO/LeF6dHKPxJJvzZk/DXW6p+9STk759oKk8Pr6UCQ0DYZxBCaEEIofIghNBqJfQHI5pCvzg9QuGc7L3FHEJFQn8f0rTvayvtIwghtCCEUHkQQmhB+NKERB8IFz8SliNsGKIkjK8WNF3FXaZXV2j4mZnTdzyOGVsKCvdsRpPw2bWlyF2r1003jqyeIaXq70M2C4XuPB4wNqsbQffXUnvGWHB6jEnDvTH1FmZ3uhUYI2y4OabmwjuRFxr+5GL1N4/UWuikd4H1Tw9hWS5jiZHChDFXaJB0EWt2GDoL012F2BJmu8Savb7GwnRvL7Az/JObreKRgbQVOtkKim2jWelnvcnuuVFToePsktLnxgKlq8iiDf+/5Tyx12N1hamwkr3J7vvaYgXT4uyIdxYth8U8fli0pTofc6zBNr3PbGlOy2iWzVX4OfiU75K9c5DRXPBVtGwMJ33PW7BJ2MWXFazjcDQotnL7blWazyiM1wIH2wghhBBCCCGEXny/ARjsiB9MUFK7AAAAAElFTkSuQmCC;fontSize=16;" parent="kLLIGCO7J5aGBXE1isZK-38" vertex="1">
          <mxGeometry x="17" y="57" width="30" height="30" as="geometry" />
        </mxCell>
        <mxCell id="IqTQsW4RRnp4TFy5p23v-1" value="&lt;b&gt;&lt;font style=&quot;font-size: 15px;&quot;&gt;Natural Language /Generative- AI&lt;/font&gt;&lt;/b&gt;" style="text;html=1;strokeColor=none;fillColor=none;align=center;verticalAlign=middle;whiteSpace=wrap;rounded=0;" parent="kLLIGCO7J5aGBXE1isZK-38" vertex="1">
          <mxGeometry x="40.00384985256161" y="41" width="249.5660515833656" height="30" as="geometry" />
        </mxCell>
        <mxCell id="kLLIGCO7J5aGBXE1isZK-12" style="edgeStyle=orthogonalEdgeStyle;rounded=0;orthogonalLoop=1;jettySize=auto;html=1;flowAnimation=1;strokeWidth=3;fontSize=16;" parent="p0wZOzNyxaBEGN42C4hW-2" source="kLLIGCO7J5aGBXE1isZK-6" edge="1">
          <mxGeometry relative="1" as="geometry">
            <mxPoint x="1308.0000000000005" y="386" as="targetPoint" />
            <Array as="points">
              <mxPoint x="1230" y="386" />
            </Array>
          </mxGeometry>
        </mxCell>
        <mxCell id="kLLIGCO7J5aGBXE1isZK-80" value="PROMPT" style="edgeLabel;html=1;align=center;verticalAlign=middle;resizable=0;points=[];" parent="kLLIGCO7J5aGBXE1isZK-12" vertex="1" connectable="0">
          <mxGeometry x="-0.2618" y="-6" relative="1" as="geometry">
            <mxPoint as="offset" />
          </mxGeometry>
        </mxCell>
        <mxCell id="kLLIGCO7J5aGBXE1isZK-6" value="user" style="html=1;verticalLabelPosition=bottom;align=center;labelBackgroundColor=#ffffff;verticalAlign=top;strokeWidth=2;strokeColor=#FF0080;shadow=0;dashed=0;shape=mxgraph.ios7.icons.user;fontSize=16;" parent="p0wZOzNyxaBEGN42C4hW-2" vertex="1">
          <mxGeometry x="1198" y="510.9" width="60" height="61" as="geometry" />
        </mxCell>
        <mxCell id="kLLIGCO7J5aGBXE1isZK-52" style="edgeStyle=orthogonalEdgeStyle;rounded=0;orthogonalLoop=1;jettySize=auto;html=1;flowAnimation=1;strokeWidth=3;fontSize=16;" parent="p0wZOzNyxaBEGN42C4hW-2" source="kLLIGCO7J5aGBXE1isZK-15" edge="1">
          <mxGeometry relative="1" as="geometry">
            <Array as="points">
              <mxPoint x="1440" y="501" />
            </Array>
            <mxPoint x="1440" y="437.7036363636362" as="targetPoint" />
          </mxGeometry>
        </mxCell>
        <mxCell id="kLLIGCO7J5aGBXE1isZK-15" value="New&lt;br style=&quot;font-size: 16px;&quot;&gt;document&lt;br style=&quot;font-size: 16px;&quot;&gt;optional" style="shape=image;html=1;verticalAlign=top;verticalLabelPosition=bottom;labelBackgroundColor=#ffffff;imageAspect=0;aspect=fixed;image=https://cdn4.iconfinder.com/data/icons/file-extensions-1/64/pdfs-128.png;fontStyle=1;fontSize=16;" parent="p0wZOzNyxaBEGN42C4hW-2" vertex="1">
          <mxGeometry x="1370" y="473.4" width="55" height="55" as="geometry" />
        </mxCell>
        <mxCell id="kLLIGCO7J5aGBXE1isZK-59" style="edgeStyle=orthogonalEdgeStyle;rounded=0;orthogonalLoop=1;jettySize=auto;html=1;entryX=0;entryY=0.5;entryDx=0;entryDy=0;strokeWidth=3;flowAnimation=1;fontSize=16;" parent="p0wZOzNyxaBEGN42C4hW-2" target="ufXdxWMpvUYqsRV-47vq-79" edge="1">
          <mxGeometry relative="1" as="geometry">
            <mxPoint x="1030" y="341.6600000000001" as="sourcePoint" />
            <Array as="points">
              <mxPoint x="1030" y="270" />
            </Array>
          </mxGeometry>
        </mxCell>
        <mxCell id="kLLIGCO7J5aGBXE1isZK-23" value="" style="shape=image;verticalLabelPosition=bottom;labelBackgroundColor=default;verticalAlign=top;aspect=fixed;imageAspect=0;image=data:image/png,iVBORw0KGgoAAAANSUhEUgAAAKsAAAAmCAYAAAC7xmsfAAAAAXNSR0IArs4c6QAAAARnQU1BAACxjwv8YQUAAAAJcEhZcwAADsMAAA7DAcdvqGQAABWaSURBVHhe7ZwJdJVFsscbF8KahCQQIRACgoIKAglE9h18+BQRUVRwHkjAQVRAHXUEZXN8iL7R4wAqKrLLJq4MiyubyA6CC+oR9YiggAurJKFf/yqpbzo39yYBmfPwnfvn1Pm+211VXd1d3V3d/YVS1sFEEcUfAGflP6OI4ozHv8VZmayVoojidOG0O+uJEyfy36KI4vTitDkrTspMeujQIfPw2LGmS8eOZsOGDdEZNorTht+9wVInPXHCmmVLlpqxY0ebLz7bacqULWuqVE02b7/zromPjxfeUqVKyTOKKE4Fp+ysvtjePXtMr2t6mh07dpiYmBhTunRpcUwcOSEp0Xzw4YeSftZZ0f1cFKeOEntP3uyZN4sq9H3SPyaKo1auXNmMGjPaHD9+3JQrV84kJyebPbu/Nw+NeFCcF35fPoooTgYlmllx0uzsbPP997uNdfsn3o8eOypOmVylisyao0c9ZO776wNm3w8/mg7t2pk2bdqYMX972HRq1174Jj492fTp21f0RcOBKE4JOGtRcI4qz4EDBtjyMWVsxbLlbHz5CkLlS8fY+++9T3ig3Nxc+/KChTYpvpIdNvROkZs/f57t/p9X2qPHfrM5OTkB78lAZUpCJcHJ8kdxZqDYMMDxmNzcE2btmrWmsptFK7nNUq3atc0lDRuYRo0bm1q1auVz5mHl6lVyIlCvXn2R7dnzWjN3wXzzza5dZtdXX+VzGacz998SEuTZm5v/qzCcgwbl+u9RnPkoNgygQ7/++hvTKjPTlHbLPY6QnpEhDojgueecEyzrPL/77juzedNm06hRI5NSPUWcgfTe111n1q9da9p36mxuvOlG07xFC1OmTBmRi7TxUtmdO3eaLVu2mHO8skIBL/pq1qxp6tSpY84991zh9fmpC79XrVplDhw4YNq3b28qVqwoeZH0RnEGAWeNBJZJlvbFixfbxLh426ZFa5vRqLGtVDHWdr/yKnvs2DHJV8AfutSTf+TIEdvrmp62WpVkW7VyFQklGjW81E5/cXohHT5Ux6hRoxgXJabq1avbmTNn2sOHDwe2UAa23X333QGf2wTavXv3BuVEcWaj2DCAGWf71q2ySUpPb2IWvLLIJCYmmg3r1pkHR47M58qbtUDoLIk8M97suS+ZjVu3mIG3DjJxcXHmZzez3Towy6z94INiZ7Xy5cvnvxUN1cPs3qdPH9OtWzf5rbY5xzRPP/20vAM3iMySJUuiocAfBCU6utq+fYc5npNjGmekmxo1apinJk00KTVTzS0DsiSfzsZRZs2caTq272BemjNX0tVJwL79+83zU6aYRQtfzk8xplzZsiY+vlL+r5IhNjbW3HPPPWb48OHGzZJCt912m+ndu7dp0qSJDBZ1vvfff99ceeWVQXwcLowo62wobrBEcYbAdWJEsGy6GdV++eUXdu6cl6ybsWQ5ZdkkT5fWbVu32qu6XWETYuNsWvUattw5ZezKFSsCvh3bt9vz02rbyvGVJBTo1uVyCQdq1Ui1P/74o/CEA/JgwoQJsmw7p7K1a9cOQgfyQ2nZsmU2OTk5WOpjYmLsjh07An5CCjez29KlS9uLL77Y7tu3T/KiOPMR0VnpwN9++8327N7DLlr0cgGH0I7/5Zdf7OBBf7bJCUnifDgizlo7taatk5bmnPxLm52dLdSlc2fbrk1bSXtr+XJbvnQZFwO3CvSFA3nAd1bi0UOHDomDqz1KpDG4vv76a+tCj8Bhx4wZE+Tz/Omnn2SQUD+tSxRnPgqFAS5Nlm/XoWZA//5m9epV5q6hw43rXMljyYR4X75kqZk5c4bsvO++9y+mXv36IutmP3Pw4CGT1a+fOfvss4WmvviiWbJsqRx1ffLJJy6OjTEtW7eSMk9mGVZetcMnyiEMqFKlinFOHfC99dZbAQ92EzMTd2tYAEVx5qOAs9KR0J49e8zNN95k/vnmYonpps2YYZKSkvK5/uUw1/S61gzIyjKvLX7DDB0+zPzwww+ymVrsnBKH3bbtI/NfffuKzvPOO0+cGmS7zVpa7VomvWmG5J1OZ0EXTutvyo4ePZr/lgcGFKTQepPmZtogxg1N84m84qA6wslDml8c4AlnBzeJWpdIerSMUFlI5cLJkhZapvKS7lapAnl+flFQnnDyUFF1KXDOyuvu3btNRnq6KX32OaZCxQpm45bNJiYm7zxUgUP4Cilgt9uBt2nZyiRWSTJrP1xnPv/8c9P3xj7mww3rhF9J5XjyG+gzFMrz2GOPyaaKd2ZMZmYGUbjzWSrMyYWLR81XX30lMh07djTLly8XO7mwYNXAoRlYzLCAsjhFQCcNSTnIkr5u3TrZrLmwQWbta6+9VgYveeFsAJQF0MEg5tRh165dIsPq0rVrV/l2AhSlh/po3ubNm80777wjpxikcZbduXNn+XBIQXkKX/ajjz4S2Z9//lkmjczMTGkXEK580vKu2L+XtkJvtWrV8nONrFZr1qwRvgsuuEBOXlixiqoLbaL20TdufyETI2n13ap8+eWXy7l3RB0uI4CrnJ039yWbVClBYs8aVavZtBo17EUX1rOtW7Swi998s1B86QyQWHDhwoU2rnwFuVqFB/LPORW8OwPtX+66294+ZIj8DtWpUDk/Zq3h7Dl48KCUqeX4hMwrr7xi3RIvMtDEiROD/BEjRkie6zDbu3fvQA86Y2NjZeMVHx9v3aAVOedYUi7kGlD0EQ87J5G4F9lQqB3PP/+8bdCggWzykKdc1/GigzTy5syZE7YN+A05R7f9+/e3zlGC8nmij3fXubZDhw7WDaagvXhCzjHtnXfeaVNTUwvI6ntCQoLt0qWLdY5cyAbaxTmk2EubVKpUSWL8+++/P9jA+rqw4+qrrw7bJmoP5+1scOvUqSNtoW2ifcW5d7NmzaybWAIZHwWclUw3kmxtt0uvXrWqXAC0bt7CXnB+HZucmGRXr14tlQgFxv3y8y9u4/RWcAqgja2Ga+HIr1+33sY5x0hwu/IN69cHeaHQNN9Z09zGjUqrk8FDI7LZc7O5feqpp4KOhFw4YN2MFtgyevRoyacTbrjhhkAPmzZOCcijE3E01UGakqZBOAGXClpHwDuDtF+/fgXkcU4XCglpR2n+2LFjpR6qR9+3bNliL7zwwkBH6FOJ39Tzueeek/og//HHH8tpB3k+fzhZBufUqVOlTG1z9DAAlL9evXoy0MPp4qnvbnYMNsBA64ITMzB8XpyzqvMzt1pJf6gu6sKljtZFUWhmJfO5Z5+zVRISbddOnWxuTt7x1KeffmpPhAgDfpPvVzQS/MLvGjZMTg9u7nNzRFlNU2dVouE4wmKE1q1bV04IGNk+DxVn1GdlZYkeyoAeeuihIM+fWdVZfXmIxrzvvvvEEQYOHCgN6ZczcuTIwH6e6GMm1Hw6oW/fvvbbb7+VusDnlkDbvXv3oAz40E+e6uF4LiUlJdADH7+HuXabNm2afeCBB6QddKamPvfee6+UwYmL3/kqO3ToUJHldKRx48YyY2o+9MYbbwR9xFOdVfXrk3IZ9Nh8/fXXB3qUJk2aVKAuDF63zAf58OP4Bw4cEHsBA7Nhw4aBzQxuBhzyigLOCsjk+KdNy5ZyHDV1Sl4jcvxEHu8KfkNuA2MnT5ps58+bFxjoQ38/6Dr25ptuso+Nn2BdDGdrpda0yUmVrYulbG5+5Xzo71BnpSNCiUbUiirhZNitDgmV1FmhRx55JAhltBNZeS655JKAh+VZZxLyWdY1j5kDByBd2w+ClzZm9labGRT79++XPHjbtWtXoD5TpkyRUMXXBe/KlStFFidUG1q3bh3IMmsuXbpU+og8eFR269atMuC1DJxIz6TJ951V82fPnl2gLujEqSpXrhzwESKRDsHz+OOPB85OCEHYgX6/HrxDOtCxn3ZWHlDIWbWAlxe+LJ8Etm/V2v7666+BAFAenitchbp17WoTY+NkNn7VxYuap+A3BmVc2sgmVIy18RUqCn/Naim2xnnVbPu27cQoXwbo71BndZsriRtDiY6hgizvxFvIqw5sgErqrG4DJA6lcr6O+fPnF7Dns88+C+xv27ZtkO4v76FEuTgQK4PawwAmj873Z6shLrb3ZbVe+s4SyxOd/mCBdHlXAr4sg4+VSflvv/32QFeoszKr+7L6DhF+wUNd3IZLyqFN2J9UqFBB0qFZs2ZJura7T6QTZxMfa5nvvfee8FJWIWcFCIIFrlPEKPdPoYr3uEoOyhoom6pUt8SwIeNGKrVqit3rDIQHWZXhfdPmTTKb9P/TnyQWrplSXYiYWEe+D/3tx6ws/9w6sYRQMZ9CP1yBFPq7OGfVPOJzX14BPx1Mg8KLXcwUNDSbIWQ1nRia9EiELkILeJEjXABPPPGEpEHEuFqfSNC6wUd4gRw2MMNqe4SD5rGkq0xiYqLE/9gX6qwbN26U9FCgY73be6gONqWazsabdOp30UUXSZrfBqFEPXr16iX8yD366KOBnWHPGByjPHNycs28uXPNkcNHcGo5euD5xRdfmIYNLzWvv/qqqRhb0TTLvEyOSVzjm+zs4yazWaYceShUX8MGDY3beJi/jhhhjh45arKdTGxcnHnl9VcLHL8UBY6lXDwjRxxuxBYg0rEPuEaLeIRSHDgW00uFUKCX4y7n2Pkp/8KKFSuCNoLvuuuuMxkZGaZp06YRadGiRSKLjOtwkeeoTMGxUHGgnpQHXLwq7+jr2bOnpGleONBvHBkBZFwoIkeDPpDnuMtt9sK2KXL+ubaWx9PtdeSden3zzTemRYsWYdtBqXnz5ubtt98WfoCvKcL2pjI+8vA4c3PfvnL2ikFu9nKVyzF16tY1N/Tubdq0a2eWOcWXNW8mzjfsruGmeatW5vixY2bInwcbFz5IYyioqAsbTI/uVxu34TD1XEe89vprrhHqSX5RjaqAB0KXi1ULkXZcSXRFgtutBxcY4RBJv4sp89/yOpBzURcXyre44Yh8bgYVtBegnRVpaWnyLK4+lAfcChHwhn4YHwr4kONv53z91CO0PCYHHLI4O0LhNor5b0ZsW7t2bdi2UGKg8q2xgslJEXHqgSn7eI4pX7acqVC+gihq0TTTzJk9x2Du3598wsyaM1sOc1e8v9Jk52SbBg0amMf//j/yhZZbBAo4qlZyz569Zq+jJulNzGuL3zSprjNwsHAj9v8K2Hoq9vgy6HA77pMiF29Lm/kOwUUEUGcsDtigvFweFAfKogxfv69DwQAGvm0lgd8mODszZ7i6h6P09HTjNo/50g7OqEJwDWb3H9hvz0+rZeu4eHLMqFG2cqUE+dsqPkZh40G8BRHrVXF5MWedbbe72A1ZjmY4+zyRmxdrQKTzBJ98/Ik95mJU5DUtHDTPj1m5FKBM9J0M4IdKErOyUWNjEK4M0oit9LIAuzRmZXetdvJ0y560VUkJHdSZjQzyUJMmTSStqHYCyuOW2UCWD83D1UGhMgsWLAhkIPoPW/xzVs5CI4Ey2BQqL/sKxQsvvCDptLdzQGnvcHWPROojUMTp49DBQybHxZ+5boZ9ZtJkE+9itAcefNC8+c/FMsp0yQUjRo0yN/TtY6ql5P0ZS2pqqiyjK1euNP/h4qGff/pJRuS4seNMzx49zDE3kvkTGeRJ//8CZkb+rIY2AFzxUsfQUMUn1yHyVD5kO3ToELSNcwJZ1UhXvQp+u04MwjbAzAWQdY4iV8jkh8r6mDFjhjyRadmypXyzfDrgnFiuhAHlb9++XeJyv/7hyDmoPLUNlMI7q1O8f98+2ViBUk6o34ABpodzND+WQwH/P8Bttw8xL0ydKv/zCoUANzLNyJEjzMZ1683TkyfLUjNr+jTz9rLlLo45WmTj/RGhDaubGuB22bJBCK0rfIDYkPv5UW6wE9spHxsNYkR+k962bdvguwJ1Tt9Jp02bJhsjfg8aNCjY7BD7DR48WD7kCSeLUzzzzDPmVbdRBvDceuutgXP8XqCP0JDBxzs+ccstt8i3EpHAXqZ169ZmqvMnnL2AHU5JIeS6qdcF+7Z5ZqYcTXEuyp9eEwZclp4htzFM/ZCrtBAyPsjbumWrLXtuaZGfPXOWjS1X3mY0bmLdzCrTe3FAL/gjhAGaztWupkNcDOj9v087d+4scJDO1S1HRughn0sAzYP0QB6oDo7r3Ewq+VzLcg0NnAMWkKVemzZtkjyVpX5XXXVVwIPN3ExRPkS7/N4wQOtCXTkH17L4LmPVqlWBLUobNmyQq27l45sHtQeEdVaAMDHDzs92ys1U1i0D7MX1L7LNmzaz2cfzzgiPHjtmJ/1jop3w3+PtwV/zblcgcOjwYZvjClkwb76tkXyeTUutaVPc82/jxhXgKwrKc7qdFV2RnJW8kjgr3yioU6qzar24kePigjwl7G7VqpXt1KmTxKF0nsq71UjOE2lv9KguNysW0AHh4DgV5fsXBxAfkgDOrO+4444gXcvhpotrTxeqFJLNyMiQGzSt86k6KxTqrLTX5MmTpZ6qD+L2jJs6nNL/jgGi/fggSXWAiM4KYFRmiJsSvhHgapTKDMzKsnFu1kyIi7fXdL9aNlWk73N8l9Srb5s3y7Q9e1wjfzlQu2aafAzD6EFnSaBGjh8/XiqAg3HHzbVjSXUotC7c5dNQNBz32r6z8tUVeTgrB//hyiANp6LDtfG3bdsW8Gpb8eUQTkW+do52hKbxZEblogQZvzzesY17fOzx9YQSH8ZcccUVclGCHIQ+rjlxUF82tHxmObc0i6y2N6Dsd999V3hody4LgM+joDx1VnhZdfz68A6x2dLbsnD26G8uD8J9eVWks4aCCvide74b3dxcpaZUtxVjykgH05HsivlzbU4JCAHKubw4FwIkJSXJLY9vQFFQvmeffVbulJlN2O2eqrOCJ598UjqQmY4PO0iHuP3i6pMyGPHYGa4M0hiUmS5Ego860VE+L3bzm+f06dPFsfkwg9kM4p00Vgw+WInUHqQrYSuzm+qACDHchkgmAOXzofXihoo6+zYwMF18HVzVqr0K+nnNmjXy7QPOl56enp9TGMhyW8e1qvIym/ptAvjNrM81NHp9e1hpCGXm5X9fEq4+p/S/CDol8pww/lHz8JixbgNWygweMsSMfXicbDScUXLYzV8E/Aa5zdWRw4dNfFy8qXvhBScVwPvmIaO/SyrvA7uxz9fJu6+rJGX4+eF4NU2fgA0Q7QCf6xzZjGILv5XCQduafE4O2DRpGhspbtJ8G3w9pCs555OPzukbePQGsChZBek+Xzj4+ZF4Sdc8tYcnadwaunhV6oacko9TclagSletXCm7zQ5uV0vjQ0AbBfiFUpzylBTaOYqTlQ+F7wBqG3b5TeHnhYNvU3H2KG+o/pOph9oXqgMUpyeSbEnKL2k9Q/WXpE1C7QGR5Yz5XwGevq5rU2xAAAAAAElFTkSuQmCC;fontSize=16;" parent="p0wZOzNyxaBEGN42C4hW-2" vertex="1">
          <mxGeometry x="983.34" y="490.9000000000001" width="90" height="20" as="geometry" />
        </mxCell>
        <mxCell id="kLLIGCO7J5aGBXE1isZK-72" style="edgeStyle=orthogonalEdgeStyle;rounded=0;orthogonalLoop=1;jettySize=auto;html=1;flowAnimation=1;strokeWidth=3;fontSize=16;" parent="p0wZOzNyxaBEGN42C4hW-2" target="ufXdxWMpvUYqsRV-47vq-79" edge="1">
          <mxGeometry relative="1" as="geometry">
            <Array as="points">
              <mxPoint x="1390" y="255" />
            </Array>
            <mxPoint x="1390.0000000000005" y="335" as="sourcePoint" />
          </mxGeometry>
        </mxCell>
        <mxCell id="kLLIGCO7J5aGBXE1isZK-20" style="edgeStyle=orthogonalEdgeStyle;rounded=0;orthogonalLoop=1;jettySize=auto;html=1;flowAnimation=1;strokeWidth=3;fontSize=16;" parent="p0wZOzNyxaBEGN42C4hW-2" source="kLLIGCO7J5aGBXE1isZK-6" target="kLLIGCO7J5aGBXE1isZK-15" edge="1">
          <mxGeometry relative="1" as="geometry" />
        </mxCell>
        <mxCell id="ufXdxWMpvUYqsRV-47vq-79" value="Azure&#xa;Web App" style="shape=image;verticalLabelPosition=bottom;labelBackgroundColor=none;verticalAlign=top;aspect=fixed;imageAspect=0;image=data:image/jpeg,/9j/4AAQSkZJRgABAQAAAQABAAD/2wCEAAkGBxAQDxUQEBAWFhUVFRUaFRUYEBUVFxYVFRUWFxcVFhgYHSggGBolGxUVIjEiJSkrLi8uFx8zODMsNyktLi0BCgoKDg0OGhAQGy0mICYtKy0vLS8tLS0tMi0tLS0tLS8vLS0tLS0vLS0tLS0tLS0tLS0tLS0tLS0tLS0tLS0tLf/AABEIAOEA4QMBIgACEQEDEQH/xAAcAAABBQEBAQAAAAAAAAAAAAAAAgMFBgcEAQj/xABFEAABAwEEBgYIBAMGBwEAAAABAAIDEQQFEjEGIUFRYXETIoGRobEHMkJScpLB0RQzYoKiwvAjU5Oys+EWJUNEc+LxJP/EABoBAAIDAQEAAAAAAAAAAAAAAAAFAgMEAQb/xAAyEQABAwEEBwgCAwEBAAAAAAABAAIDEQQFITFBUXGRobHREhMiYYHB4fAyUiNC8RVi/9oADAMBAAIRAxEAPwDcUIQhCEIQhCEIQhCEIQhCEJEsjWiriAN5NFHWi+GDUwF3gPupNaXZKLnBualELLtLNLLfHMY2ObGwirSyMVLTvLq6wd1FULXedom/Nne+uxz3OHcTQJlDdb3gOLgAdp6Dil016RxuLQ0kj0+eC3Se8YGfmTRt+KVrfMrnOkFjH/dw/wCK0/VYPhRhWkXQzS87lm/67tDOPwt4bpBYz/3cP+KweZXRBeMEn5c0bvhla7yK+f8ACjCg3QzQ47kf9d2lnH4X0YhfP9kvO0w/lTPZwa9zR3A0Kn7v0/t0X5jmyjc9gBpwc2njVZ5LpkH4OB4dRxWhl7RH8mkcfngthQqRdXpEsslBO10Lvnb3gVHd2q32W0xysD43te05Oa4OHeEvlgkiPjaR915LfFPHKKsIP3VmuhCEKpWoQhCEIQhCEIQhCEIQhCEIQhCEIQhCEIQhQ2kF/QWKPHK6rj6kY9Z54bhvJ1eAUmtc9wa0VJUXOawFzjQKUmmaxpe9wa0CpcSAAN5JyVD0g9IrG1jsbcZ/vHAgD4W5u5mg5qnaRaS2i3O/tDhjB6sbScI3E+87ieyihgE8s11tb4psTq0fPLaklpvRx8MOA16fjnsVnuLSOZ9p/wD0yueJaCrjqa72cIyaDWlABmFdFkwatD0avP8AEQ0ceuygdx3O7fMFStsAbR7RhkfZQsU5dVjjjmPfrvXukV1/iISGjrs1s4729vnRZ5hWsUVO0tunA/p2DqvPWHuuO3kfPmiwz0Pdn06e+/Wu22Co7wevX05bFWcKMKdovMKZpZRN4UYU5hXtEIomcK8onaLwtQiiZIXTd9vms7+kgkcx29pz4OGThwK8is73mjGOd8LSfJd8Oj1qd/0qcXOA8K18FF7mAUeR60XWseTVgO0VVx0e9IrXUjtjcJy6Vvq/vbm3mK8gr9BM17Q9jg5rhUOBBBG8EZrG49EZj60jRyxOPkFYNG7FaLC6rLTVhPWiLDhO8jrdV3EdtckktVks58UTqHVjT01ctid2W1TjwytqNeFfnntWkoXLYrayZtWnXtG0LqSogg0KaggioQhCFxdQhCEIQhCEIQhCEIQhC4rytzYI8R1nJo3n7LoBJoFwkAVKjNK9I47DFU0dK4dSOuf6nbmjxy5Y7eFvltMrppnFz3bdw2ADYBuUvpq90k7ZXmpc3X2E6hw1hQAC9LYLMyKMOGZzPts5rzVvtLpZOzoGj3+5IASwF6AlALasYCAF23TbnWeUSNyycPeacx/W0LlASgFFwDhQqbSQahadBK17Q9pq1wBB4FeTwtewseKtcKEcFVNFr06N3QvPUceqfdcdnI+fNXCiRTRGJ9NyeQyCRld6zm9budZ5Sw6xm13vN++9cmFaJe13NtEeA6iNbXbj9t6qtl0ene4hzcABoS7+UbfJMoLU17avOIzS6ayua+jRUHJQuFdVkuyab8uMkb8m951K4WG4YItZbjdvdr7m5BSdFB9tGTBv6KbLGf7Hd1VWsuiZzlk7Gj+Y/ZS9muOzR5RAne7reeoKRoiiyvnkdmVqbBG3IJAaAKAUC9XqKKlWFIoghKomJrTGz15Gt5vA810LhwxKeilcxwc00IVnu28GzN3OGY+o4KjyXzZRnMOyrvJNx6UWaNwc2U1H6HfZElmdIPxNdhQy0tjP5Cm0LSkKJuG/IbZH0kTq4TR7aEFp5HYdh+xUslrmlpLXChTJrg4BzTUFCEIUVJCEIQhCEIQhNyPDQXONABUncAqTedtM8hcchqaNw+5XXpVfYE7bG06y0ufwpQsb26yeTd6igt9niLR2nDPLZ88qLBaJe0ewNHNQOlsVWMfucR8wr/Kq2ArrfkGOzvG0DEP26/KqpgCd2R1Y6aiktqbSSusL0BLAQAlgK8lUgL0BegL0BLAXFKiSGq7aLW907ejdUuZ7Wwjife8+9Q1z3E6Wj5KtZsHtO5bhx/8AqtdnibGA1gDQMgEvtcjHDsDE8kwskT2ntZDmpSKzBuesr21QYhUZjx4Is82Icdv3TyTVIPmm1AR5KGIXtFI2qz4tYz81AW+9IodTnVd7o1nt3dq1xnt/iFmeAz8iu2iYtNqjjFZHhvM6zyGZVbtt/wAz9TOoOGt3f9lCvJJqSSTmSanvW1lkJ/I0WN9qH9QrPatJom6o2OfxPVHjr8FEWnSO0O9UtYODanvdVRhCQQtTbPG3Rvx+OCyvnkdp3YfPFLtFslf68jjwLjTuyXGWp8hNkLQMMAszscSmSE2QnyE24KSgpHRq+n2K0NlbUtyez3mHMcxmOI5rb7NaWSsbJG7E14BaRtBFQvntwWhei+/KVsUh1GrofN7fNw5OSu87N22d63MZ+Y+OWxM7stPZd3Tsjlt+ee1aShCEgT9CEIQhC5bfa2wxPlf6rGlx5AVoOK6lRPSpeWCzsszTrldV3wR0NO1xb8pV1ni72VrNfLTwVNol7qNz9Q/ziqHZ7xfLbhaJD1nvqeGPq0HAA05BXQLN28Fodkmxxtf7zQe8J9bGU7JGzokNjeT2gc89+aeLQRQ5FUSeAxvcw+ySO7IrQLPA+R2FjSTw+u5PSaCCaTpJZi2oFWtaCajbiOrKmzYs8NpZCT2zmtMtmfKB2Bks6ASgFqMeglhA1te7iZCP8tEibQWyOHUMjDweHD+IFWf9OCund8qH/Nm8t56LNQFZ7kuKlJJhr9lh2cXceCmLHoZ0DzJi6Wnq9XCRxpU1K6qKMtsDxSM4a1OKyFhrIPRFF7Reoosa2L1jiDULvZaWkVrr3bVWLzvoMqyKjnbXZtHLefBQcNskbJ0ocS7aTrqNx4K0WR0gqcNX33VRtIYaDFXyW0E5agq/fty9JWSMdfaPe/8AbzUjd9ubMzE3P2m7QftxXUqGOdE7DAhXPa2VuOKzhzaJBCud9XMJavj1P27nc+PFVGSMgkEUIzBGsFOIpmyio3JXLCYzQpghJITpCQ4K5UJkhNkJ4hIcFJVlMOCQ4J9wTTgpBQITTglWW0vhkbLGaOY4OaeINe5eOCbcF3aoZYhb7dNubaIGTsye0Gm47WniDUdi7Vn3opvPFHLZXHWw42fC7U4DgHUP71oK8naYe5lczVls0L1lml72Jr9fPTxQhCFQr0LGfSHbumvCQV1RBrB2Crv4nOHYtkc4AEnIZr57tloMsr5Tm9znHm5xd9U2uhlXufqFN/wClN7vpG1ms8vkhJarzoLA60xmPIRu1u3NdrHbXEqRBG5zg1oq5xAaN5JoB3lbho/dTLJZ2QtpUa3O95x9Z30HABbbynEcYbpOXVY7thL5CdAz9V22WzMibhYKDxJ3k7SnkIXnK1XogKZIQhCEIXLbbE2QVGp2/fwK6kLoJBqFwgEUKq8owVxaqZ12UVavW+DJVkepm05F32CsunFjc6EStJowjG3e06g48jTv4KjgJ1Y2Ne3vDmlNqLmu7H0pIavcKWAlUW+qyAL2y2h0Tg9hofAjceCtt325szajUR6zdo+44qo0SoZXRuDmGhH9UO8LPNCJB5q+KQxnyV2Ude10tnFRqeMnb+DuCcuy8mzCmTxm3fxbwXalvjifqIW6jZG6ws+tVmdG4seKEf1UbwudwV/vCwsmbheOThmOX2VOvO7ZIHUcKtOThkfseCaQWgSYHA/cksms5ZiMlGuCbcF2WeyySvwRsLnHYBXt4DirDZtA7S8VkkZHw1uI501dxKuknjj/ADIH3VnwVLIZJPwFfuvLiqc4JpwV5m9Hs1OpaWE7ixw8RVVq+LjtNlP9tGQNjx1mn9wy5GhRFaYpDRjgSoy2aWMVc0gfdVVDuTbk+5NOWlZSprQS29DeEWvU84Hcn6h/FhPYttXzq15aQ5poWkEHcRrBX0HZZxJG2QZPa1w5OAI80kvdlHNfrw3f6nd0SVY5mo13/wCJ9CEJOm6jdIJSyxzuGYhkpzwGnisFatv02fS7rQf0Ad7gPqsRan10D+Nx8/ZIb3PjaPI8/hWj0eWMSW5jjlG0u7RQN8SD2LW8azP0X0/ETb+iHdjFfotFxrFejibRTUB1W67GgWcEaSensn8aMaYxoxpcmCfxoxpjGjGhCfxoxJjGjGhCXaIhIx0bsnNLTyIosrLCCQcwaHmFqONZxeX58v8A5Hf5iml2O/JuwrBbm4NO1c6EITVL0IQhCF4HFpBBoRkRsVhuq+Q+jJdTtjsg77FV4pDlXJE2QUK6yQsNQr2j8MJeoQCDmCKiirN134WUZLUt2OzLfuPFXG7XtLMbSCHZEbkpnY6HP0KYwvbLgNyfuy74rMzBE2g2nMuPE7V140xjRjWFzi41Oa2AACgyT+NJla17S17Q5pFC0gEEHYQc01jRjXF1Zrppo2LK4Swg9C80pn0bvdr7p2cqbq1Ny2287I20QPhdk9pHI5td2EA9ixORpBIIoRqI3EZr0d3WkzRkOzHEaOVF528bOIngtyPA6edUy5blofNju+zndGG/J1P5Vhzlsvo5dW7IeHSf6rz9VC9x/CD5+x6Kd0n+Zw8uRHVWZCELz6fqB03bW7p/hB7nNP0WJNW76SRY7FO0CpMUlBxDSR4hYO1P7oP8Th5+yQ3uP5GHyPNWr0fWsR2wMP8A1GEdupw/ynvWmYliNlndG9sjDRzXBw5g1C2C7rwbPE2VmThluO1p4g1CzXtEQ8SDI4eo6jktF1S1YYzmMfQ9DzXdjRjTOJGJKU2T2NGNMYkYkIT+NGNMY0Y0IT0kwaC45AEnkNZWcueXEuOZJJ7TVWjSe34IuiB6z8+Ddvfl3qptKcXdGQwvOnkPvBLLbJV4aNHuloQhMVjQhCEIXhSHpTikOKAolNuV+0dcPwkVNx78RqqC4q1aI2ysRiObDUfC7X517wsV4tJhqNBB9uZWmwuAlodI+VZca8xpjGjGkacLoxrzGmMaMaELoxrHL6p+Impl0j6csRWszz4Wl27z2LNr0uGRuJ8ZxjWSPa15/Em11Oa1zi40yCVXqC5rQBrKr7lsfo4H/LIeJl/1XrHHrbdCIOju6zt/SXfO5z/5lqvY/wAIH/r2KyXSCZnHy9x0KnkIQvPr0CRLGHNLTkQQeRFF89TwmN7o3ZtcWnm00PkvohYrp9YehvGTVQSEPbxxirj8wem90Po9zdYB3f6lF7sqxr9Rpv8AkKCarHofer4phEBiZIdbdxp6w7Br4Dgq21WjQuy1c+Y+yKN5nWfCnemtqDTE4OFQldlLhK0tNCr42SusL3GuBjiMk62ZeZfA4ZYr0rJmuzwXViRiUWL5s3983vp5pUd7wOcGtlBJyArr7clHuZP1O4qXex/sN4UliSZJg0fRcbrTuTJNc1Yyzk/koPmH9VW706TpSZczkdlNlOCYBVotEDZG4XCo8Qd4Vet1hdEd7djvodxTuGUOHZy+6OiUyxkHtZpoFe1TQK9xK+irBTlV4SkYkFy5RFV6SkEoJSCVJRJXjil2O2OhkEjMxs2EbQUy4pslBaCKHJQ7RBqFf7vvGOduJh5t2t5j6rqxrNY5nMdia4gjaDQqUg0nnbqcA/iRQ+GrwSiW7Hg1jNRqOe/I7U0ivFtKSCh1jLdmrtjSZZ2saXOcABmSaAKmzaWzU6sbQd5xO+oUJb7xlmNZXl24ZAcgNXaoxXXK4+MgDefvquy3nE0eCpO4fdgV7mtzZgDG4FmwjaVzlUWz2t8TsUbiDt3HmNqnrDpEx3VlGA+8NYP1C2usboxRmI4rC22CQ+PA8F3XjdsUwq9uv3hqd/v2rRrus/RQxxj2GMb8rQPoqXdkYlljaCCHOGWsFo6x18gVf0ttchIayuGaZWRgBc6maEIQsS2oWfele7cUcVpaPUJY/wCF2tpPAEEfvWgrhviwNtNnkgfk9pFdxza7sIB7FfZpu5la/Vns08FRaYu9iczXz0cVgTStG0fsvRWZjdpGI83a/AUHYqNZbvd+KFneKOD8LxuwnreAK0gJ9bn4NaNvRIrCzFzjs6pQXFflr6KBzgdZ6rebtvYKnsXaqppfa6yNiGTRU/E7LuA/iWOCPtyALZO/sRkqDaU81y52lOApulQVpui9w+jJDR2w7Hc+PmpdUIFT1131SjJTq2P2j4t/NYJ7N/Zm7p0W+G0aH71YF6QCKEVB2JDXAioNQcilLEttVEW66Pai+X7H6KIdUGhFCNitycguhlpd/aDUM3DUfhBWhtq7A/ky4/KodZ+0fBmqtYLvmnNIYy6mZyaObjqCnYtCrQR1pGN4Vc76K5WeNkbQxjQ1oyAFAE5jWSS8ZCfAAOJWplgYB4sTuVBteh9rYKtwycGuoe5wHmq7MxzHFr2lrhmCCCOYK2DGoy/LnitbKO1PA6j6awdx3t4KcN5GtJBhrChLYARWPPUfv3yWWEpDinbZA+KR0bxRzTQj7cNvamCU6Hkk5XhKbcV6SmyVJQKHFNOKU4ptxUgqykuKbcUtxTdCSABUnUANZJOQCkFWStB9E9hcTLaCThFGNFdWI0c403gYR+4rSlEaNXX+EsscHtAVed73a3a9us0HABS68pa5u9mc8ZaNgwXrLJD3MLWH12nNCEIWZaEIQhCFTdILiAtrba0aiwteP16g13a2o7BvTQVyniD2ljsiNaqNqs7onljtmR3jYVuhlLwGuOIw9PhYJogwlwGfNIqs6t1p6WV8nvOJHLJvgArpf1p6OzSO2luEc3dX617FQGlNrEzAu9OqVW1+Ib6/eKeBTgKYBSwVtIWQFPgpQKZBSwVxSqpK77zfDqGtu1py7NxVlsV4RyjqnXtacx91Sw5Ka8g1BoRkcis8sDX45FaYp3MwzCvlVYbAzDG0bxU8ys6sd/ObqlGIbx632K0KCYOY1wyLQRyIqEmtsbo6AptY5GyEkLqxoxrnxoxrAty6MaMa58aMaEKo+kKygOjnG0FrubdbfAu7gqcStL0hgZLG1r21GKo1kbCK6uaq82j8R9Vzm9oI8RXxT2w2lohDXaK80kttncZS5umnJVglIJU/Jo2fZlHaynkVzSaOzbHNP7nD6LcJ4z/ZYDBJ+qhSU24qYdo/aP0/P/sk/wDD1o/T8/8Asp99H+wUO5k/UqGJVw9Gtx9NaPxLx/Zwnq7nSZtH7fW54VG2bROeR4YHNq40Gtx7cslrly3ZHZIGQR5NGs7XOOtzjxJWK32xrYi1hxOGwLbYLG4ydt4wHP4zUghCF55egQhCEIQhCEIQuG87CJmavWHqn6Hgu5C60kGoXHNDhQrJNOZS1jIiKEuJI+EU1/N4KogrXtNNFhbWY49UzB1amjXj3TuO49/DI54XxvMcjS1zTRzSKEHivS3fMySKgzGY+6PNeat8L45anI5H22r0FLBTIKUCtqxp4FOApgFLBXKKQKdBXuJNBy9BUVKqdqr/AKJ3iJLOGE9aLqkcPZPdq7FnmJdN3298EgkjOsZjY4bQeCzWuz9/H2RmMQtVltPcyVOWRWqY0Y1DXXfkNoAAOF+1jjr7PeHLwUniXmnscx3ZcKFeiY9r29ppqE9jRjTDpABUmgGZJoFWr60qa3qWchztrtg+H3jxy5qcMD5ndlgryG0qE0zIW9p56+gUzeM2J1Bk3z2rjqqzHpLIPWjaeRLfun26Ts9qJw5OB86Js2ySMFAEqda43kklT5KQVEN0kgOYcObR9Clf8Q2f3z8hXe5k/Urgnj/Yb1KEpJUYNILOSAHOJJoAGkkk5ADaVd7guctpNM2js2sPs8Xfq4bOeVMxMQq8KyICU0YV1XBdnQtxvHXcMvdG7nvUwhCVucXGpTVrQ0UCEIQoqSEIQhCEIQhCEIQhCFXNKtFoba3F6koHVkAz/S8e03xGzaDY0Kccjo3BzTQqD42yN7LhULAb3uqeySdFOzCdhza4b2naP6NFxgrfrxu+K0RmKaMPadh2HeDmDxCzXSL0eyw1kshMrfcPrt5bHdlDwKf2W8mSeGTA8D09d6Q2m7Xx+KPEcR19NypwK9Dk29paS1wII1EEUIO4g5IBTKiWAp0OS6pgOSsS4pVTmJe4k3iRiQu1TtV0xXnaGijZngbsbqea4cS8xKLmhwocV1ry01aaLqtFrkk/MkLubi7zXOXJOJeFy6AAKBcLqmpSi5eEpBKTVSooEpRKesNjlnkEULC95yaPM7AOJ1KzaP6B2i0UfNWGPc4ddw4M2c3dxWlXLc0FkjwQMp7zjrc473O28styXWm8Y4sGeI8PU+yY2a7pJcX+EcdyhdEdDo7IBLLR82/2WcG1zP6u6mutuQhIJZXyu7TzUp/HE2NvZYKBCEIVasQhCEIQhCEIQhCEIQhCEIQhCEIQhCEIUVfFw2a1ik8Qcdjx1Xjk4a+zJUm9fRo4VNmmBHuPFD8zRQ9wWloWiG1zQ4NdhqzHH/VnmssU2L2468jvCwi36O22D8yzOAHtBuJvzNqAooOX0YuG1XXZ5fzYY3ne6NpPeRVMmXv+7Nx9j1S6S6AfwfvHSnJYFiRiWzT6D3c/X+Hwn9Mkg8MVPBcrvR3YDkJByl+4WgXrAdBHoOqzm6p9BbvPRZHiRiWtt9HVgGyQ85B9AuqHQS7m6/w+L4pZD4YqIN6wDXuHVAuqfW3eeixkuUhd9yWq0U6GzvcDk7CQ35jRvitrstzWWLXHZ42neI2176VUis773/Rm89OqvZc4/u/cOvRZddXo2mdQ2mVrB7reu7lX1R4q7XNozZLIAYogXe+7rO7z6vZRTaEumtk02DjhqGA+7UxhskMWLRjrOJQhCFmWlCEIQhCEIQhCEIQhCEIQhCEIQhCEIQhCEIQhCEIQhCEIQhCEIQhCEIQhCEIQhCEIQhCEIQhCEIQhCEIQhCEIQhCEIQhCEIQhf//Z;fontSize=16;imageBackground=#FFCE9F;" parent="p0wZOzNyxaBEGN42C4hW-2" vertex="1">
          <mxGeometry x="1168" y="225" width="90" height="90" as="geometry" />
        </mxCell>
        <mxCell id="kLLIGCO7J5aGBXE1isZK-53" style="edgeStyle=orthogonalEdgeStyle;rounded=0;orthogonalLoop=1;jettySize=auto;html=1;flowAnimation=1;strokeWidth=3;fontSize=16;" parent="p0wZOzNyxaBEGN42C4hW-2" source="ufXdxWMpvUYqsRV-47vq-79" target="ufXdxWMpvUYqsRV-47vq-2" edge="1">
          <mxGeometry relative="1" as="geometry">
            <Array as="points">
              <mxPoint x="1210" y="125" />
              <mxPoint x="23" y="125" />
            </Array>
          </mxGeometry>
        </mxCell>
        <mxCell id="kLLIGCO7J5aGBXE1isZK-26" value="&lt;br style=&quot;font-size: 16px;&quot;&gt;&lt;br style=&quot;font-size: 16px;&quot;&gt;&lt;br style=&quot;font-size: 16px;&quot;&gt;&lt;br style=&quot;font-size: 16px;&quot;&gt;&lt;br style=&quot;font-size: 16px;&quot;&gt;&lt;br style=&quot;font-size: 16px;&quot;&gt;Vector Database" style="shape=cylinder3;whiteSpace=wrap;html=1;boundedLbl=1;backgroundOutline=1;size=15;fillColor=#FFB570;fontSize=16;fontStyle=1" parent="p0wZOzNyxaBEGN42C4hW-2" vertex="1">
          <mxGeometry x="1000" y="516.96" width="60" height="80" as="geometry" />
        </mxCell>
        <mxCell id="kLLIGCO7J5aGBXE1isZK-57" style="edgeStyle=orthogonalEdgeStyle;rounded=0;orthogonalLoop=1;jettySize=auto;html=1;entryX=0;entryY=0.5;entryDx=0;entryDy=0;flowAnimation=1;fontSize=16;strokeWidth=3;" parent="p0wZOzNyxaBEGN42C4hW-2" source="kLLIGCO7J5aGBXE1isZK-26" target="ufXdxWMpvUYqsRV-47vq-79" edge="1">
          <mxGeometry relative="1" as="geometry" />
        </mxCell>
        <mxCell id="kLLIGCO7J5aGBXE1isZK-77" value="" style="group;fontSize=16;" parent="p0wZOzNyxaBEGN42C4hW-2" vertex="1" connectable="0">
          <mxGeometry x="1000" y="285" width="100" height="90" as="geometry" />
        </mxCell>
        <mxCell id="kLLIGCO7J5aGBXE1isZK-73" value="Web app &amp;amp;&lt;br style=&quot;border-color: var(--border-color); padding: 0px; margin: 0px; font-size: 16px;&quot;&gt;&lt;span style=&quot;font-size: 16px;&quot;&gt;Model Inference&lt;/span&gt;" style="image;aspect=fixed;html=1;points=[];align=center;fontSize=16;image=img/lib/azure2/compute/Function_Apps.svg;" parent="kLLIGCO7J5aGBXE1isZK-77" vertex="1">
          <mxGeometry y="30" width="68" height="60" as="geometry" />
        </mxCell>
        <mxCell id="kLLIGCO7J5aGBXE1isZK-76" value="" style="shape=image;verticalLabelPosition=bottom;labelBackgroundColor=default;verticalAlign=top;aspect=fixed;imageAspect=0;image=data:image/jpeg,/9j/4AAQSkZJRgABAQAAAQABAAD/2wCEAAoHCBISERIREhUSERISEBESEhEQGBERERISGBQZGRgUGBgcIC4lHB4rHxgYJjgmKy8xNTU1GiQ7QDszPy40NTEBDAwMEA8QHxISHzQkIyM0MTQxNDE2NDQ0NDExMTQ1MTQ0NDQ0MTQ0NDQ0NDQxNDQ0MTQ0NDQ0MTQ0NDUxNDQ0NP/AABEIAOEA4QMBIgACEQEDEQH/xAAcAAEAAQUBAQAAAAAAAAAAAAAABwECAwQGBQj/xABOEAACAQECBgkODAUEAwAAAAAAAQIDBBEFEiExUVIGBxRBYXGBofATFyIyQnJ0kaKxssHR0hUWIyQzNFODo7PC4mJzkpPDQ1SC4SU1Y//EABoBAQADAQEBAAAAAAAAAAAAAAACAwQBBQb/xAAxEQACAQIDBAgGAwEAAAAAAAAAAQIDEQQSMRMhMlEUM0FhgZGhsQUiUnHR8FPB4UL/2gAMAwEAAhEDEQA/AJmAAAAAAAAAAAAAAAAAAAAAAAAAAAAAAAAAAAAAAAAAAAAAAAAAAABp4SwhSs1N1a0lCK0529CW+yLNke2TUm5U7KupwzY7ux3y+zxslGLehGUktSVrVbaVJX1Jwpr+OSj5zyK+zCwQz1lLvIzlz3Xc5A9qwjWqScqk5ybztt3mq3fny8ZYqS7WVupyJ1ltg2Bd3N8SgvPIx9cawaan4XvkHAlsonNqycOuNYNNT8L3x1xrBpqfhe+QeBsojayJw641g01PwvfHXGsGmp+F75B4GyiNrInDrjWDTU/C98dcawaan4XvkHgbKI2sicOuNYNNT8L3x1xrBpqfhe+QeBsojayJx641g01PwvfL4bYVgfdTXJB+aRBYGyiNoz6AobM7BP8A1cXvoT86TR61kwlQq/RVKc+CMot+LOfNCNihbKlNpwnJNZsryHHSXYxtWfTYIW2PbYtoouMK/wArTzO/tkuB5/OStgXDNC108ejLGzY0XdjRfCvWVSg0WxkpHpgAiSAAAAAAAAABo4VwjTs1Gdaq8WEFe9Le9FcLN1shrbS2QOtX3JTfydF3zu7qpd6kSjG7sRlKyuc/sp2SVbdVcptxppvqcE8kYnhlpcaUrGcAA6cAAAABWEHLIk29CTYBQGzDB1aWaEuXIZVgmtqrlaO5XyI5lzNEG88E1tVeNGOWD6q7h8lzGWXIZo8zVBfOlKPbRa400WHCQAAAAAAPSwHhqtY6salKTVz7KO9Jb6Z5oAPovY7hunbaEa1N5c0478J3ZUeuQPtfYedktUYSfyVZxhNbyd/Yy8bJ2jK9XmaccrNMJZkXAAgSAAAAAANDDNsVCz1arzU6cpPkV5822ivKpOc5u+U5SnJ8Ld7Jw2zrTiYNrpZ59ThySqRT5ryCy6ktxTUe8C8AtKyt4KAAvBYVvFwezgfBSqLqlS/Ev7GKyY3C3oPejCEFclGC5Illiji0qaWpHnV7OXwpXlOrPGbujJxit5JO40XVNGbfUkdZeUbPCwBXljSg23HFxlfvO9L18x7TZOMsyuQlHK7BsxtlWyxs6cKSSeRpNaHlPJt+Dkk508m+473Gj1Wy1s5JJ6koycdDlwZrXBRnOKzKWTieX1mEympbwAAAAAAmfQewvCW6bDQqt3ycFGffx7GXOj58Je2obTjWSpTf+naJXcUoQl53Irqr5Sym/mJEABnLwAAAAACPttyd1iita0QXiUn6iGiYNt9/NKfhUPQmQ+X0+EpqcRUFAWECoKAHCoCV+bLxFcV6H4jgO0s77Cn3kPRRpW7BdOpLHvcJPO1dc+Q0aeG5xjGPU+1ilne8rtAeHJ/Z879hpc4NWZmVOad0enZLHClFqOd55POzK2eO8NS1Od+wteGJanO/YNpBaDZzep7DZY2WUamPCMrrsaKd2gubLCBRssbKtljYB4eEPpZ/8fRRgM9uTdWd2Xtciy9yjD1OWrLxMyvVmqOiKApLI7nkeh5GUOWOlwAABJ209UyWqOiVN+OMl6iMSSNp59na/uP8hCpwk6fES0ADMaAAAAAACONuH6pS8Kh6EyICX9uH6pT8Jh6EyIC+nwlNTUAAmQNvB9hlWnixyJZZS3kvadPZcG0qaV0VKWtLK/8AorgqyqlSjHumsaffPpcbTZqhBRV3qZKlRydloGyxsNlsmWXKykpFrkGyxsHQ2WNhso2cBSTLGw2Wtg6UbLWw2UOHTa2Gv/y9Lil+WTDeQ9sN/wDb0uKX5ZL7Z8n8Zt0jfy/tns4Pq/3kilWEZxcZpTi88ZJSi+NMj3ZtsNpqnO1WWGJKCcqlGHayh3U4Leaz3LeJCbLXoPPoYidCWaHl2P7/ALuNE6amrM+dy49TZPg7c1rrUkroY+PTX8E8qXJlXIeTefXwmpxUo6PeeU007MuJI2ne3tf3H+QjUkrad7e1/cf5BU4TtPiJaABmNAAAAAABHG3D9Up+Ew9CZD5MG3D9Up+Ew9CZDxdT4SmpqVM9hp49WnHTOPnvNc9HAcb7RDgvfiRbHe0iqTsmzrmyxsq2Wtm0xCTMbZVssbOHSjZa2GzXrWunDtpxT0X3sXsdtcytlrZqvCNLX5pewteEKevzS9hzNHmSyy5Gy2Wtms7fT1uZlu7qWtzM5mXMZXyNkpKSSbeRLKzWnhCmt9vgSfrM+DcF2nCE1ClHEpX9lVnf1OK0t90+BFdStCnFyk7JE4UpSdrHubWtilUtVW1NPEhFwi95znvckVzknNmhgfBlOyUIUKa7GKyyfbTm+2nLhZutnxWMxO3rOfZovt+7/E9yjT2cFENlGyjZRsxtlxGu2lZrq1Cqu7pyg3pcXf5pHCEm7aML7NQlotDj/VTk/wBJGR9X8Lnnwse669fxY8vEq1Vgkrae7e1/cf5CNSStp3t7X9x+s2z4SqHES2ADOaAAAAAACN9uH6pT8Kh6EyHyYNuL6nT8Kh6EyHi6nwlM9Sp6GA5XV4cKa8aPPM9hqYlSnLRNewti7NMrkrpo7VsxtlWyxs2GIo2WNlWzQwvXxKbuyOXY8m+cbsrnUruxZSjXtlZWeyxb1p5ko78pPej5ztsF7W1mhFO0zqV5vtlBulST4LuyfG3yI9Ha+wTGz2OnUa+UrpVZSefFfaR4rrnynUHyuN+I1Z1HGDsly7f8+3iezQw0IxTaOY+ImDfsZf3a3vFfiHg37GX9yt7x05a2YOlV/rl5v8l+yhyXkc18RMHfYy/uVfeKfEXBv2L/ALlX3jpmy1sj0uv/ACS83+TuyhyXkc/Q2G4Pg8ZUIya+0cqi8Umz3KcIwiowSjFZoxSSXIi5so2U1K0575tv7tssjFR0RW8tbNNYQTyqFRreaxbnw5ym7v4Knke0js6nImbjZa2am7f4Knk+0puz+Cp5PtIulU5HTl9s+fzSlHfdqi/FTmvWiLyUtmGC61uVKNNKEabnJ9UvvcpXJXYt+8uc5j4i2rXp+X7D6L4bVp0cOozlZ3bt4mDE0qk6l4o5Qkvad7e1/cfrOf8AiLaten5fsOs2CYNqYOlWdVY/VOp4vUt7Fx778a7WRtniqDVsyKY0KqfCyTwefYMJxrSlBRnGUUpXTxcqvuvVzZ6BGMlJXW9E2mnZgAEjgAABG+3F9Tp+FQ9CZDxMO3H9Tp+FQ9CZDxdT0KZ6lSgBMiddYbR1SnCW/ddLvlnMzZy+Dbc6UnflhLtloelHRUrRCavhJS4s/iNdOeZd5knBxfcZGzycPvsId8/Meo2eTh7tY98/Mdnocp8SJrwOrrLZ0t6z0Py4m4aeCX82s/g9H8uJttnwLe8+hWgbKNlGy1srbJlWy1sFGQclzJWDZZN5HxMuLJ5nxMrc1zJWPKssvk48T87Olp4OpNLsL7kr25STbav3mcvZX8nHvX52drQzeL0UfQ4OEZSnmSempnxEmlGzNT4Np6i/qqe008JWWEIXxjitSSfZSkmmm9/iPdPJw39G+/j6MjTXpU1Tk1FackU0pyc0m2eLjC8svGMeOegX3i8svF4BvYEfzl/yf1HSnMYDfzl/yf1HTns4TqV4+559frGAAaSkAAAjfbi+p0/CoehMh0mTbhj8zpvRaYPyZr1kNF0NCqepUqUBMgVCZQAGTqstaXjZbObaytvjbZaN46tQfQmCX82s/g9H8uJttmlgh/NrP4PR/LibTZ8RJ7z14rcVbLWw2UbK2ydjhcL7DLVWtFWtC1dThUqOUYfLdinvZJXGn8QbZ/vfzfaSI2YbTaIU4SnUkoQhFylJ5klvmyPxPExSjFrdZcK+3Iq6NTvd+7OA+Idr/wB7+b7S2ewS13P57vP7X2nqw2wbI6mI41Ywvu6q0sXjazpHV4ylHGi01KN6aypprI0W1sdj6Ntp8t9Lxj+CEKNCfDv8X+TybJ9HHiO3oyyJ3NpqLTWVNYqOBs1phGEU5JNLKsukzK3w3p88i6hiFRlLde/eaKtF1Euw7zqnBLxHl4c+ivzX1I3J58kZHMbvjr88ijt0Hnknx3stq45Tg45de/8AwrhhnGSlfTuNm8XmruynrrnG7KeuucwXNVmbV5W81N2U9dc43ZT11zi4sz2MAfWpfyf1HUnI7Gq0ZWmTi711G7Jpxkdce3g+pXj7nm4jrGAAaSkAAA4PbYo42D6kkr3CdKflpPmbIQPovZhYer2OvT16ckuB3ZH4z50aayPI1ka0PfRbT0K56lAVBYQKFxQAFQy0qATtsVt0a9is84u9qjCnJaJwSi0/FfynrNkJbFtktSwzdy6pRm11Snfd/wAoveZK+CMP2W1xvo1IuV3ZUpdjVjxxeXlWQ+Tx2DnQm5WvFvc/6f7v1PSoVYzSXaeo2UbKNlGzzbmmwbPB2a2OpWsNWnTTlPsJ4qzyUZqTiuRHuFTtKq6c4zWsWn5bxKClFxfafPsYScsRRk5N3KKTc29GLnv4CbNj1lnRsVClU7eFFKS1c7xeRO7kNm0bno31pqjTayurNU4P+p5Tg9luzhThOhZL8WUXGdZpxclvqCeW7hZ7FWtV+JuNOnCyTu3e65a2Xf3sxxhHDXlJ3Z6d/qKmvGzU7l2KzLToK7mp6q5zLKzZ6a0M4MG5qequcbmp6q5zm46ZwYNzU9Vc43NT1VzjcDODBuanqrnG5qequcbgdTsK+nn/ACn6SO4OD2DUoxtE8VXfJPTrI7w93BdQvH3PKxPWsAA1FAAABgtdPGi1wHz7s4wO7La5tK6nVbnF72N3UfXyn0Q0cfs32OxtdGUc0l2UJb8ZLMyUXZkZK6IFBnt1knRnKnNYsou7ga0rgMBcVgAHTgAAAKxk01JNpp3pptNPSmsxQAHt2HZZbqVyjWlNLual1ReN5ec9eltiWpdtToz4bpLzM40GWeCw898oLyt7WLFVqLSTO1ntjWprJSox4ezfnZ59q2b2+d6U401/8oxT8bvOaBGOAwsd6pr397h1qj/6ZntVqqVZY1SpOpLedSTldxX5uQwTzPiYKTzPiZsjuskVS0ZLNls0ZQi23ljwGXccdL5hYZfJR731mxjdOjPj3qfRGDccdL5im446XzGxjdOjGN06M4DX3HHS+YruOOl8xnxunRjG6dGAa+446XzDccdL5jYxunRjG6dGAejsSpqNpmll+Qvy9+jtTjdir+dT8H/Wdke9guoj4+55mJ61gAGooAAABjqwUlczIADhNluxGnaY33XTV+LOPbLpoIlwtsfr2aTU4ucV3cU7uVbx9JyinnPKt2CKdRO+KZKMrEXG581gmbCmwKhUbeIk9Mb4vxo5+0bXCv7GdRcF8WudesszohlZHIO5ntd1N6cuWKfrMfW9q6/kfuO5kMrOKB2vW9q6/kfuHW9q6/kfuGZDKzigdr1vauv5H7h1vauv5H7hmQys4oHa9b2rr+R+4db2rr+R+4ZkMrOKLZ5nxM7fre1dfyP3FJbXtW59m82p+4KSuccXY6Wwy+Tj3vrNi/plNWxP5OPF62Z7+nRHyD1PoDJeUv6ZSy/p0Qv6dEcBkvF5jv6dEL+nRAF9/TKOm+WX9OiF/TogD2dij+dz8H/WdocRsSfzufg/6ztz3sF1EfH3PMxPWsAA1lAAAAAAAAABbci10o6DIADA7PHQNzQ0GcAGDc0NA3NDQZwAYNzQ0Dc0NBnABg3NDQNzQ0GcAGDc0NBSVmjc8m8bAAI6+ALVC+MYwlGLaTale1fvj4FtmpDyyRQZOg0Pp9WX9Jq8/Qjr4FtmpDyx8C2zUh5ZIoHQcP8AT6s70qrz9COvgW2akPLHwLbNSHlkigdBw/0+rHSqvP0I6+BbZqQ8sfAts1IeWSKB0HD/AE+rHSqvP0OT2L4KrU606tVRV9PESjfrX35TrADRCEaccsdyKZzc3dgAEyIAAAAAAAAAAAAAAAAAAAAAAAAAAAAAAAAAAAAAAAAAAAAB/9k=;fontSize=16;" parent="kLLIGCO7J5aGBXE1isZK-77" vertex="1">
          <mxGeometry x="43" y="20" width="40" height="40" as="geometry" />
        </mxCell>
        <mxCell id="kLLIGCO7J5aGBXE1isZK-79" style="edgeStyle=orthogonalEdgeStyle;rounded=0;orthogonalLoop=1;jettySize=auto;html=1;entryX=-0.004;entryY=0.542;entryDx=0;entryDy=0;entryPerimeter=0;strokeWidth=3;flowAnimation=1;fontSize=16;" parent="p0wZOzNyxaBEGN42C4hW-2" source="ufXdxWMpvUYqsRV-47vq-78" target="kLLIGCO7J5aGBXE1isZK-73" edge="1">
          <mxGeometry relative="1" as="geometry" />
        </mxCell>
        <mxCell id="kLLIGCO7J5aGBXE1isZK-58" style="edgeStyle=orthogonalEdgeStyle;rounded=0;orthogonalLoop=1;jettySize=auto;html=1;flowAnimation=1;strokeWidth=3;fontSize=16;" parent="p0wZOzNyxaBEGN42C4hW-2" source="kLLIGCO7J5aGBXE1isZK-26" target="kLLIGCO7J5aGBXE1isZK-73" edge="1">
          <mxGeometry relative="1" as="geometry">
            <mxPoint x="1046.12372" y="385.3097600000001" as="targetPoint" />
          </mxGeometry>
        </mxCell>
        <mxCell id="K4g5WOlfaWYmHdOhpnB6-1" style="edgeStyle=orthogonalEdgeStyle;rounded=0;orthogonalLoop=1;jettySize=auto;html=1;flowAnimation=1;strokeWidth=3;" parent="p0wZOzNyxaBEGN42C4hW-2" source="ufXdxWMpvUYqsRV-47vq-1" target="ufXdxWMpvUYqsRV-47vq-23" edge="1">
          <mxGeometry relative="1" as="geometry">
            <Array as="points">
              <mxPoint x="120" y="485" />
            </Array>
          </mxGeometry>
        </mxCell>
        <mxCell id="p0wZOzNyxaBEGN42C4hW-1" value="" style="sketch=0;pointerEvents=1;shadow=0;dashed=0;html=1;strokeColor=none;fillColor=#505050;labelPosition=center;verticalLabelPosition=bottom;verticalAlign=top;outlineConnect=0;align=center;shape=mxgraph.office.devices.laptop;" parent="p0wZOzNyxaBEGN42C4hW-2" vertex="1">
          <mxGeometry x="1310" y="335" width="160" height="93" as="geometry" />
        </mxCell>
        <mxCell id="VO-A5_KPKAvEiYEqMW6d-1" style="edgeStyle=orthogonalEdgeStyle;rounded=0;orthogonalLoop=1;jettySize=auto;html=1;entryX=0;entryY=0.5;entryDx=0;entryDy=0;entryPerimeter=0;dashed=1;strokeWidth=3;" edge="1" parent="p0wZOzNyxaBEGN42C4hW-2" source="ufXdxWMpvUYqsRV-47vq-28" target="kLLIGCO7J5aGBXE1isZK-26">
          <mxGeometry relative="1" as="geometry" />
        </mxCell>
      </root>
    </mxGraphModel>
  </diagram>
</mxfile>
